<?xml version="1.0" encoding="UTF-8" standalone="no"?>
<!-- Created with Inkscape (http://www.inkscape.org/) -->

<svg
   xmlns:dc="http://purl.org/dc/elements/1.1/"
   xmlns:cc="http://creativecommons.org/ns#"
   xmlns:rdf="http://www.w3.org/1999/02/22-rdf-syntax-ns#"
   xmlns:svg="http://www.w3.org/2000/svg"
   xmlns="http://www.w3.org/2000/svg"
   xmlns:sodipodi="http://sodipodi.sourceforge.net/DTD/sodipodi-0.dtd"
   xmlns:inkscape="http://www.inkscape.org/namespaces/inkscape"
   width="297mm"
   height="210mm"
   viewBox="0 0 297 210"
   version="1.1"
   id="svg513"
   inkscape:version="0.92.1 r15371"
   sodipodi:docname="form.svg">
  <defs
     id="defs507" />
  <sodipodi:namedview
     id="base"
     pagecolor="#ffffff"
     bordercolor="#666666"
     borderopacity="1.0"
     inkscape:pageopacity="0.0"
     inkscape:pageshadow="2"
     inkscape:zoom="0.7"
     inkscape:cx="839.65491"
     inkscape:cy="297.73599"
     inkscape:document-units="mm"
     inkscape:current-layer="layer1"
     showgrid="false"
     inkscape:window-width="1920"
     inkscape:window-height="1001"
     inkscape:window-x="-9"
     inkscape:window-y="-9"
     inkscape:window-maximized="1" />
  <metadata
     id="metadata510">
    <rdf:RDF>
      <cc:Work
         rdf:about="">
        <dc:format>image/svg+xml</dc:format>
        <dc:type
           rdf:resource="http://purl.org/dc/dcmitype/StillImage" />
        <dc:title></dc:title>
      </cc:Work>
    </rdf:RDF>
  </metadata>
  <g
     inkscape:label="Layer 1"
     inkscape:groupmode="layer"
     id="layer1"
     transform="translate(0,-87)">
    <path
       style="fill:#000000;stroke-width:0.26458332"
       id="path581"
       d="m 18.167083,129.73125 c 0.151648,-0.66019 0.248795,-1.32969 0.406196,-1.98905 0.102283,-0.43018 0.233955,-0.85597 0.375766,-1.27482 0.113369,-0.33604 0.267328,-0.65551 0.410875,-0.97928 0.183231,-0.39319 0.39344,-0.77344 0.575489,-1.16704 0.187537,-0.43393 0.486577,-0.7934 0.761762,-1.17002 0.210712,-0.23348 0.424122,-0.45483 0.641977,-0.6789 0.320445,-0.33455 0.658162,-0.65105 0.981755,-0.98222 0.302374,-0.28515 0.586902,-0.58784 0.890874,-0.87132 0.337904,-0.31481 0.738936,-0.5506 1.098147,-0.83564 0.333563,-0.21098 0.672159,-0.40615 1.020951,-0.59173 0.418867,-0.18257 0.837694,-0.36669 1.265245,-0.52798 0.401998,-0.15706 0.809284,-0.30254 1.221036,-0.43208 0.510604,-0.15301 1.041855,-0.19455 1.571514,-0.2141 0.399172,-0.01 0.798513,-0.007 1.197766,-0.006 0.626248,0.0123 1.206172,0.22436 1.777437,0.45808 0.473842,0.15692 0.922208,0.37109 1.348118,0.62938 0.224576,0.11356 0.431927,0.27832 0.658561,0.40452 0.375433,0.21058 0.725882,0.45557 1.069978,0.71377 0.386011,0.28838 0.774059,0.5711 1.141621,0.88403 0.471379,0.38225 0.835787,0.86941 1.26514,1.29418 0.572751,0.58525 1.080944,1.22386 1.543878,1.89813 0.562081,0.89481 1.020374,1.84882 1.492067,2.79291 0.469019,0.92911 0.906291,1.87449 1.414413,2.78345 0.415049,0.77998 0.959635,1.4754 1.44713,2.20934 0.443553,0.71835 0.865833,1.44847 1.357493,2.1356 0.67764,0.92638 1.374431,1.83681 2.006631,2.79556 0.97921,1.3655 1.789515,2.82883 2.499127,4.34868 0.962618,2.22023 1.843816,4.47638 2.723232,6.73089 0.713465,1.79127 1.39632,3.59533 2.181744,5.35708 0.440515,0.9881 0.771684,1.64519 1.246121,2.61719 1.358334,2.67592 2.662952,5.37801 3.970446,8.07894 1.278374,2.74664 2.691059,5.42505 4.282157,8.00285 1.091152,1.7075 2.280335,3.35599 3.620444,4.87786 0.885992,1.00617 1.094304,1.181 2.03898,2.11662 1.271969,1.2065 2.643989,2.31451 4.123429,3.25809 0.86816,0.55371 1.16798,0.68713 2.07404,1.163 2.17862,1.07463 4.48476,1.84583 6.82591,2.47438 2.21117,0.54301 4.44983,0.97849 6.71089,1.24778 1.66465,0.17883 3.35125,0.28957 5.01519,0.0342 0.28933,-0.0444 0.57338,-0.11811 0.86007,-0.17716 1.40338,-0.30378 2.65563,-0.97904 3.89711,-1.66858 0.3742,-0.25657 0.19879,-0.13246 0.52733,-0.37077 2.196837,-0.96241 3.557887,2.1444 1.361047,3.1068 v 0 c -0.34103,0.0378 -0.13831,0.002 -0.60015,0.1447 -1.552187,0.53217 -3.062937,1.1977 -4.686787,1.49906 -0.36683,0.0611 -0.73153,0.13683 -1.10049,0.18335 -1.86923,0.23571 -3.7589,0.10533 -5.62279,-0.10765 -2.37231,-0.34241 -4.72018,-0.82362 -7.03655,-1.44286 -2.51512,-0.71048 -5.01921,-1.50154 -7.35995,-2.68194 -1.03869,-0.57374 -1.30166,-0.68982 -2.29299,-1.35593 -1.58247,-1.06333 -3.019032,-2.32128 -4.367132,-3.66585 -0.838356,-0.87754 -1.325104,-1.36583 -2.123495,-2.28858 -1.399336,-1.61731 -2.653041,-3.35292 -3.823965,-5.14092 -1.6228,-2.64641 -3.110013,-5.3709 -4.397798,-8.19761 -1.320271,-2.69434 -2.66818,-5.37452 -4.011716,-8.05723 -1.289878,-2.64573 -2.437677,-5.35482 -3.584302,-8.0651 -0.946798,-2.1557 -1.868173,-4.32732 -2.944585,-6.42222 -0.733078,-1.35241 -1.572898,-2.64095 -2.510015,-3.86193 -0.663091,-0.90256 -1.376944,-1.76364 -2.080651,-2.63449 -0.543507,-0.72333 -1.02969,-1.48387 -1.484768,-2.26573 -0.519393,-0.81062 -1.077584,-1.59741 -1.508262,-2.46153 -0.507278,-0.94161 -0.97158,-1.90592 -1.447213,-2.86379 -0.423833,-0.80471 -0.817922,-1.63466 -1.365493,-2.36478 -0.355394,-0.4988 -0.767435,-0.94546 -1.199629,-1.37883 -0.369835,-0.3583 -0.711716,-0.74432 -1.106295,-1.07576 -0.313099,-0.25322 -0.649732,-0.47186 -0.977683,-0.70512 -0.252542,-0.17376 -0.480647,-0.36714 -0.764952,-0.48809 -0.32956,-0.18722 -0.587351,-0.34994 -0.897059,-0.55247 0.123745,0.0291 0.02347,0.0104 -0.103005,-0.0716 -0.163508,-0.10601 -0.412885,-0.17067 -0.600348,-0.25093 -0.152323,-0.0624 -0.389078,-0.15914 -0.490395,-0.19036 -0.356772,-8e-4 -0.713607,-0.003 -1.070332,0.004 -0.233696,0.007 -0.469508,0.0131 -0.698957,0.0623 -0.355664,0.0974 -0.698926,0.24032 -1.042141,0.37349 -0.282906,0.0909 -0.540621,0.24867 -0.816404,0.35503 -0.235503,0.12455 -0.460296,0.28085 -0.702201,0.37893 -0.27146,0.17426 -0.529138,0.3456 -0.752925,0.58766 -0.277754,0.18638 -0.460735,0.48775 -0.738878,0.67477 -0.280522,0.28493 -0.59218,0.53616 -0.825106,0.86535 -0.195977,0.24986 -0.369255,0.4391 -0.558488,0.6278 -0.0098,0.01 0.01355,-0.0242 0.02032,-0.0363 -0.160213,0.19102 -0.213828,0.21402 -0.374581,0.45606 -0.169709,0.34903 -0.344964,0.69537 -0.503357,1.04979 -0.123414,0.2938 -0.233849,0.59177 -0.345754,0.88992 -0.02881,-0.11878 -1.41e-4,-0.0205 -0.08554,0.23872 -0.07579,0.23006 -0.201645,0.41785 -0.25214,0.65354 -0.149106,0.48042 -0.304729,0.97566 -0.265576,1.48426 -0.267015,2.40313 -3.665564,2.02552 -3.398546,-0.37762 z"
       inkscape:connector-curvature="0" />
    <path
       style="fill:#000000;stroke-width:0.26458332"
       id="path583"
       d="m 50.472943,153.02947 c -0.55027,-0.26178 -1.161706,-0.3917 -1.75709,-0.51528 -0.302078,-0.0893 -0.578366,-0.0325 -0.877597,0.0288 -0.488159,0.1196 -0.966417,0.27711 -1.441397,0.44058 -0.66204,0.23822 -1.266322,0.60796 -1.84877,0.99707 -0.968849,0.68028 -1.847353,1.48429 -2.703449,2.29964 -0.645025,0.57492 -1.230249,1.2114 -1.771539,1.88367 -0.477499,0.49352 -0.869948,1.05 -1.251786,1.61732 -0.494033,0.72909 -0.863243,1.52923 -1.224489,2.32925 -0.375193,0.83423 -0.66398,1.70546 -0.969865,2.56706 -0.426977,1.1426 -0.770011,2.31197 -1.111197,3.48207 -0.182816,0.77694 -0.407244,1.55026 -0.511074,2.34329 -0.144315,0.83933 -0.353005,1.66842 -0.546934,2.49812 -0.294457,1.17752 -0.575395,2.36041 -0.742558,3.56353 -0.06527,0.87649 -0.219528,1.73732 -0.405347,2.5951 -0.294894,1.12981 -0.575927,2.2635 -0.872808,3.39291 -0.181708,0.78488 -0.45752,1.54554 -0.792945,2.27692 -0.36951,0.78901 -0.771173,1.55955 -1.222883,2.30466 -0.31472,0.63733 -0.755306,1.18145 -1.254337,1.68099 -0.333669,0.30137 -0.654275,0.61517 -0.976074,0.92926 -0.43493,0.3639 -0.868723,0.72809 -1.285455,1.11284 -0.364519,0.3148 -0.647237,0.70369 -0.971391,1.05766 -0.350591,0.48364 -0.840766,0.81144 -1.351801,1.10418 -0.604052,0.31539 -1.238118,0.56783 -1.860979,0.84309 -0.574643,0.23377 -1.148998,0.47115 -1.737384,0.66842 -0.581845,0.15378 -1.181586,0.2065 -1.780651,0.2328 -0.407519,0.0136 -0.815334,0.012 -1.22302,0.0114 -0.04841,0.006 -0.09681,0.0124 -0.145217,0.0185 -2.453904,-0.0103 -2.439347,-3.48064 0.01455,-3.47035 v 0 c 0.04751,0.007 0.09502,0.0131 0.142523,0.0197 0.369213,0.002 0.738426,0.006 1.107647,0.005 0.301283,-0.003 0.606308,-0.003 0.902049,-0.0678 0.485026,-0.11767 0.962499,-0.28332 1.42168,-0.47698 0.497803,-0.19987 0.992265,-0.42122 1.441863,-0.71578 0.24865,-0.14992 0.454851,-0.29335 0.63395,-0.53993 0.408627,-0.34804 0.692105,-0.84283 1.132543,-1.16368 0.379603,-0.34754 0.772364,-0.68076 1.145313,-1.03527 0.321212,-0.33259 0.661252,-0.63993 1.012476,-0.93821 0.328715,-0.31916 0.659997,-0.62395 0.886494,-1.03104 0.408562,-0.59194 0.678003,-1.24231 0.943041,-1.90873 0.26793,-0.61122 0.573289,-1.20544 0.78922,-1.83838 0.353783,-0.98995 0.585952,-2.02179 0.782027,-3.05328 0.1319,-0.88028 0.204515,-1.77077 0.420489,-2.63718 0.301302,-1.16698 0.602329,-2.33654 0.79158,-3.52798 0.127675,-0.86454 0.209976,-1.73371 0.33782,-2.59814 0.23237,-0.87664 0.560708,-1.71938 0.846315,-2.57941 0.400791,-1.17279 0.672018,-2.38075 1.050528,-3.56052 0.309954,-0.98034 0.610714,-1.97062 1.06544,-2.89583 0.431977,-0.92319 0.844076,-1.85949 1.386255,-2.72539 0.435772,-0.73517 0.909135,-1.43279 1.509834,-2.04602 0.672256,-0.72448 1.405597,-1.38448 2.174444,-2.00596 0.973042,-0.84784 1.902378,-1.74455 2.906255,-2.55655 0.785757,-0.61994 1.619737,-1.18984 2.550602,-1.57132 0.643088,-0.25587 1.302983,-0.46412 1.974945,-0.63072 0.788654,-0.14513 1.57448,-0.20841 2.356768,0.023 0.657072,0.19824 1.308113,0.42607 1.990127,0.52661 2.288371,0.76278 1.209622,3.99903 -1.078749,3.23624 z"
       inkscape:connector-curvature="0" />
    <path
       style="fill:#000000;stroke-width:0.26458332"
       id="path585"
       d="m 137.87245,168.52674 c -0.98904,0.72358 -1.74941,1.71751 -2.55389,2.63205 -1.69356,1.90241 -3.10573,4.02489 -4.51996,6.13597 -1.58453,2.45286 -3.07809,4.96669 -4.37742,7.58269 -0.76341,1.61084 -1.63608,3.16525 -2.45545,4.74714 -0.73448,1.38168 -1.46127,2.7739 -1.90614,4.27917 -1.24716,2.01069 -4.0907,0.24694 -2.84354,-1.76375 v 0 c 0.0649,-0.0375 0.14162,-0.0595 0.19458,-0.11245 0.23367,-0.23379 0.5904,-0.7926 0.7359,-1.03941 0.49449,-0.83883 0.8962,-1.7291 1.32584,-2.60137 0.79274,-1.66507 1.56957,-3.3474 2.63572,-4.861 1.64708,-2.44205 3.39217,-4.8217 4.81173,-7.41009 1.33872,-2.28206 2.58744,-4.62695 4.15496,-6.76503 0.79564,-1.07778 1.62826,-2.12915 2.39104,-3.23055 1.70174,-1.70175 4.10838,0.70489 2.40663,2.40663 z"
       inkscape:connector-curvature="0" />
    <path
       style="fill:#000000;stroke-width:0.26458332"
       id="path587"
       d="m 116.85151,169.23045 c 0.77656,0.0537 1.55503,0.0684 2.32404,0.20304 0.70149,0.12284 0.84783,0.18401 1.54088,0.38038 1.1273,0.36461 2.22742,0.81724 3.23644,1.44382 0.74031,0.45971 0.96359,0.66333 1.65346,1.20055 1.68953,1.44969 3.08492,3.18914 4.54686,4.85663 1.51915,1.78054 3.22374,3.38265 4.96208,4.94425 1.69825,1.46438 3.34537,2.98525 5.0027,4.49524 1.18515,1.04363 2.22352,2.23875 3.3626,3.32887 1.46862,1.64659 -0.86002,3.72352 -2.32863,2.07693 v 0 c -0.91391,-1.18927 -1.86792,-2.35023 -2.91913,-3.42202 -1.57795,-1.56439 -3.17778,-3.10545 -4.86404,-4.55407 -1.79053,-1.64046 -3.5609,-3.30069 -5.17518,-5.11893 -1.37609,-1.5131 -2.71007,-3.07994 -4.30343,-4.37446 -0.21727,-0.16431 -0.42765,-0.33817 -0.65183,-0.49293 -0.99612,-0.68766 -2.11882,-1.15769 -3.28177,-1.47876 -0.90371,-0.20963 -1.85778,-0.38455 -2.76667,-0.10477 -2.39269,0.23927 -2.73107,-3.1445 -0.33838,-3.38377 z"
       inkscape:connector-curvature="0" />
    <path
       style="fill:#000000;stroke-width:0.26458332"
       id="path589"
       d="m 157.03974,187.75042 c 0.11426,-0.84423 0.25265,-1.75854 0.90881,-2.37658 0.17728,-0.16699 0.3995,-0.27867 0.59925,-0.41801 0.31256,-0.0561 0.62037,-0.18047 0.93769,-0.16822 0.71948,0.0278 1.44533,0.52314 1.7465,1.17329 0.10566,0.22807 0.1701,0.47464 0.22282,0.72041 0.0318,0.14823 0.0194,0.30258 0.0291,0.45388 -0.0436,0.99578 -0.47055,1.98311 -1.44748,2.39815 -0.23435,0.0996 -0.4956,0.11705 -0.74339,0.17558 -0.25538,-0.0383 -0.51988,-0.0373 -0.76614,-0.11498 -0.93115,-0.29388 -1.36472,-1.0943 -1.58718,-1.96817 -0.14132,-0.87224 0.0983,-1.77904 0.82695,-2.33661 0.17164,-0.13135 0.37303,-0.2184 0.55955,-0.3276 0.94077,-0.30049 1.8563,-0.049 2.45229,0.76224 0.28185,0.38364 0.28137,0.66553 0.37716,1.12837 -0.0185,0.21073 -0.0112,0.42533 -0.0555,0.63217 -0.16805,0.78443 -0.85739,1.6937 -1.71804,1.78869 -0.36596,0.0404 -0.73235,-0.0768 -1.09853,-0.11521 -0.3158,-0.3001 -0.7289,-0.5234 -0.94739,-0.9003 -0.53654,-0.9255 0.0577,-1.94986 0.61596,-2.65633 0.59359,-0.52209 0.23707,-0.28117 1.10969,-0.65949 2.41987,-0.54118 3.18522,2.88103 0.76535,3.42221 v 0 c 0.59131,-0.3037 0.38514,-0.1206 0.68849,-0.45852 0.13592,-0.23816 0.27534,-0.77871 -0.058,-1.26861 -0.21415,-0.31474 -0.57755,-0.49611 -0.86633,-0.74417 -0.31188,-0.0167 -0.62691,-0.0972 -0.93565,-0.05 -0.66661,0.10203 -0.98801,0.74755 -0.9516,1.34137 0.0353,0.11817 0.0582,0.24077 0.10588,0.35453 0.2953,0.70489 1.17597,0.91714 1.83604,0.66167 0.1175,-0.0811 0.245,-0.14932 0.35252,-0.24323 0.32063,-0.28005 0.41451,-0.70473 0.29316,-1.10314 -0.0774,-0.0916 -0.085,-0.15803 -0.18485,-0.25258 -0.30367,-0.28746 -0.64856,-0.37422 -1.06384,-0.35603 -0.15399,0.0518 -0.31875,0.0786 -0.46196,0.15525 -0.32023,0.17147 -0.57177,0.50746 -0.51419,0.87938 0.15005,0.58963 0.67896,1.01286 1.31059,0.98255 0.22898,-0.011 0.44309,-0.11781 0.66464,-0.17672 0.11166,-0.0973 0.2386,-0.17941 0.33499,-0.29184 0.28085,-0.32757 0.0249,-0.48902 0.0832,-0.0434 0,2.41866 -3.42051,2.41866 -3.42051,0 z"
       inkscape:connector-curvature="0" />
    <path
       style="fill:#000000;stroke-width:0.26458332"
       id="path591"
       d="m 196.49778,170.57564 c -0.6692,0.78284 -1.27057,1.61731 -1.96193,2.38296 -1.12203,1.12981 -2.20693,2.29031 -3.24345,3.49912 -1.38116,1.68551 -2.53002,3.54152 -3.56673,5.45336 -1.08069,2.08751 -2.10204,4.20582 -3.14911,6.31078 -0.76377,1.54242 -1.3729,3.15451 -1.64251,4.85736 -0.0422,0.48133 -0.0656,0.96343 -0.10134,1.44545 -0.54122,2.34746 -3.86103,1.58206 -3.31982,-0.7654 v 0 c 0.26196,-0.43122 0.2364,-0.96859 0.42757,-1.4298 0.59026,-1.83126 1.51255,-3.51898 2.35359,-5.24366 1.06601,-2.14051 1.98498,-4.35066 3.10742,-6.46302 1.14183,-2.0189 2.37628,-3.98816 3.73974,-5.8656 0.96075,-1.3133 1.96512,-2.59189 3.02766,-3.82478 0.56324,-0.70183 1.13527,-1.41035 1.51147,-2.23506 1.32815,-1.99223 4.14559,-0.11394 2.81744,1.87829 z"
       inkscape:connector-curvature="0" />
    <path
       style="fill:#000000;stroke-width:0.26458332"
       id="path593"
       d="m 176.34053,169.97901 c 1.23197,0.0475 2.41805,0.31899 3.57253,0.73725 1.54323,0.6053 2.81952,1.66664 4.03714,2.7622 1.74399,1.68804 3.22187,3.62378 4.7452,5.50657 1.24102,1.59089 2.56006,3.11987 3.78314,4.72486 0.92027,1.20766 0.94878,1.28241 1.80824,2.53429 1.51176,2.23585 2.59638,4.71403 3.72232,7.15567 0.56087,1.07798 0.27119,0.58002 0.85534,1.50178 0.93385,1.8231 -1.6444,3.14377 -2.57825,1.32067 v 0 c -0.47524,-1.14214 -0.23169,-0.54807 -0.72916,-1.78282 -0.91707,-2.36113 -1.79119,-4.7553 -3.19301,-6.88626 -0.27306,-0.40468 -0.53706,-0.81562 -0.81918,-1.21404 -1.43648,-2.02863 -3.08077,-3.90052 -4.69217,-5.789 -1.51379,-1.69845 -3.01717,-3.41968 -4.76548,-4.88552 -0.98724,-0.78996 -2.00293,-1.57637 -3.19812,-2.02668 -0.68134,-0.22644 -1.45653,-0.45562 -2.17092,-0.26042 -2.40314,0.26702 -2.78075,-3.13153 -0.37762,-3.39855 z"
       inkscape:connector-curvature="0" />
    <path
       style="fill:#000000;stroke-width:0.26458332"
       id="path595"
       d="m 216.94877,172.32754 c -0.35245,1.69508 -0.31324,3.43959 -0.22523,5.15874 0.10626,2.18693 0.43463,4.35379 0.79211,6.51123 0.11259,0.77477 0.28108,1.53911 0.46748,2.29887 0.0933,0.3805 0.16344,0.72203 0.3714,1.05291 0.0179,-0.0109 0.0357,-0.0218 0.0536,-0.0327 0.90646,2.26013 -2.28983,3.54205 -3.19629,1.28193 v 0 c -0.0257,-0.11958 -0.0515,-0.23915 -0.0772,-0.35873 -0.15816,-1.28434 -0.21055,-2.57921 -0.36298,-3.86461 -0.24663,-2.22954 -0.48363,-4.46015 -0.65632,-6.6969 -0.0805,-0.84867 -0.14275,-1.4841 -0.2155,-2.32997 -0.0727,-0.8454 -0.10809,-1.70216 -0.2374,-2.54188 -0.0248,-0.16094 -0.0642,-0.31927 -0.0963,-0.4789 0,-2.39191 3.38267,-2.39191 3.38267,0 z"
       inkscape:connector-curvature="0" />
    <path
       style="fill:#000000;stroke-width:0.26458332"
       id="path597"
       d="m 208.21067,179.74194 c 0.83434,-0.30198 1.6728,-0.5854 2.54974,-0.73833 0.72687,-0.12676 1.13922,-0.14436 1.87987,-0.20674 2.25846,-0.15591 4.52252,0.0243 6.7604,0.32813 0.33898,0.0397 0.67797,0.0794 1.01696,0.11913 1.92651,0.3178 1.47707,3.04229 -0.44944,2.72449 v 0 c -0.31297,-0.0678 -0.62595,-0.13568 -0.93893,-0.20352 -2.00392,-0.29298 -4.03699,-0.44387 -6.05151,-0.14404 -1.0922,0.17725 -2.24668,0.34712 -3.11784,1.08952 -2.09915,1.16619 -3.74839,-1.80245 -1.64925,-2.96864 z"
       inkscape:connector-curvature="0" />
    <path
       style="fill:#000000;stroke-width:0.26458332"
       id="path599"
       d="m 226.29783,176.48055 c 0.62284,-0.16714 0.99793,-0.76024 1.31444,-1.27847 0.55605,-1.1674 0.63598,-2.48045 0.71175,-3.75129 0.0555,-1.22886 0.0134,-2.48152 -0.32839,-3.66984 -0.0341,-0.0553 -0.041,-0.18753 -0.10234,-0.16593 -0.0659,0.0232 -0.0887,0.20654 -0.0189,0.20864 1.09107,0.0329 2.18149,-0.13351 3.27281,-0.11065 0.0614,0.001 -0.0367,0.11764 -0.0467,0.17824 -0.0418,0.25347 -0.0317,0.4612 -0.0355,0.72463 0.11691,1.88068 0.32076,3.75642 0.53708,5.62809 0.32039,2.6976 0.67594,5.39084 1.01169,8.08661 0.26558,2.15973 0.53613,4.32122 0.98724,6.45128 0.0563,0.20074 0.11252,0.40147 0.16878,0.6022 0.30936,2.14265 -2.72081,2.58015 -3.03017,0.4375 v 0 c -0.004,-0.21651 -0.008,-0.43302 -0.0119,-0.64953 -0.1366,-2.18674 -0.37734,-4.36524 -0.56947,-6.54749 -0.30776,-2.67865 -0.59647,-5.36066 -1.08062,-8.01513 -0.33452,-1.91859 -0.75183,-3.81882 -1.13495,-5.72779 -0.0212,-0.13794 -0.24009,-1.68641 -0.14346,-1.71713 3.0019,-0.95429 3.42721,-1.5634 3.40137,0.18621 0.0173,1.41962 0.11864,2.8396 0.021,4.25955 -0.0888,1.74289 -0.1908,3.5148 -0.9371,5.1242 -0.12499,0.2262 -0.2382,0.45931 -0.37498,0.67858 -0.56169,0.90047 -1.3327,1.61834 -2.22896,2.17855 -2.19983,0.9777 -3.58251,-2.13333 -1.38268,-3.11103 z"
       inkscape:connector-curvature="0" />
    <path
       style="fill:#000000;stroke-width:0.26458332"
       id="path603"
       d="m 25.530664,107.55364 c -0.60922,0.17074 -1.081977,0.58417 -1.496833,1.04288 -0.607484,0.69887 -1.06921,1.50929 -1.539666,2.30291 -0.61062,1.06469 -1.137158,2.17245 -1.656915,3.28322 -0.528049,1.13648 -0.961792,2.31262 -1.379581,3.49299 -0.459881,1.3192 -0.973487,2.61858 -1.431036,3.93863 -0.51647,1.41513 -1.004205,2.84328 -1.372726,4.30464 -0.32303,1.40276 -0.689191,2.79344 -1.105435,4.17121 -0.531767,1.59111 -1.076022,3.17677 -1.547595,4.78712 -0.480181,1.49992 -0.790331,3.04423 -1.109288,4.58422 -0.349946,1.86456 -0.627881,3.74043 -0.872254,5.62128 -0.164988,1.54464 -0.280039,3.09463 -0.464976,4.63711 -0.217523,2.14441 -0.640504,4.25948 -0.965747,6.38865 -0.246389,1.82731 -0.394435,3.66925 -0.4594,5.51195 -0.02288,1.19807 0.01189,2.39656 -0.0067,3.59525 0.02449,1.79768 0.07462,3.59408 0.165778,5.38959 0.141064,1.76208 0.136297,3.53155 0.253217,5.29452 0.09,1.35081 0.171182,2.70189 0.289339,4.05053 0.09932,1.01621 0.358943,2.00571 0.578017,3.00022 0.297832,1.15496 0.576301,2.31479 0.857466,3.47392 0.418564,1.74208 0.911655,3.46304 1.549554,5.13763 0.41442,1.03042 0.890418,2.03558 1.407956,3.01794 0.604663,1.1583 1.198144,2.32256 1.790296,3.48739 0.866069,1.70329 1.740042,3.40363 2.673278,5.07135 0.844798,1.59942 1.793817,3.13864 2.767204,4.66176 0.841242,1.40597 1.848316,2.6947 2.981927,3.87469 0.627898,0.70699 1.380921,1.25662 2.183648,1.74367 0.804563,0.4333 1.568016,0.93532 2.330945,1.43697 0.618286,0.37662 0.309485,0.20648 0.924208,0.51438 1.943846,1.05797 0.447643,3.80698 -1.496201,2.74901 v 0 c -0.69837,-0.40632 -0.344688,-0.2033 -1.061182,-0.60884 -0.822524,-0.46984 -1.677816,-0.87847 -2.484312,-1.3756 -1.000957,-0.69315 -1.831523,-1.56395 -2.593039,-2.51194 -1.139896,-1.38034 -2.290185,-2.75938 -3.214903,-4.29816 -0.975127,-1.58235 -1.900952,-3.1921 -2.761486,-4.84 -0.921773,-1.6714 -1.811148,-3.3609 -2.776078,-5.00833 -0.702012,-1.15165 -1.434508,-2.28582 -2.089304,-3.46533 -0.120596,-0.2465 -0.382299,-0.77377 -0.486398,-1.01903 -0.345158,-0.81317 -0.581185,-1.66963 -0.84383,-2.51105 -0.509617,-1.74793 -1.034253,-3.49168 -1.6053533,-5.22063 -0.42335,-1.19391 -0.8768196,-2.3837 -1.1324949,-3.62792 -0.2545599,-1.1422 -0.4966192,-2.2886 -0.5716678,-3.4601 -0.079653,-1.38379 -0.085726,-2.76875 -0.1339577,-4.15386 -0.030053,-1.7547 -0.026157,-3.51034 -0.1143558,-5.26368 -0.1035566,-1.82086 -0.1984955,-3.64232 -0.359682,-5.45927 -0.092797,-1.32023 -0.2342626,-2.65487 -0.036869,-3.97213 0.2953703,-1.86804 0.6871616,-3.71954 0.9358746,-5.59534 0.3064002,-2.0853 0.5174486,-4.18228 0.5815201,-6.29004 0.1162634,-1.59725 0.3282013,-3.18301 0.6145797,-4.75898 0.3092619,-1.91511 0.5692259,-3.83683 0.8337191,-5.75851 0.29476,-1.65563 0.580663,-3.31956 1.131577,-4.91413 0.518387,-1.56401 1.062414,-3.12236 1.500568,-4.71087 0.358109,-1.38709 0.685585,-2.78177 1.065781,-4.16296 0.438757,-1.50199 0.945881,-2.98223 1.450679,-4.46311 0.443551,-1.34722 0.905695,-2.68821 1.338275,-4.03908 0.462619,-1.2544 0.95814,-2.49637 1.527795,-3.70664 0.538933,-1.19782 1.055188,-2.40724 1.684174,-3.56196 0.551289,-1.01763 1.137634,-2.01646 1.880038,-2.90982 0.302492,-0.3353 0.486866,-0.55907 0.827839,-0.85849 0.469428,-0.41222 1.017755,-0.72318 1.513839,-1.10018 2.163988,-1.08199 3.694158,1.97835 1.530171,3.06035 z"
       inkscape:connector-curvature="0" />
    <path
       id="path605"
       transform="matrix(0.26458333,0,0,0.26458333,0,87)"
       style="fill:#000000;stroke-width:0.99999994"
       d="m 814.52734,50.423828 c -4.47685,0.02549 -8.60609,4.917737 -5.2832,10.234375 2.52548,3.045695 4.44923,6.558191 6.56641,9.894531 2.99429,4.537815 6.68992,8.521315 10.23047,12.623047 3.51643,4.021644 7.3191,7.777767 10.74218,11.88086 3.37849,4.051918 5.94074,8.643629 8.39649,13.285159 2.59374,5.36379 4.75555,10.9196 7.20117,16.34961 2.3111,5.15229 5.17011,10.02631 7.92187,14.94921 2.39687,4.75046 4.5059,9.64406 6.60743,14.53126 2.1479,5.4865 4.39946,10.92691 6.63672,16.37695 2.41949,5.53115 4.67086,11.13034 6.70507,16.81445 2.14727,6.03137 3.94738,12.16797 5.73438,18.3125 1.83893,5.84221 3.16537,11.80947 4.48242,17.7832 1.2017,5.36028 1.8788,10.79413 2.30078,16.26368 0.34507,6.15753 0.37607,12.32491 0.34961,18.49023 -0.0352,5.79965 -0.10114,11.59966 -0.20508,17.39844 -0.0444,5.71687 0.42098,11.42395 0.68555,17.13281 0.26192,6.34333 0.18033,12.69375 0.24609,19.04102 0.0835,6.46344 -0.0774,12.92549 0.0371,19.38867 -0.0275,6.91884 -0.47699,13.82952 -0.96875,20.72851 -0.52932,7.44318 -1.36937,14.85522 -2.27929,22.25977 -0.90709,7.20684 -2.2134,14.35374 -3.5625,21.48828 -1.37307,7.13363 -2.80966,14.25428 -4.23829,21.37695 -0.0218,0.10651 -0.0483,0.2119 -0.0703,0.31836 1.15499,-2.1036 2.40627,-4.15988 3.55664,-6.25976 0.0229,-0.12904 0.0242,-0.18905 0.0547,-0.34375 0.0151,-0.0665 0.0198,0.13389 0.0273,0.20117 -0.0262,0.0481 -0.0557,0.0946 -0.082,0.14258 -0.45744,2.57674 0.59892,0.27556 3.88281,-0.79492 0.0759,-0.21615 0.17793,-0.3885 0.38282,-0.38282 0.39975,0.0111 0.82484,0.0135 1.24609,0.0176 0.37659,-0.0512 0.76669,-0.0887 1.18555,-0.0937 0.1345,-10e-4 0.23062,0.0572 0.31054,0.13867 0.55247,0.0325 1.08891,0.10921 1.60938,0.21875 0.83688,-4.19545 1.66653,-8.39151 2.46875,-12.59375 1.37802,-7.36766 2.69636,-14.75105 3.56641,-22.19922 0.87503,-7.57084 1.75992,-15.14126 2.48242,-22.72851 0.52785,-7.15555 1.0054,-14.31828 1.23633,-21.49024 0.11905,-6.47331 -0.0342,-12.94424 0.0293,-19.41796 0.0333,-6.44206 -0.0965,-12.88255 -0.14258,-19.32422 -0.0586,-5.60584 -0.28195,-11.20724 -0.33789,-16.8125 -0.0922,-5.80834 -0.13785,-11.6168 -0.17187,-17.42578 -0.048,-6.3941 -0.002,-12.79228 -0.28711,-19.18165 -0.31971,-6.0868 -0.99145,-12.13761 -2.4375,-18.07226 -1.48671,-6.13769 -3.12146,-12.23255 -5.01172,-18.25977 -1.82997,-6.35353 -3.53161,-12.74485 -5.76758,-18.97461 -2.05973,-5.86136 -4.28214,-11.65295 -6.75195,-17.35546 -2.23393,-5.48228 -4.52465,-10.94224 -6.62891,-16.47657 -2.15947,-5.31159 -4.31399,-10.63684 -6.94726,-15.73633 -2.5705,-4.6804 -5.49623,-9.16797 -7.73828,-14.02539 -2.54487,-5.59819 -4.99032,-11.23803 -7.4336,-16.88085 -2.73044,-5.397364 -5.72158,-10.66198 -9.58203,-15.349614 -3.43646,-4.209033 -7.2812,-8.040834 -10.83789,-12.144532 -3.16675,-3.65794 -6.45258,-7.228051 -8.99609,-11.371093 -2.08861,-3.359622 -4.00374,-6.865666 -5.4668,-10.544922 l -0.002,-0.002 c -1.51042,-2.416652 -3.61741,-3.410026 -5.65235,-3.398438 z" />
    <path
       style="fill:#000000;stroke-width:0.26458332"
       id="path607"
       d="m 254.04837,131.34058 c -0.66569,0.86439 -1.15332,1.85744 -1.62247,2.83866 -0.52776,1.08164 -0.9313,2.21383 -1.29218,3.35988 -0.49185,1.55762 -0.95007,3.12285 -1.34608,4.70772 -0.50035,1.78029 -0.87436,3.59223 -1.19821,5.41196 -0.35883,1.98133 -0.53364,3.98567 -0.70741,5.9892 -0.16357,2.14931 -0.29726,4.30125 -0.39209,6.45472 -0.0902,2.23082 -0.0886,4.46372 -0.11551,6.69579 -0.0375,2.35495 0.0643,4.70648 0.25925,7.05258 0.27479,2.4254 0.7086,4.82817 1.22422,7.21277 0.53967,2.33818 1.15341,4.6568 1.79743,6.968 0.5807,1.98552 1.2403,3.94574 2.01553,5.86363 0.55807,1.3199 1.20425,2.59911 1.84127,3.88184 0.53579,1.06629 0.9791,2.17786 1.56763,3.21676 0.061,0.0646 0.10138,0.15884 0.18309,0.19374 0.033,0.0141 0.0539,-0.0833 0.0251,-0.10482 -0.31044,-0.23188 -0.65812,-0.4092 -0.98718,-0.61379 2.4577,0.25738 2.09371,3.73308 -0.36398,3.4757 v 0 c -1.27801,-0.67049 -1.22878,-0.42485 -1.69531,-1.55054 -0.48095,-1.10567 -0.95496,-2.21366 -1.47128,-3.30358 -0.63904,-1.38458 -1.2641,-2.77625 -1.74698,-4.22511 -0.67332,-2.03523 -1.31722,-4.07999 -1.87898,-6.14936 -0.63056,-2.3649 -1.24541,-4.73476 -1.78457,-7.12242 -0.51827,-2.48841 -0.98399,-4.98998 -1.2734,-7.51668 -0.22818,-2.42209 -0.36459,-4.85257 -0.33735,-7.28651 -0.0138,-2.2658 0.003,-4.53211 0.0713,-6.79703 0.0827,-2.19123 0.23188,-4.37837 0.37086,-6.56654 0.16113,-2.08165 0.31316,-4.16772 0.64388,-6.23091 0.30001,-1.88878 0.73783,-3.7483 1.20409,-5.60243 0.37148,-1.64483 0.7695,-3.28325 1.21686,-4.90929 0.37122,-1.32188 0.77053,-2.64006 1.41498,-3.8597 0.51563,-1.02144 1.04519,-2.04615 1.40887,-3.13348 1.16619,-2.09915 4.13483,-0.4499 2.96864,1.64924 z"
       inkscape:connector-curvature="0" />
    <path
       style="fill:#000000;stroke-width:0.26458332"
       id="path609"
       d="m 262.32729,151.50106 c 0.0632,1.26626 0.0917,2.53075 0.0755,3.79862 -0.0916,1.31011 -0.14841,2.62134 -0.18808,3.93389 -0.0119,0.98873 -0.0153,1.97746 5.3e-4,2.96615 -0.0191,0.75006 -0.072,1.49817 -0.0801,2.24849 -0.007,0.53849 0.0421,0.0816 0.0257,0.016 -0.0327,-0.13067 -0.0757,-0.26183 -0.14559,-0.37699 -0.1934,-0.31861 -0.29236,-0.33092 -0.58749,-0.50147 -0.24723,-0.0745 -0.26521,-0.0399 0.006,-0.0795 0.10661,-0.0155 0.17543,-0.0346 0.29192,-0.0606 0.66187,-0.14338 1.32856,-0.2113 2.00452,-0.19199 0.96651,0.0818 1.80254,0.52782 2.61367,1.02286 0.78597,0.51379 1.51765,1.10631 2.22139,1.7266 0.56822,0.49505 1.09924,1.02396 1.59105,1.5941 0.5212,0.63752 0.83727,1.39043 1.11281,2.15744 0.29411,0.72504 0.39301,1.49446 0.43159,2.26922 0.0185,1.0545 -0.32401,2.05727 -0.7447,3.00927 -0.51276,1.11776 -1.29125,2.03296 -2.2093,2.83545 -0.92742,0.80987 -2.04883,1.32537 -3.15814,1.83142 -0.92086,0.40595 -1.88197,0.70457 -2.86354,0.92086 -0.50588,0.0906 -0.23846,0.0538 -0.80321,0.10317 -2.39577,0.0146 -2.41639,-3.37355 -0.0206,-3.38813 v 0 c 0.0993,0.0873 0.0227,0.0367 0.27431,0.0245 0.73748,-0.0676 1.44436,-0.26001 2.13066,-0.53943 0.82226,-0.35645 1.65263,-0.72467 2.34303,-1.30893 0.54647,-0.50026 1.0197,-1.04563 1.35006,-1.71718 0.19185,-0.50249 0.37912,-1.01927 0.38656,-1.56375 -0.0362,-0.44581 -0.0786,-0.8948 -0.23286,-1.31831 -0.15386,-0.39899 -0.29088,-0.80439 -0.53393,-1.16068 -0.38547,-0.46276 -0.79759,-0.90251 -1.22629,-1.32558 -0.52869,-0.48572 -1.07934,-0.96006 -1.69365,-1.33464 -0.34834,-0.19187 -0.70699,-0.39186 -1.09871,-0.4773 -0.36401,-0.0326 -0.73982,0.0598 -1.09404,0.13034 -0.73213,0.18103 -1.46856,0.31988 -2.21432,0.0989 -0.20826,-0.0961 -0.43592,-0.15816 -0.62477,-0.28833 -0.77143,-0.53174 -1.00417,-1.4392 -0.88497,-2.31951 0.075,-0.6825 0.17195,-1.3628 0.22849,-2.04708 0.0232,-1.0316 0.0312,-2.06409 0.1012,-3.09395 0.0742,-1.27428 0.2296,-2.5422 0.27723,-3.81814 0.002,-1.01456 -0.009,-2.08199 -0.39736,-3.03467 -0.52404,-2.35821 2.81096,-3.09932 3.33501,-0.74112 z"
       inkscape:connector-curvature="0" />
    <path
       style="fill:#000000;stroke-width:0.26458332"
       id="path611"
       d="m 261.0251,149.35236 c 0.78558,-0.38211 1.53595,-0.81747 2.36145,-1.11158 1.2525,-0.35797 2.14399,-0.11081 3.18581,0.62085 0.49194,0.45721 0.93001,0.96067 1.41941,1.42061 0.28197,0.27281 0.60775,0.49469 0.92985,0.71698 0.1964,0.10385 0.37479,0.21982 0.59148,0.25175 -0.28702,-0.0547 -0.28771,-0.0149 -0.0733,-0.13879 0.32615,-0.18836 0.23373,-0.13112 0.51223,-0.34529 0.3543,-0.33198 0.69612,-0.70261 0.81915,-1.18303 0.009,-0.0503 0.0177,-0.10059 0.0265,-0.15089 0.67445,-2.25743 3.86691,-1.30361 3.19246,0.95382 v 0 c -0.0502,0.14728 -0.10038,0.29456 -0.15057,0.44184 -0.0722,0.16142 -0.13457,0.32761 -0.21662,0.48426 -0.41013,0.78303 -1.04417,1.43509 -1.69156,2.02298 -0.95959,0.74007 -1.85052,1.37972 -3.13118,1.24667 -0.3139,-0.0714 -0.45006,-0.0911 -0.75975,-0.21192 -0.37632,-0.14684 -0.69541,-0.40261 -1.05643,-0.57879 -0.47202,-0.32906 -0.92946,-0.68226 -1.33538,-1.09162 -0.36957,-0.36728 -0.71564,-0.75443 -1.05489,-1.14968 -0.0236,-0.022 -0.0586,-0.0361 -0.0708,-0.066 -0.005,-0.0126 0.0367,0.002 0.0391,-0.0118 0.003,-0.0146 -0.024,-0.0187 -0.0314,-0.0315 -0.007,-0.0124 0.008,-0.0551 -0.008,-0.0623 -0.0317,-0.0135 -0.0686,-0.007 -0.10283,-0.01 -0.59176,0.16159 -1.13526,0.45753 -1.58582,0.87676 -2.0461,1.27881 -3.85462,-1.61481 -1.80852,-2.89362 z"
       inkscape:connector-curvature="0" />
    <path
       style="fill:#000000;stroke-width:0.26458332"
       id="path615"
       d="m 274.69877,128.83055 c 0.70081,0.43382 1.40174,0.87335 2.02277,1.41953 0.47932,0.42157 0.57237,0.5596 0.99658,1.0428 0.92601,1.04898 1.53302,2.31073 2.12101,3.56652 0.66989,1.3846 1.22634,2.81909 1.78575,4.25059 0.65066,1.54126 1.07275,3.15102 1.43534,4.77892 0.30353,1.62778 0.55427,3.26124 0.94421,4.87145 0.38558,1.42317 0.84754,2.82587 1.37549,4.2024 0.41101,1.03968 0.79553,2.08944 1.15819,3.14707 0.2839,0.91213 0.53229,1.83383 0.71483,2.77154 0.18044,1.0466 0.32128,2.09738 0.39539,3.15702 0.11639,1.10893 0.15978,2.2215 0.18584,3.33544 0.0209,1.30714 0.003,2.61475 -0.005,3.92203 0.0159,1.31792 0.006,2.63589 0.0114,3.95384 0.0708,1.213 0.13607,2.4251 0.17044,3.63972 0.0185,1.32969 -0.11432,2.6488 -0.28051,3.9654 -0.19238,1.19906 -0.38923,2.39975 -0.63376,3.58954 -0.16316,1.0396 -0.45722,2.04975 -0.79853,3.04297 -0.443,1.05728 -0.8889,2.11234 -1.29234,3.18555 -0.39078,1.02429 -0.76329,2.05536 -1.15588,3.07897 -0.40664,0.99115 -0.87029,1.96095 -1.35358,2.91714 -0.44556,0.78802 -0.78621,1.62566 -1.15062,2.45242 -0.37291,0.83244 -0.73433,1.66999 -1.09596,2.50739 -0.26456,0.6576 -0.48448,1.33168 -0.81804,1.95837 -0.20706,0.3702 -0.40338,0.86157 -0.82867,1.04034 -0.39082,0.16426 -0.82759,0.18422 -1.24138,0.27632 -2.48266,-0.30768 -2.04753,-3.81869 0.43514,-3.51101 v 0 c -0.37198,0.0973 -0.76438,0.13613 -1.11591,0.29187 -0.14668,0.065 -0.23156,0.2235 -0.33115,0.34929 -0.0361,0.0456 -0.10766,0.20458 -0.0714,0.15916 0.0987,-0.12347 0.13822,-0.28744 0.25112,-0.40219 0.12059,-0.0751 0.0243,-0.005 0.17261,-0.24574 0.24532,-0.39842 0.42683,-0.83302 0.62225,-1.25823 0.39939,-0.81141 0.70924,-1.66415 1.07381,-2.49151 0.39743,-0.86575 0.80285,-1.72705 1.28212,-2.55148 0.44373,-0.8756 0.85794,-1.7696 1.23483,-2.67569 0.42376,-0.99683 0.79913,-2.0127 1.18753,-3.02363 0.40834,-1.01677 0.79526,-2.04248 1.18788,-3.06537 0.28932,-0.88838 0.55298,-1.7828 0.72784,-2.7021 0.25114,-1.09667 0.51993,-2.19068 0.6767,-3.30617 0.14689,-1.15973 0.24799,-2.32153 0.2377,-3.49212 -0.0371,-1.24378 -0.11136,-2.48627 -0.1378,-3.73042 0.006,-1.31657 -0.003,-2.63317 0.014,-3.94971 -0.01,-1.27482 -0.0254,-2.54921 -0.0716,-3.82338 -0.046,-1.07277 -0.13173,-2.14305 -0.25172,-3.21015 -0.0678,-0.91718 -0.1814,-1.82716 -0.36933,-2.72848 -0.18846,-0.82918 -0.38912,-1.65732 -0.62886,-2.47312 -0.2911,-1.04797 -0.62704,-2.08318 -0.96854,-3.11564 -0.46217,-1.49858 -0.95768,-2.99035 -1.32035,-4.51675 -0.38335,-1.62243 -0.68834,-3.25866 -0.98165,-4.89953 -0.33857,-1.47433 -0.72131,-2.9378 -1.31557,-4.33381 -0.55081,-1.34954 -1.10312,-2.69887 -1.75545,-4.00364 -0.52314,-0.99518 -1.03423,-2.00855 -1.76827,-2.86971 -0.51829,-0.60857 -1.12553,-1.18713 -1.93677,-1.34926 -2.22369,-0.88947 -0.96579,-4.03424 1.25791,-3.14476 z"
       inkscape:connector-curvature="0" />
    <path
       style="fill:#000000;stroke-width:0.26458332"
       id="path713"
       d="m 236.00734,193.30331 c 0.12568,1.51641 0.0208,3.02876 -0.1388,4.53745 -0.1715,1.71514 -0.45062,3.41645 -0.73098,5.11636 -0.0798,0.60391 -0.19369,1.20242 -0.28946,1.8038 -0.0364,0.22858 -0.033,0.4667 -0.10664,0.68615 -0.0482,0.14378 -0.12622,0.2758 -0.18934,0.4137 -0.63348,-0.0701 -1.30341,0.0129 -1.90046,-0.21017 -0.16802,-0.0628 -0.10431,-1.7684 -0.10569,-1.99873 -0.002,-0.1146 -0.004,-0.2292 -0.006,-0.3438 -0.001,-1.47662 2.08724,-1.47807 2.08826,-10e-4 v 0 c -0.002,0.11193 -0.004,0.22387 -0.005,0.3358 0.001,0.31313 -0.003,0.39211 0.0149,0.70379 0.006,0.0985 0.012,0.19706 0.0234,0.29505 0.007,0.0577 0.0716,0.21324 0.0311,0.17152 -0.0535,-0.0552 -0.0506,-0.14514 -0.0759,-0.2177 -0.61104,-0.0283 -1.22209,-0.0566 -1.83314,-0.0849 -0.0307,0.0955 -0.0879,0.18625 -0.0922,0.28648 -0.002,0.0509 0.0651,-0.0801 0.0854,-0.12676 0.0472,-0.10833 0.0817,-0.22192 0.11587,-0.33503 0.16985,-0.56166 0.29756,-1.13697 0.41015,-1.7123 0.32884,-1.6416 0.63305,-3.29138 0.77267,-4.96168 0.12483,-1.32356 0.2221,-2.68405 -0.1676,-3.97582 -0.26996,-1.48481 1.82988,-1.8666 2.09985,-0.38179 z"
       inkscape:connector-curvature="0" />
    <path
       style="fill:#000000;stroke-width:0.26458332"
       id="path715"
       d="m 237.30333,194.25016 c -0.11404,1.39697 -0.33735,2.78003 -0.61552,4.15273 -0.4266,1.80066 -0.94834,3.57719 -1.47837,5.34965 -0.0612,0.21046 -0.12232,0.42093 -0.18349,0.63139 -0.0453,0.1642 -0.0889,0.32889 -0.13595,0.4926 -0.2115,0.7359 -0.5201,1.42323 -1.69422,1.03079 -0.36566,-0.12222 -0.41923,-0.64717 -0.62884,-0.97076 0.002,-0.17784 -0.008,-0.35618 0.006,-0.53351 0.0221,-0.28981 0.13065,-0.83075 0.18775,-1.10613 0.14634,-0.70568 0.32107,-1.40222 0.50533,-2.09878 0.43309,-1.60282 0.83726,-3.21396 1.20849,-4.83224 0.0728,-0.26965 0.23254,-1.98051 0.73568,-1.92491 1.8634,0.2059 1.68563,0.46199 1.66077,1.43482 -0.26213,1.66658 -0.73049,3.2946 -1.20916,4.90987 -0.50283,1.5414 -0.97125,3.09644 -1.53593,4.61682 -0.32036,0.58492 -0.0832,0.27934 -0.84231,0.7982 -1.50481,0.43177 -2.11543,-1.69636 -0.61061,-2.12813 v 0 c -0.47226,0.40402 -0.64896,0.40435 -0.37061,0.379 0.35439,-0.44294 0.54858,-0.95959 0.76054,-1.48349 0.35197,-0.86996 0.66647,-1.7548 0.93499,-2.65419 0.39095,-1.44708 0.78618,-2.93002 0.7752,-4.43982 -0.12579,-0.65268 0.0716,0.48487 1.58885,0.48083 0.22462,-5.3e-4 0.25647,-0.36903 0.3764,-0.55896 0.0286,-0.0452 -0.0786,0.0758 -0.1018,0.12406 -0.0915,0.19046 -0.27473,0.79324 -0.32425,0.94797 -0.49785,1.56425 -0.89525,3.15487 -1.23697,4.76048 -0.19512,0.93298 -0.41893,1.89349 -0.38994,2.8516 -0.18269,-0.19871 -0.28051,-0.56049 -0.54809,-0.59614 -0.43327,-0.0577 -0.85465,0.19735 -1.26236,0.35495 -0.0431,0.0167 -0.0555,0.15654 -0.0131,0.13807 0.099,-0.0431 0.32096,-0.56338 0.34595,-0.62108 0.0854,-0.19728 0.16075,-0.39878 0.24113,-0.59817 0.62756,-1.65133 1.11075,-3.35381 1.46322,-5.08516 0.21114,-1.2578 0.40216,-2.54625 0.25529,-3.82236 0,-1.51068 2.13643,-1.51068 2.13643,0 z"
       inkscape:connector-curvature="0" />
    <path
       style="fill:#000000;stroke-width:0.26458332"
       id="path717"
       d="m 236.9373,193.449 c -0.23316,1.37218 -0.48536,2.74016 -0.7018,4.11526 -0.29178,1.94881 -0.67359,3.88296 -1.14044,5.79714 -0.36291,1.44578 -0.82853,2.86979 -1.42108,4.23814 -0.69264,1.26555 -2.48239,0.28601 -1.78975,-0.97954 v 0 c 0.3223,-0.43656 0.52127,-0.90014 0.72095,-1.40541 0.29587,-0.74865 0.56438,-1.50947 0.77533,-2.28672 0.48425,-1.84528 0.86252,-3.71822 1.07082,-5.61613 0.16064,-1.27819 0.38815,-2.57209 0.32565,-3.86274 0,-1.52758 2.16032,-1.52758 2.16032,0 z"
       inkscape:connector-curvature="0" />
    <path
       style="fill:#000000;stroke-width:0.26458332"
       id="path719"
       d="m 236.15181,200.37181 c -0.0224,0.10742 -0.0493,0.21399 -0.0672,0.32226 -0.0869,0.52754 -0.12778,1.05958 -0.22946,1.58549 -0.0878,0.45422 -0.23444,1.05017 -0.34047,1.49704 -0.51861,1.97109 -1.17685,3.90062 -1.73324,5.86097 -0.37172,1.38343 -0.7297,2.77826 -0.92982,4.19865 -0.0118,0.094 -0.0236,0.18792 -0.0354,0.28188 -0.42469,1.45565 -2.48329,0.85505 -2.0586,-0.6006 v 0 c 0.0318,-0.0555 0.0636,-0.11098 0.0953,-0.16647 0.48241,-1.37982 0.8546,-2.79685 1.2892,-4.1919 0.57148,-1.90592 1.164,-3.81108 1.55075,-5.76524 0.1955,-1.07682 0.36379,-2.16174 0.31245,-3.26057 0.16864,-1.51777 2.31509,-1.27928 2.14645,0.23849 z"
       inkscape:connector-curvature="0" />
    <path
       style="fill:#000000;stroke-width:0.26458332"
       id="path721"
       d="m 235.38619,204.36321 c -0.27956,1.44887 -0.55959,2.8957 -0.89212,4.33424 -0.55867,2.38208 -1.30886,4.71065 -2.06021,7.03697 -0.35618,1.15495 -0.76378,2.29325 -1.12972,3.44501 -0.22108,0.69585 -0.40779,1.40079 -0.62635,2.09723 -0.48623,0.81852 -0.0894,0.39438 -1.61454,0.65536 -1.40952,-0.704 -0.4139,-2.69736 0.99561,-1.99335 v 0 c -1.27242,0.311 -1.27534,-0.11889 -1.21509,0.43229 0.0723,-0.0862 0.15989,-0.16172 0.21701,-0.2587 0.219,-0.37185 0.51687,-1.14012 0.65898,-1.49907 0.4379,-1.10604 0.84807,-2.2235 1.20715,-3.35782 0.71227,-2.27706 1.42241,-4.55994 1.85651,-6.9103 0.24809,-1.37926 0.48065,-2.76919 0.47565,-4.17523 0.13674,-1.50409 2.26385,-1.31072 2.12712,0.19337 z"
       inkscape:connector-curvature="0" />
    <path
       style="fill:#000000;stroke-width:0.26458332"
       id="path723"
       d="m 233.17588,214.45753 c -0.42269,0.94568 -0.64458,1.96491 -0.93473,2.95607 -0.29029,1.17629 -0.92713,2.19023 -1.5862,3.1877 -0.53637,0.68727 -1.00305,1.44776 -1.69469,1.9906 -0.17842,0.0611 -0.35684,0.12213 -0.53527,0.1832 -1.55048,0.20101 -1.83474,-1.99171 -0.28426,-2.19272 v 0 c -0.10738,0.0519 -0.21477,0.10372 -0.32216,0.15558 -0.011,0.0961 -0.0256,0.0998 0.13059,-0.0337 0.28611,-0.24445 0.53696,-0.56207 0.77695,-0.84985 0.0972,-0.1165 0.18835,-0.23786 0.28252,-0.3568 0.56162,-0.82481 1.09527,-1.67191 1.34323,-2.65145 0.31688,-1.02699 0.5753,-2.07063 0.82414,-3.11589 0.51423,-1.41414 2.51411,-0.68691 1.99988,0.72723 z"
       inkscape:connector-curvature="0" />
    <path
       style="fill:#ff0000;stroke-width:0.26458332"
       id="path729"
       d="m 9.7876361,231.1503 c 0.2391059,1.2493 0.5747109,2.47992 0.8750229,3.71616 0.338568,1.62952 0.739557,3.23956 1.244881,4.82533 0.523483,1.46882 1.210345,2.87113 1.894518,4.26985 0.688302,1.39747 1.376446,2.79458 2.134962,4.15552 0.511671,0.85975 1.12535,1.64378 1.787469,2.3905 0.614071,0.77619 1.234606,1.54732 1.840771,2.32974 0.43222,0.60922 1.03489,0.97575 1.690654,1.2979 1.115756,0.4917 2.17151,1.0918 3.219744,1.71159 1.520364,0.95291 3.114057,1.78214 4.737014,2.54448 1.98197,0.9159 4.037761,1.63606 6.138198,2.22257 2.142699,0.60886 4.351817,0.88611 6.561241,1.11297 2.401951,0.18909 4.810588,0.27033 7.216597,0.38919 2.556712,0.10953 5.106065,0.32812 7.65623,0.53276 2.82221,0.25324 5.642914,0.51962 8.470124,0.71122 3.219046,0.25363 6.446621,0.34895 9.674098,0.40759 3.576458,0.0644 7.152807,0.10495 10.728878,0.0113 3.790328,-0.16866 7.57746,-0.41294 11.360256,-0.70465 3.867736,-0.32388 7.739996,-0.58808 11.607906,-0.91017 3.84622,-0.3803 7.68499,-0.83145 11.52725,-1.24926 3.53636,-0.37593 7.06575,-0.81247 10.59846,-1.21993 2.91343,-0.31054 5.83786,-0.48441 8.76091,-0.67103 2.04906,-0.147 4.1001,-0.25958 6.1526,-0.34432 1.0722,-0.11131 2.26287,0.0254 3.32052,-0.16425 0.26999,-0.11794 -0.13152,-0.0317 -0.18026,0.003 -0.13797,0.0995 -0.22532,0.25491 -0.33959,0.38091 -0.006,0.006 -0.0184,0.0231 -0.0195,0.015 -0.0308,-0.22662 -0.0339,-0.45622 -0.0579,-0.68366 -0.31285,-1.81248 -0.5077,-3.63691 -0.66754,-5.46812 -0.20014,-2.27183 -0.28903,-4.55118 -0.42422,-6.82733 -0.0518,-0.87641 -0.0368,-0.653 -0.0909,-1.46174 -0.0218,-0.32569 0.002,-0.71838 -0.16151,-1.01495 -0.2912,-1.47148 1.78978,-1.8833 2.08098,-0.41183 v 0 c 0.0863,0.94952 -0.0554,1.89705 -0.0505,2.84877 -0.0339,2.23414 0.0317,4.47005 0.28803,6.6916 0.22665,1.78578 0.50043,3.56145 0.99754,5.2956 0.0992,0.42312 0.33538,1.19745 0.18136,1.62566 -0.28264,0.78583 -0.65107,1.02067 -1.42159,1.08623 -1.14143,-0.0151 -2.28202,-0.0862 -3.42398,-0.0826 -2.03467,-0.016 -4.06953,0.005 -6.10282,0.0868 -2.90228,0.11228 -5.80485,0.21231 -8.69758,0.49185 -3.5394,0.32172 -7.07142,0.72033 -10.60782,1.07305 -3.85282,0.41163 -7.7029,0.85009 -11.5594,1.22624 -3.87019,0.32478 -7.74269,0.61857 -11.614019,0.92872 -3.803137,0.29573 -7.608874,0.56842 -11.41961,0.74502 -3.594936,0.11295 -7.191327,0.10681 -10.78775,0.0839 -3.248813,-0.0438 -6.497772,-0.11493 -9.741641,-0.30987 -2.837711,-0.15122 -5.667147,-0.40771 -8.499684,-0.63189 -2.537936,-0.18403 -5.076486,-0.36045 -7.619222,-0.46505 -2.430105,-0.12502 -4.862975,-0.20575 -7.290331,-0.37964 -2.312721,-0.20365 -4.620006,-0.49184 -6.859789,-1.12945 -2.181288,-0.61533 -4.313277,-1.37607 -6.393381,-2.27831 -1.692648,-0.74353 -3.355373,-1.55445 -4.968266,-2.45942 -1.024215,-0.56393 -2.058792,-1.09962 -3.148613,-1.5283 -1.016486,-0.47091 -1.748658,-0.98358 -2.417311,-1.9031 -0.574164,-0.7551 -1.176471,-1.48775 -1.768628,-2.2287 -0.746326,-0.87133 -1.416001,-1.80241 -1.939685,-2.82669 -0.712066,-1.40674 -1.394308,-2.82751 -2.103908,-4.23548 -0.733293,-1.47831 -1.479327,-2.95905 -2.000319,-4.5289 -0.5045225,-1.62009 -0.8769098,-3.27224 -1.2908811,-4.91686 -0.3234598,-1.20146 -0.6501276,-2.41048 -1.1307593,-3.56021 -0.43545,-1.45149 1.6172804,-2.06731 2.0527303,-0.61582 z"
       inkscape:connector-curvature="0" />
    <path
       style="fill:#ff0000;stroke-width:0.26458332"
       id="path731"
       d="m 166.43877,235.80494 c -0.1276,1.02562 0.0265,2.05878 0.16025,3.07569 0.13763,1.17602 0.50442,2.30072 0.91484,3.40533 0.38101,0.99748 0.8985,1.93012 1.39036,2.87453 0.58772,1.03815 0.89797,2.19268 1.17876,3.34291 0.30448,1.50267 0.4546,3.03189 0.63302,4.55353 0.10419,0.74797 0.14561,1.51758 0.36118,2.24562 0.0807,0.33228 0.26805,0.62238 0.46199,0.89959 0.25601,0.35858 0.48323,0.75179 0.81353,1.04892 0.37677,0.40877 0.76493,0.80626 1.16576,1.19139 0.49806,0.56868 1.04283,1.06322 1.67855,1.47077 0.70409,0.43399 1.51581,0.62944 2.32079,0.77719 1.07687,0.15525 2.16688,0.16873 3.25137,0.23752 1.13283,0.0761 2.26799,0.10163 3.40299,0.11673 1.19943,0.0241 2.39935,-0.0173 3.59629,-0.0933 1.42318,-0.13209 2.84433,-0.26926 4.27209,-0.34294 1.44178,-0.0956 2.88465,-0.18248 4.32077,-0.34438 1.32304,-0.14622 2.64407,-0.30681 3.97129,-0.41105 1.31434,-0.0957 2.63301,-0.0648 3.94849,-0.12199 1.33354,-0.0408 2.66361,-0.13076 3.99373,-0.23038 1.26308,-0.0642 2.52608,-0.14312 3.78544,-0.25997 1.30424,-0.0951 2.58997,-0.32815 3.86856,-0.59304 1.54628,-0.317 3.05036,-0.79703 4.54516,-1.29708 1.6376,-0.53972 3.22032,-1.21252 4.76297,-1.97905 1.5515,-0.75848 3.01786,-1.67177 4.4456,-2.63936 1.23275,-0.88853 2.43801,-1.81251 3.55048,-2.84855 0.73327,-0.69477 1.34181,-1.48065 1.83479,-2.35897 0.42024,-0.99256 0.70975,-2.03791 0.96573,-3.08331 0.20259,-0.86543 0.42554,-1.72852 0.56457,-2.60721 -0.0366,-0.34575 -0.0317,0.0296 -0.0254,0.0921 -0.65253,-1.40225 1.33055,-2.32507 1.98308,-0.92281 v 0 c 0.1514,0.48718 0.22474,0.75068 0.0968,1.25699 -0.22318,0.89489 -0.51149,1.77222 -0.7269,2.66937 -0.32656,1.20695 -0.60922,2.43786 -1.12047,3.58299 -0.60773,1.05788 -1.36796,1.99163 -2.29626,2.78944 -1.20981,1.05401 -2.51087,1.98855 -3.81431,2.92293 -1.49429,1.0134 -3.03696,1.96177 -4.65841,2.75961 -1.61641,0.79878 -3.27243,1.50804 -4.98261,2.08404 -1.55836,0.5302 -3.11584,1.07578 -4.72914,1.41903 -1.34887,0.30028 -2.70558,0.58816 -4.08768,0.68109 -1.27522,0.1154 -2.55323,0.18947 -3.83211,0.24925 -1.34865,0.0817 -2.69607,0.17591 -4.04614,0.23303 -1.29375,0.0486 -2.58978,0.0333 -3.88191,0.12556 -1.3082,0.093 -2.61012,0.25199 -3.91617,0.36999 -1.47038,0.14607 -2.94415,0.23602 -4.41807,0.33744 -1.41489,0.0809 -2.82121,0.23728 -4.23174,0.36896 -1.25227,0.10687 -2.50868,0.19805 -3.76631,0.15795 -1.16714,-0.0174 -2.33431,-0.0474 -3.49908,-0.1281 -1.16048,-0.0734 -2.32648,-0.0724 -3.48103,-0.2175 -1.06814,-0.18737 -2.12181,-0.47117 -3.05825,-1.03784 -0.73989,-0.46816 -1.41109,-1.00788 -2.0097,-1.64955 -0.43375,-0.38995 -0.85801,-0.78894 -1.2574,-1.21434 -0.39087,-0.40989 -0.74183,-0.85378 -1.03925,-1.33685 -0.35939,-0.50834 -0.70218,-1.03719 -0.80268,-1.66467 -0.15227,-0.83308 -0.15126,-1.68148 -0.18387,-2.52544 -0.10072,-1.41971 -0.22968,-2.84985 -0.58129,-4.23236 -0.29923,-0.9976 -0.6051,-2.00327 -1.09334,-2.92781 -0.52968,-1.02495 -1.05975,-2.05051 -1.46416,-3.1336 -0.42654,-1.23976 -0.8403,-2.48923 -0.99152,-3.79854 -0.15969,-1.11049 -0.30474,-2.22051 -0.39245,-3.33951 0,-1.51914 2.14837,-1.51914 2.14837,0 z"
       inkscape:connector-curvature="0" />
    <path
       style="fill:#ff0000;stroke-width:0.26458332"
       id="path779"
       d="m 29.16065,271.95028 c 0.916437,-0.35437 1.85724,-0.73772 2.845003,-0.83652 0.220062,-0.022 0.442095,-0.0141 0.663141,-0.0212 1.266545,0.10108 2.290384,0.76928 2.945112,1.85522 0.134969,0.22387 0.233995,0.46753 0.350993,0.70129 0.535832,1.41286 0.642316,2.93488 0.877906,4.41573 0.142148,0.74911 0.296834,1.52598 0.65304,2.20909 0.13817,0.26497 0.267403,0.41906 0.443833,0.65528 0.06994,0.0711 0.132292,0.1506 0.20983,0.21334 0.03936,0.0318 0.09447,0.0952 0.136409,0.0668 0.03641,-0.0246 -0.02952,-0.0938 -0.06949,-0.11209 -0.117081,-0.0536 -0.248417,-0.0697 -0.375309,-0.0916 -0.04102,-0.007 -0.12405,0.0467 -0.12479,0.005 -0.0013,-0.0716 0.08116,-0.11788 0.121732,-0.17681 0.676735,-1.08698 1.059029,-2.33241 1.400818,-3.55815 0.143028,-0.48547 0.260334,-0.97744 0.36954,-1.47135 0.02125,-0.0961 0.05019,-0.19072 0.06397,-0.28813 0.0039,-0.0274 -0.03883,-0.0866 -0.01159,-0.0821 0.723493,0.12123 1.437347,0.29426 2.156018,0.44138 -0.134426,0.63924 -0.113702,1.26486 0.136893,1.86907 0.463487,0.8484 1.058852,1.24295 1.949212,1.55191 0.919049,0.20188 1.177187,0.0205 1.664907,-0.71476 0.532672,-0.97311 0.78501,-2.09707 0.815041,-3.20381 0.0065,-0.23954 -0.01397,-0.47906 -0.02096,-0.71859 -0.153898,-1.39453 -0.531829,-2.22114 -1.524993,-3.19432 -0.333523,-0.23164 -0.688564,-0.5463 -1.126532,-0.52298 -0.323204,0.0172 -0.627766,0.29259 -0.862716,0.47367 -0.605417,0.64929 -1.137833,1.51501 -1.01513,2.44411 0.01185,0.0897 0.05766,0.1716 0.08649,0.2574 0.187987,1.41407 -1.811819,1.67993 -1.999805,0.26585 v 0 c -0.01281,-0.22736 -0.04834,-0.45457 -0.03841,-0.68207 0.04905,-1.12349 0.538699,-2.26016 1.217509,-3.14468 0.190275,-0.24795 0.421214,-0.46184 0.631823,-0.69276 0.615733,-0.42935 0.834331,-0.683 1.595273,-0.8179 1.125429,-0.19953 2.081527,0.37608 2.88962,1.08488 0.178705,0.19131 0.370137,0.37148 0.536118,0.57393 0.917445,1.119 1.347308,2.48741 1.447599,3.91654 0.0043,0.3035 0.02371,0.60715 0.01304,0.91049 -0.05045,1.43382 -0.369122,2.88378 -1.043643,4.15325 -0.396126,0.56447 -0.497287,0.82694 -1.089681,1.20814 -0.878282,0.56515 -1.896409,0.52165 -2.860241,0.24951 -0.215414,-0.0832 -0.436912,-0.15211 -0.646237,-0.24962 -1.079879,-0.50307 -1.926212,-1.36095 -2.482686,-2.40598 -0.0798,-0.20467 -0.173945,-0.40432 -0.239385,-0.61402 -0.205369,-0.65813 -0.186488,-1.34458 -0.239138,-2.02242 0.719561,0.0693 1.447353,0.0792 2.158683,0.20795 0.06163,0.0112 -0.05606,0.11203 -0.08541,0.16736 -0.269337,0.50768 -0.427857,1.05967 -0.619175,1.60013 -0.455417,1.41351 -0.898525,2.84483 -1.572085,4.17242 -0.306851,0.43323 -0.517732,0.86517 -1.07428,1.05441 -0.964851,0.32806 -1.648941,-0.27501 -2.15192,-0.99397 -0.262329,-0.41709 -0.385429,-0.58134 -0.590166,-1.04593 -0.371171,-0.84226 -0.557453,-1.75723 -0.705916,-2.66011 -0.191543,-1.28863 -0.295193,-2.61015 -0.738918,-3.8435 -0.332499,-0.67965 -0.750321,-1.30961 -1.556933,-1.41939 -0.849704,-0.0428 -1.709166,0.21836 -2.418926,0.68568 -1.290606,0.77436 -2.385719,-1.05083 -1.095113,-1.82519 z"
       inkscape:connector-curvature="0" />
    <path
       style="fill:#ff0000;stroke-width:0.26458332"
       id="path781"
       d="m 48.650355,276.57758 c 0.459158,0.79137 1.062247,1.47984 1.695215,2.13447 0.429416,0.40424 0.950057,0.87188 1.581345,0.82542 0.406609,-0.20531 0.653463,-0.66274 0.876332,-1.04037 0.62742,-1.19175 0.876451,-2.52114 1.063559,-3.84112 0.06574,-0.85476 0.198215,-1.7259 0.08611,-2.58308 -0.04745,-0.36279 -0.02178,-0.36294 -0.106755,-0.18254 0.649418,0.10354 1.308553,0.15814 1.948252,0.31061 0.04852,0.0116 -0.0299,0.0954 -0.03945,0.14436 -0.02577,0.13216 -0.04935,0.26488 -0.06643,0.39844 -0.07522,0.58811 -0.06583,1.14548 -0.02058,1.73502 0.197516,1.21119 0.58198,2.24936 1.383651,3.18741 0.51048,0.53481 1.184966,0.83682 1.924103,0.83487 0.739384,-0.11793 1.304772,-0.60988 1.802858,-1.13567 0.715843,-0.74247 1.056595,-1.68722 1.348727,-2.65278 0.240681,-0.80044 0.320791,-1.63112 0.461383,-2.45028 0.711745,0.0943 1.452806,0.0598 2.135237,0.28283 0.133784,0.0437 0.01828,0.28102 0.02035,0.42175 0.0086,0.58526 -0.02312,1.1552 0.02593,1.74057 0.108463,0.86862 0.349306,1.44139 0.910796,2.09892 0.08933,0.12133 0.831993,0.69356 0.968661,0.51212 -0.01304,-0.0546 -0.01923,-0.0366 0.03127,-0.0907 0.239038,-0.25591 0.404159,-0.52946 0.577506,-0.83564 0.408932,-0.84517 0.476851,-1.77603 0.460489,-2.69943 -0.121676,-0.97764 -0.257535,-2.02787 -0.820417,-2.8672 -0.07348,-0.10957 -0.168775,-0.20282 -0.253162,-0.30424 -0.06843,-0.0381 -0.12982,-0.0934 -0.205308,-0.11435 -0.119346,-0.0331 -0.229923,0.1371 -0.307144,0.19075 -0.60637,0.42126 0.0041,-0.0652 -0.662985,0.49529 -0.254657,0.27936 -0.946997,1.11084 -0.771031,1.53083 -0.102129,1.49653 -2.218544,1.35211 -2.116418,-0.14443 v 0 c 0.0235,-0.15831 0.03319,-0.31929 0.07052,-0.47492 0.229465,-0.95682 0.882713,-1.73999 1.566479,-2.41297 0.374684,-0.31023 0.762246,-0.67131 1.213162,-0.87461 0.793393,-0.35771 1.603086,-0.3482 2.328098,0.1637 0.194807,0.13754 0.338989,0.3355 0.508484,0.50325 0.122036,0.19328 0.258135,0.37836 0.366106,0.57984 0.603957,1.12698 0.847326,2.41838 1.015715,3.67094 0.05083,1.28175 -0.04209,2.56594 -0.618406,3.73672 -0.585546,1.08131 -1.161071,1.92092 -2.482815,2.06198 -0.18056,-0.0212 -0.363789,-0.0262 -0.541676,-0.0637 -0.782725,-0.16515 -1.415627,-0.71668 -1.930853,-1.29476 -0.261093,-0.34708 -0.406664,-0.51459 -0.616378,-0.9084 -0.370928,-0.69654 -0.565074,-1.47761 -0.67677,-2.25331 -0.05885,-0.49172 -0.09063,-0.97934 -0.129051,-1.47245 -0.0077,-0.0993 -0.01791,-0.19853 -0.03138,-0.29725 -0.0049,-0.0359 -0.05969,-0.10338 -0.0236,-0.10598 0.68512,-0.0493 1.373515,-0.027 2.060273,-0.0405 -0.127405,0.007 -0.05383,-0.0109 -0.135753,0.23813 -0.220109,0.66914 -0.331774,1.36916 -0.520742,2.04683 -0.384019,1.26282 -0.885886,2.47312 -1.798333,3.45596 -0.951161,0.979 -1.920804,1.71471 -3.340703,1.7785 -0.21802,-0.0175 -0.438195,-0.0173 -0.654053,-0.0526 -1.069062,-0.17477 -1.998885,-0.78277 -2.695321,-1.59191 -0.144042,-0.19406 -0.301143,-0.37907 -0.432131,-0.58217 -0.70305,-1.09009 -1.08694,-2.37068 -1.307089,-3.63666 -0.09229,-0.88594 -0.152873,-1.78858 -0.05931,-2.67877 0.02069,-0.19689 -0.09497,-0.52622 0.09361,-0.58648 0.67613,-0.21606 1.417262,-0.0819 2.125893,-0.12278 0.125812,1.21163 -0.189965,2.43095 -0.259723,3.63861 -0.206642,1.56109 -0.448826,3.13654 -1.145423,4.56728 -0.662424,1.21154 -1.286211,2.05425 -2.771505,2.14265 -0.180454,-0.0226 -0.363826,-0.0283 -0.541362,-0.0677 -0.910524,-0.20221 -1.660173,-0.8111 -2.305044,-1.45127 -0.718405,-0.74532 -1.366298,-1.54805 -2.042441,-2.3307 -0.838835,-1.25826 0.940602,-2.44455 1.779437,-1.18629 z"
       inkscape:connector-curvature="0" />
    <path
       style="fill:#ff0000;stroke-width:0.26458332"
       id="path783"
       d="m 69.206715,273.05825 c 0.788424,0.0694 1.535213,-0.22182 2.225186,-0.57224 0.906782,-0.5006 1.767226,-1.08487 2.56156,-1.74908 0.668542,-0.57766 1.117029,-1.3038 1.432484,-2.11896 0.06531,-0.22245 0.118813,-0.33255 0.11975,-0.55375 2.59e-4,-0.0611 -0.02032,-0.21232 -0.06536,-0.17111 -0.04045,0.037 0.006,0.15956 0.01355,0.18839 0.02656,0.0354 0.0647,0.0645 0.07968,0.10615 0.02365,0.0657 -0.136641,0.0298 -0.205849,0.0393 -0.09234,0.0127 -0.184761,0.0266 -0.275452,0.0481 -0.272296,0.0646 -0.429845,0.1349 -0.698145,0.23586 -0.641075,0.31063 -1.301134,0.70604 -1.729002,1.28937 -0.501076,0.78739 -0.54555,1.75524 -0.625928,2.6593 -0.04722,1.25487 0.0062,2.54098 0.397156,3.74529 0.06825,0.21025 0.159935,0.41215 0.239903,0.61822 0.57636,1.09455 1.160655,1.5616 2.31467,1.94063 0.744355,0.1741 1.447435,0.0783 2.031426,-0.42485 0.307078,-0.3625 0.516898,-0.81656 0.448244,-1.29661 -0.01553,-0.0463 -0.02405,-0.0956 -0.04663,-0.13888 -0.04186,-0.0803 -0.486018,-0.25312 -0.5559,-0.28524 -0.591524,-0.21081 -1.152681,-0.3374 -1.754632,-0.11338 -0.81262,0.37206 -1.445887,0.99455 -1.933877,1.73117 0.09876,-0.34634 -0.17998,0.3574 -0.08213,0.31243 0.04436,-0.0204 0.04969,-0.0841 0.07454,-0.12608 -0.09389,1.53353 -2.262627,1.40075 -2.16874,-0.13278 v 0 c 0.109294,-0.54932 0.195451,-0.82371 0.556117,-1.27012 0.814655,-0.99689 1.752381,-1.90164 2.939357,-2.44054 0.215548,-0.0645 0.425778,-0.1507 0.646647,-0.19364 0.85739,-0.16671 1.749446,0.0698 2.5575,0.33665 1.099463,0.4733 1.731078,1.03138 1.854943,2.28641 -0.0042,0.17202 0.0057,0.34498 -0.0127,0.51606 -0.103216,0.96003 -0.62671,1.79587 -1.328917,2.43523 -0.186706,0.12851 -0.361892,0.27562 -0.56012,0.38553 -1.026803,0.5693 -2.221908,0.56982 -3.323469,0.25219 -0.228325,-0.0866 -0.463264,-0.15746 -0.684977,-0.25982 -1.260649,-0.58203 -2.172509,-1.60458 -2.720583,-2.86859 -0.09618,-0.27108 -0.207127,-0.53736 -0.288544,-0.81322 -0.411435,-1.39405 -0.455562,-2.86933 -0.472416,-4.31107 0.04962,-1.3446 0.0935,-2.7166 0.920472,-3.84666 0.127002,-0.14627 0.244454,-0.30141 0.381005,-0.43881 0.618998,-0.62282 1.4185,-1.05175 2.199846,-1.42863 0.830173,-0.32717 1.83183,-0.72267 2.731027,-0.3967 0.211299,0.0766 0.394763,0.215 0.592143,0.32249 0.126775,0.14959 0.278468,0.28122 0.380328,0.44877 0.454895,0.74826 0.226467,1.64417 -0.07429,2.39595 -0.479398,1.08734 -1.114869,2.07176 -2.039072,2.83933 -0.909802,0.76839 -1.891567,1.44259 -2.932306,2.023 -0.984628,0.49123 -2.014074,0.84947 -3.118506,0.94333 -1.519129,0 -1.519129,-2.14838 0,-2.14838 z"
       inkscape:connector-curvature="0" />
    <path
       style="fill:#ff0000;stroke-width:0.26458332"
       id="path785"
       d="m 84.230169,274.76142 c -0.652034,-0.17901 -1.391854,-0.37726 -2.036151,-0.0822 -0.65705,0.34161 -0.939451,1.01936 -1.159267,1.68705 -0.09043,0.37482 -0.340304,1.53349 0.09462,1.78592 0.43166,0.19178 0.860103,0.1238 1.305203,0.019 0.87856,-0.34445 1.462212,-1.0793 1.926667,-1.86886 0.457351,-0.82567 0.698301,-1.72082 0.643567,-2.66295 -0.01294,-0.10744 -0.01802,-0.21612 -0.03883,-0.32232 -0.163248,-0.83278 -0.33623,0.51633 0.422968,0.32372 0.588278,-0.14926 0.993847,-0.69689 1.490771,-1.04533 0.0311,0.79958 0.365215,1.56608 0.686372,2.28549 0.390861,0.7585 0.872791,1.51464 1.576551,2.02338 0.119925,0.0867 0.252659,0.15412 0.378987,0.23118 0.799118,0.39375 1.685433,0.47317 2.560944,0.5205 1.382866,0.1228 1.209194,2.07847 -0.173675,1.95567 v 0 c -1.180031,-0.14106 -2.390936,-0.24395 -3.452119,-0.82889 -0.198208,-0.13274 -0.405524,-0.25279 -0.594627,-0.3982 -0.908879,-0.69888 -1.54195,-1.67587 -2.058149,-2.68341 -0.452268,-0.9386 -0.842891,-1.90366 -1.124006,-2.90829 0.490239,-0.42293 0.858467,-1.05818 1.470713,-1.2688 0.260914,-0.0897 0.439637,0.34002 0.618564,0.55007 0.228026,0.26768 0.254143,1.23036 0.266338,1.56529 -0.04774,1.31898 -0.356315,2.50753 -1.020371,3.65988 -0.812356,1.32489 -1.627397,2.29155 -3.138498,2.82686 -0.211619,0.0468 -0.420248,0.11015 -0.634855,0.14048 -0.829897,0.11726 -1.743919,-0.0165 -2.418768,-0.54768 -0.165264,-0.13007 -0.292287,-0.30248 -0.43843,-0.45372 -0.104923,-0.19371 -0.233333,-0.37644 -0.314772,-0.58113 -0.373264,-0.93821 -0.144526,-2.01153 0.09898,-2.9447 0.465749,-1.36798 1.008518,-2.38379 2.390974,-2.99503 0.20783,-0.059 0.411432,-0.13571 0.623493,-0.17701 0.821573,-0.16 1.647915,0.0366 2.467663,0.0897 1.48799,0.2976 1.067122,2.40193 -0.420868,2.10434 z"
       inkscape:connector-curvature="0" />
    <path
       style="fill:#ff0000;stroke-width:0.26458332"
       id="path787"
       d="m 190.62327,269.46742 c -0.17098,1.31394 -0.01,2.64907 0.18399,3.95181 0.18327,0.61678 0.20486,1.63517 0.6643,2.12604 0.66496,1.34133 -1.23196,2.28173 -1.89692,0.94041 v 0 c -0.3319,-0.90664 -0.47987,-1.85335 -0.61736,-2.80663 -0.18606,-1.40063 -0.30699,-2.80833 -0.47044,-4.21163 0,-1.51068 2.13643,-1.51068 2.13643,0 z"
       inkscape:connector-curvature="0" />
    <path
       style="fill:#ff0000;stroke-width:0.26458332"
       id="path789"
       d="m 184.01222,267.77327 c 1.38119,-0.51323 2.81953,-0.82091 4.2718,-1.04738 0.8317,-0.12905 1.67281,-0.16871 2.51172,-0.21896 1.33078,-0.0371 1.38319,1.84495 0.0524,1.88201 v 0 c -0.75818,-0.005 -1.51725,-0.004 -2.26655,0.13491 -1.24672,0.21968 -2.52919,0.47128 -3.6149,1.15837 -1.34983,0.67492 -2.30431,-1.23403 -0.95447,-1.90895 z"
       inkscape:connector-curvature="0" />
    <path
       style="fill:#ff0000;stroke-width:0.26458332"
       id="path791"
       d="m 195.67829,271.56369 c 0.77314,-0.29224 1.54747,-0.57965 2.26721,-0.9889 0.5832,-0.3145 0.96057,-0.77738 1.18172,-1.39224 0.0241,-0.0952 0.0988,-0.36276 0.0995,-0.46748 2.1e-4,-0.0312 -0.0573,-0.0857 -0.0728,-0.0587 -0.13579,0.23797 0.0535,0.0301 -0.0268,0.11458 -0.32253,-0.11087 -0.61622,-0.075 -0.91747,0.0751 -0.53838,0.29007 -0.72589,0.88544 -0.86977,1.44187 -0.21518,0.90346 -0.0322,1.80273 0.18916,2.68362 0.23942,0.79214 0.68685,1.47054 1.35531,1.95702 0.48498,0.29429 1.00002,0.40595 1.55111,0.27974 0.46476,-0.10163 0.81309,-0.38702 1.1572,-0.69232 0.0962,-0.11487 0.0689,-0.0596 0.10389,-0.1532 0.93137,-1.21211 2.64556,0.10505 1.71419,1.31716 v 0 c -0.29367,0.34683 -0.13916,0.18737 -0.4609,0.48091 -0.66031,0.51117 -1.36173,0.94095 -2.19802,1.09519 -1.25718,0.15425 -2.06522,-0.0365 -3.12226,-0.75269 -0.15746,-0.13191 -0.32349,-0.25422 -0.47238,-0.39573 -0.75938,-0.72172 -1.25078,-1.66127 -1.54708,-2.65679 -0.29988,-1.20665 -0.49763,-2.44246 -0.21483,-3.67561 0.34874,-1.30733 0.81652,-2.20869 2.07101,-2.84873 0.18697,-0.0658 0.36863,-0.14926 0.56089,-0.19745 0.90898,-0.22785 1.85343,-0.0373 2.5946,0.52903 0.12009,0.13207 0.26159,0.24745 0.36028,0.39619 0.48368,0.72898 0.35313,1.56746 0.0496,2.3316 -0.46656,1.02772 -1.1053,1.81635 -2.10729,2.36981 -0.75108,0.40161 -1.54939,0.70481 -2.27961,1.14084 -1.36673,0.68336 -2.33316,-1.24948 -0.96643,-1.93285 z"
       inkscape:connector-curvature="0" />
    <path
       style="fill:#ff0000;stroke-width:0.26458332"
       id="path793"
       d="m 204.975,273.83008 c 0.24354,0.56303 0.54246,0.88768 1.10117,1.12046 0.56191,0.21194 1.08755,0.17327 1.60362,-0.12214 0.64134,-0.4773 1.08281,-1.16267 1.41318,-1.87947 0.41592,-0.97539 0.58937,-2.02834 0.81501,-3.0583 0.21992,-0.75402 0.34101,-1.67779 0.91343,-2.27375 0.13297,-0.13844 0.29654,-0.24383 0.44481,-0.36574 0.18395,-0.0672 0.3579,-0.17449 0.55186,-0.20172 0.99718,-0.13996 1.67875,0.53573 2.23269,1.24747 0.65845,0.9098 0.8851,2.00292 1.1146,3.07799 0.19762,0.8487 0.23605,1.72367 0.38738,2.57887 0.0626,0.32845 0.032,0.16497 0.0918,0.49041 0.22723,1.49371 -1.8852,1.81506 -2.11243,0.32135 v 0 c -0.0421,-0.3476 -0.0203,-0.16514 -0.0653,-0.54738 -0.0745,-0.81023 -0.0666,-1.63073 -0.25294,-2.42845 -0.16337,-0.77213 -0.31732,-1.57008 -0.79511,-2.22012 -0.14672,-0.18728 -0.10143,-0.14462 -0.2567,-0.29228 -0.0275,-0.0261 -0.11315,-0.0713 -0.0773,-0.0834 0.34888,-0.11791 0.12314,0.0356 0.35225,-0.15114 0.0135,-0.0339 0.0731,-0.0853 0.0405,-0.10155 -0.0272,-0.0136 -0.1541,0.13164 -0.22347,0.24997 -0.2056,0.35072 -0.32462,0.74642 -0.42201,1.13781 -0.27609,1.16431 -0.45988,2.3602 -0.94627,3.46323 -0.5323,1.11629 -1.21277,2.16999 -2.28296,2.84059 -0.19525,0.0953 -0.38249,0.20912 -0.58575,0.28588 -0.92118,0.34785 -1.90893,0.21839 -2.81132,-0.10964 -0.44811,-0.2208 -0.59144,-0.2599 -0.98502,-0.58496 -0.47957,-0.39609 -0.81378,-0.93325 -1.17861,-1.42756 -0.68336,-1.36673 1.24949,-2.33315 1.93285,-0.96642 z"
       inkscape:connector-curvature="0" />
    <path
       style="fill:#ff0000;stroke-width:0.26458332"
       id="path795"
       d="m 218.44713,268.66161 c -0.49642,0.37467 -0.72053,0.92713 -0.87146,1.50837 -0.19305,0.84975 -0.15118,1.72107 -0.0189,2.5754 0.15493,0.63873 0.22157,1.0915 0.82387,1.41139 0.48945,0.23245 0.93227,0.0601 1.37883,-0.17494 0.83943,-0.5465 1.36825,-1.40874 1.85638,-2.25898 0.51576,-0.94063 0.82533,-1.96426 0.81293,-3.03818 -0.0856,-0.52546 -0.27599,-0.99214 -0.76519,-1.23993 -0.35032,-0.12841 -0.7295,-0.25238 -1.06983,-0.0512 -0.16771,0.11283 -0.28935,0.26685 -0.4105,0.42513 -0.96269,1.11047 -2.53314,-0.25099 -1.57044,-1.36146 v 0 c 0.3666,-0.39992 0.73155,-0.78225 1.23974,-1.00638 0.1832,-0.0617 0.36099,-0.14275 0.5496,-0.18515 0.84323,-0.18955 1.67974,0.0697 2.42043,0.46317 0.15264,0.11215 0.31684,0.21005 0.45792,0.33644 0.76591,0.68612 1.08593,1.66754 1.13397,2.66871 -0.0105,0.2141 -0.009,0.42908 -0.0314,0.64229 -0.12032,1.1596 -0.57066,2.26083 -1.0986,3.28855 -0.66748,1.19886 -1.41879,2.38461 -2.61111,3.12472 -0.18095,0.0896 -0.35537,0.19377 -0.54286,0.26871 -0.95753,0.38274 -1.97819,0.31813 -2.87957,-0.17741 -0.15874,-0.11136 -0.32911,-0.20777 -0.47623,-0.33408 -0.74711,-0.64146 -1.0277,-1.57551 -1.18524,-2.51352 -0.15775,-1.12911 -0.23879,-2.27651 0.0192,-3.39912 0.11922,-0.42501 0.1581,-0.62576 0.34444,-1.03251 0.26795,-0.58489 0.67364,-1.09383 1.08968,-1.57831 1.15842,-0.99293 2.56263,0.64532 1.40421,1.63825 z"
       inkscape:connector-curvature="0" />
    <path
       style="fill:#ff0000;stroke-width:0.26458332"
       id="path797"
       d="m 88.293495,122.79918 c 0.791,0.16068 1.59449,0.24682 2.388584,0.39121 1.279496,0.20813 2.50848,0.58657 3.704084,1.07989 1.224915,0.51269 2.347654,1.22611 3.499276,1.87905 1.258404,0.71291 2.515481,1.42876 3.745111,2.19044 1.55299,0.93529 2.91238,2.13483 4.23571,3.36318 1.68754,1.61028 3.37905,3.21638 5.03814,4.85608 2.11286,2.04849 4.07384,4.24298 6.00844,6.45801 1.94067,2.23671 3.83476,4.51278 5.70959,6.80474 1.42686,1.71589 2.72367,3.53158 3.96696,5.38293 0.53758,0.80946 1.09126,1.60724 1.66508,2.39103 0.0969,0.20531 0.37131,0.4364 0.45823,0.64032 0.0451,0.1058 0.0724,0.21833 0.10863,0.3275 -0.43409,0.22248 -0.84471,0.4984 -1.30226,0.66743 -0.0627,0.0232 -0.1039,-0.0843 -0.15284,-0.12988 -0.23231,-0.21621 -0.44495,-0.46107 -0.66081,-0.69345 -0.70543,-0.77529 0.391,-1.77293 1.09643,-0.99763 v 0 c 0.73262,0.82938 0.97193,0.26911 -0.56155,1.30519 0.0318,0.0832 0.14209,0.3266 0.10636,0.24504 -0.0896,-0.20446 -0.25183,-0.37869 -0.33807,-0.58598 -0.45003,-0.86219 -0.90792,-1.7204 -1.3929,-2.56366 -1.09081,-1.90133 -2.31661,-3.7218 -3.68022,-5.43929 -1.81646,-2.32238 -3.66837,-4.61769 -5.6154,-6.83259 -1.93613,-2.1831 -3.90084,-4.34405 -6.0498,-6.32245 -1.69101,-1.5924 -3.4123,-3.15188 -5.13699,-4.70768 -1.29332,-1.15259 -2.61711,-2.2818 -4.12725,-3.14595 -1.227439,-0.73819 -2.480355,-1.43209 -3.739245,-2.11506 -1.110183,-0.62142 -2.183476,-1.31731 -3.356118,-1.81933 -1.107252,-0.4522 -2.247376,-0.78166 -3.439586,-0.91864 -0.776364,-0.10539 -1.561766,-0.20526 -2.346229,-0.19268 -1.073224,-0.11925 -0.904584,-1.63702 0.168643,-1.51777 z"
       inkscape:connector-curvature="0" />
    <path
       style="fill:#ff0000;stroke-width:0.26458332"
       id="path799"
       d="m 123.1197,156.37168 c 0.89897,0.36044 1.75586,0.82056 2.6094,1.27637 1.10816,0.60641 2.23763,1.17048 3.40195,1.66053 0.4147,0.15338 0.83539,0.31156 1.27215,0.39248 0.087,0.0161 0.17552,0.0303 0.264,0.0283 0.0352,-8e-4 0.11639,-0.006 0.0991,-0.0362 -0.0224,-0.0396 -0.0893,-0.017 -0.13402,-0.0256 0.19974,-0.54856 -0.25027,0.24597 -0.27455,0.14532 -0.023,-0.0955 -3e-5,-0.19684 -0.0104,-0.29452 -0.0184,-0.17292 -0.046,-0.34485 -0.076,-0.51615 -0.10561,-0.60254 -0.19258,-0.94901 -0.33061,-1.5597 -0.44612,-1.82235 -0.8073,-3.66692 -1.3348,-5.46828 -0.19189,-0.84116 0.99769,-1.11254 1.18958,-0.27138 v 0 c 0.3046,1.83854 0.7042,3.66401 1.251,5.4466 0.15978,0.5252 0.32793,1.04785 0.48434,1.57405 0.16087,0.54121 0.43766,1.27749 0.1597,1.83873 -0.0945,0.19084 -0.28862,0.31323 -0.43292,0.46984 -0.1624,0.0454 -0.31969,0.11685 -0.4872,0.13629 -0.21986,0.0255 -0.55271,-0.0723 -0.75739,-0.13471 -0.48249,-0.14712 -0.94466,-0.34964 -1.40743,-0.54828 -1.16291,-0.54898 -2.32289,-1.10349 -3.46647,-1.69208 -0.75091,-0.37198 -1.52162,-0.77347 -2.35032,-0.93229 -1.05316,-0.23403 -0.72218,-1.72342 0.33097,-1.48939 z"
       inkscape:connector-curvature="0" />
    <path
       style="fill:#ff0000;stroke-width:0.26458332"
       id="path801"
       d="m 51.655037,124.79634 c 0.766689,0.7144 1.57625,1.38179 2.372038,2.06336 1.270121,1.10196 2.57902,2.15689 3.871796,3.23174 1.063368,0.89257 2.137759,1.77114 3.29021,2.54668 0.230505,0.1212 0.614341,0.44932 0.890235,0.49664 0.01601,0.003 2.65e-4,-0.0325 5.3e-4,-0.0487 1.012279,0.42485 0.411456,1.85643 -0.600822,1.43158 v 0 c -0.367104,-0.25512 -0.703233,-0.55342 -1.062471,-0.81973 -1.114205,-0.87432 -2.194047,-1.79135 -3.266371,-2.7163 -1.273485,-1.08359 -2.56785,-2.14412 -3.886507,-3.17218 -0.830495,-0.62561 -1.651574,-1.2723 -2.534039,-1.82333 -0.841301,-0.65435 0.08408,-1.84413 0.925386,-1.18978 z"
       inkscape:connector-curvature="0" />
    <path
       style="fill:#ff0000;stroke-width:0.26458332"
       id="path803"
       d="m 53.679092,127.3284 c -0.396809,-0.13235 -0.81561,-0.17501 -1.230828,-0.20251 -0.703535,-0.0717 -1.031135,-0.37628 -1.192544,-1.06113 -0.0792,-0.58034 0.03817,-1.159 0.156835,-1.72515 0.14846,-0.92164 0.43081,-1.80624 0.833371,-2.64637 0.400537,-0.79526 1.066993,-1.33732 1.859219,-1.70744 0.269891,-0.11732 0.560163,-0.16301 0.829448,-0.27965 0.146082,-0.0633 0.09322,-0.0205 0.158882,-0.0818 0.190624,-0.1692 0.394925,-0.31326 0.623856,-0.42901 0.636336,-0.22564 1.170831,0.0868 1.678175,0.44433 0.794552,0.59684 1.478595,1.32066 2.187469,2.01307 0.995228,0.98786 2.106343,1.84706 3.23908,2.66946 0.736952,0.54164 1.523404,1.01345 2.347542,1.40912 0.884989,0.52599 0.141126,1.77755 -0.743863,1.25156 v 0 c -0.777576,-0.56421 -1.61308,-1.04861 -2.357723,-1.65922 -1.137661,-0.88717 -2.269009,-1.78469 -3.348125,-2.74288 -0.679244,-0.60094 -1.350867,-1.22236 -2.117696,-1.71169 -0.05195,-0.0296 -0.232442,-0.13549 -0.309848,-0.17141 -0.187336,-0.0869 -0.0317,-0.0191 0.07737,-0.10224 -0.207309,0.0492 -0.344993,0.32024 -0.556995,0.38269 -0.361948,0.17079 -0.739685,0.26861 -1.131628,0.34358 -0.509352,0.18724 -0.932707,0.49966 -1.203254,0.97978 -0.366263,0.71433 -0.586684,1.47704 -0.667496,2.27775 -0.0492,0.38632 -0.10963,0.78169 -0.05509,1.17061 -0.0068,0.0314 -0.06782,-0.092 -0.165701,-0.14128 -0.02857,-0.0144 -0.124166,-0.0204 -0.09577,-0.006 0.03002,0.0155 0.06496,0.0188 0.09744,0.0282 0.474945,0.0571 0.944409,0.14807 1.418854,0.20795 1.053158,0.23403 0.722183,1.72342 -0.330975,1.48938 z"
       inkscape:connector-curvature="0" />
    <path
       style="fill:#ff0000;stroke-width:0.26458332"
       id="path805"
       d="m 59.942195,115.17433 c 0.797523,0.90277 1.682906,1.72429 2.535774,2.57419 1.276414,1.28968 2.640516,2.48528 4.01228,3.67104 0.60449,0.4631 1.157366,1.0622 1.887267,1.3291 0.895959,0.53031 0.145989,1.79738 -0.749969,1.26707 v 0 c -0.686073,-0.52452 -1.30883,-1.12326 -1.926844,-1.72526 -1.319525,-1.25519 -2.674313,-2.47325 -4.012965,-3.70797 -0.877874,-0.78973 -1.771549,-1.57018 -2.738472,-2.24975 -0.819123,-0.70211 0.173803,-1.86052 0.992929,-1.15842 z"
       inkscape:connector-curvature="0" />
    <path
       style="fill:#ff0000;stroke-width:0.26458332"
       id="path807"
       d="m 58.500353,114.72501 c 0.512027,-0.63266 1.169461,-1.10463 1.92546,-1.40671 0.204875,-0.0819 0.418039,-0.14122 0.627058,-0.21184 1.258535,-0.33972 2.577642,-0.38674 3.839665,-0.0328 0.276352,0.0775 0.542811,0.18672 0.814218,0.28007 1.66193,0.6594 3.012763,1.83668 4.355531,2.98173 1.191136,1.04513 2.408026,2.06063 3.728868,2.9383 0.386993,0.21624 0.758978,0.50601 1.193149,0.62919 0.04722,0.0134 0.111895,0.0407 0.147114,0.007 0.02593,-0.0252 -0.05133,-0.0725 -0.08672,-0.0651 -0.205618,0.0427 -0.396745,0.13788 -0.595117,0.20682 0.729898,-0.8378 1.914729,0.19443 1.184831,1.03224 v 0 c -0.225057,0.0996 -0.434816,0.24586 -0.675174,0.29872 -0.153496,0.0337 -0.499055,-0.16131 -0.617316,-0.2286 -0.44554,-0.25351 -0.858536,-0.55966 -1.276204,-0.85523 -1.294694,-0.97154 -2.506247,-2.04264 -3.730615,-3.10015 -1.242702,-1.03512 -2.494729,-2.10953 -4.011387,-2.72214 -0.22733,-0.0769 -0.450556,-0.16715 -0.681987,-0.23061 -1.042991,-0.28597 -2.127253,-0.24101 -3.155469,0.0809 -0.660334,0.24983 -1.355614,0.54242 -1.69363,1.20645 -0.571111,0.91377 -1.863386,0.1061 -1.292275,-0.80768 z"
       inkscape:connector-curvature="0" />
    <path
       style="fill:#ff0000;stroke-width:0.26458332"
       id="path809"
       d="m 64.537309,117.73892 c 0.652976,-0.3726 1.148347,-0.95247 1.622988,-1.52292 0.284091,-0.33026 0.528712,-0.69096 0.777608,-1.04758 0.587579,-0.78618 1.699408,0.0448 1.111827,0.83096 v 0 c -0.284967,0.35599 -0.550984,0.72583 -0.844286,1.07519 -0.55939,0.68882 -1.155073,1.34311 -1.829305,1.92261 -0.889717,0.59314 -1.728552,-0.66511 -0.838832,-1.25826 z"
       inkscape:connector-curvature="0" />
    <path
       style="fill:#ff0000;stroke-width:0.26458332"
       id="path811"
       d="m 70.807539,109.48584 c 0.734738,0.89763 1.497756,1.7728 2.239592,2.66518 0.975723,1.17981 1.957377,2.35554 2.978949,3.49607 0.333148,0.36219 0.660506,0.73984 1.090814,0.98801 0.797594,0.68514 -0.171352,1.81312 -0.968946,1.12797 v 0 c -0.379461,-0.41927 -0.742405,-0.85259 -1.083863,-1.30362 -0.951421,-1.19481 -1.909734,-2.38409 -2.923866,-3.52685 -0.750424,-0.83942 -1.504788,-1.69093 -2.407467,-2.37198 -0.759989,-0.75999 0.314798,-1.83477 1.074787,-1.07478 z"
       inkscape:connector-curvature="0" />
    <path
       style="fill:#ff0000;stroke-width:0.26458332"
       id="path813"
       d="m 68.51008,109.60198 c 0.214276,-0.67031 0.542796,-1.29188 1.064014,-1.77535 0.137039,-0.12712 0.291367,-0.23422 0.43705,-0.35132 1.169384,-0.77342 2.437937,-0.99261 3.809116,-1.09246 0.895958,0.0141 1.813502,0.13653 2.591689,0.61632 0.499112,0.30773 0.554217,0.43339 0.936225,0.86492 0.57558,0.87096 0.805135,1.89396 0.653018,2.92868 -0.03038,0.20662 -0.08812,0.40829 -0.132178,0.61244 -0.265527,1.00006 -0.794906,1.89158 -1.533755,2.61024 -0.08686,0.0662 -0.17372,0.13242 -0.26058,0.19864 -0.886552,0.56539 -1.686147,-0.68838 -0.799594,-1.25378 v 0 c 0.03711,-0.0129 0.07422,-0.0257 0.111331,-0.0386 0.608452,-0.43034 0.99628,-1.08453 1.196504,-1.79551 0.07036,-0.32222 0.135604,-0.53973 0.141354,-0.86899 0.0094,-0.54064 -0.134822,-1.06831 -0.402442,-1.53535 -0.07455,-0.0986 -0.138965,-0.20574 -0.223647,-0.29577 -0.56479,-0.60049 -1.407221,-0.74753 -2.192806,-0.78225 -0.19612,0.012 -0.393012,0.0149 -0.588359,0.036 -0.862349,0.0933 -1.72684,0.35318 -2.447489,0.84254 -0.501036,0.42258 -0.790718,0.73455 -0.870058,1.41051 -0.234035,1.05316 -1.723427,0.72218 -1.489393,-0.33098 z"
       inkscape:connector-curvature="0" />
    <path
       style="fill:#ff0000;stroke-width:0.26458332"
       id="path815"
       d="m 81.040554,102.55274 c 0.51698,1.00001 1.242086,1.88422 1.926479,2.77348 1.127566,1.40973 2.154496,2.89166 3.048346,4.45947 0.491784,0.91538 0.976405,1.84111 1.311653,2.82723 0.194078,1.04197 -1.279498,1.31644 -1.473575,0.27446 v 0 c 0.03523,-0.28192 -0.06851,-0.56051 -0.156824,-0.8248 -0.196345,-0.58759 -0.451546,-1.15286 -0.716899,-1.71188 -0.800531,-1.5399 -1.768282,-2.98285 -2.91106,-4.29228 -0.774546,-0.89841 -1.558914,-1.78843 -2.320396,-2.69801 -0.571108,-0.91378 0.721167,-1.72145 1.292276,-0.80767 z"
       inkscape:connector-curvature="0" />
    <path
       style="fill:#ff0000;stroke-width:0.26458332"
       id="path817"
       d="m 80.550514,100.73372 c 1.120317,-0.34273 2.09311,-0.21095 3.216616,0.0301 0.979908,0.26668 1.934662,0.64917 2.793211,1.19763 0.622306,0.39755 0.78698,0.57387 1.35114,1.0576 1.44879,1.36564 2.444007,3.10203 3.472945,4.7842 0.637106,0.96676 1.139991,2.11624 2.078254,2.8417 0.0059,-0.0205 0.03486,-0.0488 0.01775,-0.0616 -0.287938,-0.2157 -0.355158,-0.0844 -0.710205,0.0251 0.778846,-0.765 1.860727,0.33645 1.081881,1.10146 v 0 c -0.205698,0.0997 -0.391636,0.2614 -0.617096,0.29901 -0.36086,0.0602 -0.562999,-0.17158 -0.802346,-0.36081 -0.807352,-1.00144 -1.361011,-2.16781 -1.990924,-3.28269 -0.928581,-1.59801 -1.884452,-3.20808 -3.279214,-4.45175 -0.46819,-0.38143 -0.6839,-0.58344 -1.192239,-0.89831 -0.75557,-0.46801 -1.587095,-0.80231 -2.450255,-1.00813 -0.779087,-0.14019 -1.620703,-0.27745 -2.352033,0.1158 -0.982429,0.43663 -1.599924,-0.95273 -0.617495,-1.38937 z"
       inkscape:connector-curvature="0" />
    <path
       style="fill:#ff0000;stroke-width:0.26458332"
       id="path819"
       d="m 85.198388,105.466 c 0.563301,-0.31697 1.128906,-0.62797 1.696479,-0.93723 0.865368,-0.46378 1.521254,0.76004 0.655887,1.22382 v 0 c -0.506045,0.26655 -1.013635,0.54271 -1.440887,0.92871 -0.859351,0.64452 -1.770827,-0.57079 -0.911479,-1.2153 z"
       inkscape:connector-curvature="0" />
    <path
       style="fill:#ff0000;stroke-width:0.26458332"
       id="path821"
       d="m 83.623689,107.64237 c 0.391779,-0.48593 0.877829,-0.87728 1.338942,-1.2931 0.284417,-0.24866 0.495036,-0.55259 0.699336,-0.86613 0.57109,-0.84237 1.76239,-0.0347 1.191303,0.80764 v 0 c -0.276834,0.39511 -0.556475,0.79115 -0.91466,1.11867 -0.35361,0.33184 -0.757531,0.62863 -1.022646,1.04059 -0.571111,0.91378 -1.863386,0.1061 -1.292275,-0.80767 z"
       inkscape:connector-curvature="0" />
    <path
       style="fill:#ff0000;stroke-width:0.26458332"
       id="path823"
       d="m 91.937894,99.589785 c 0.787289,0.633405 1.461874,1.383285 2.112299,2.152325 0.88044,1.04546 1.725247,2.12101 2.616816,3.15695 0.501891,0.58383 1.063215,1.11131 1.586722,1.67476 0.635223,0.80191 -0.498845,1.70025 -1.134065,0.89834 v 0 c -0.407683,-0.63884 -0.96807,-1.16173 -1.425789,-1.7635 -0.84881,-1.05427 -1.683594,-2.12008 -2.594308,-3.12287 -0.590894,-0.63263 -1.184267,-1.30834 -1.969347,-1.70373 -0.913776,-0.57111 -0.106106,-1.863385 0.807672,-1.292275 z"
       inkscape:connector-curvature="0" />
    <path
       style="fill:#ff0000;stroke-width:0.26458332"
       id="path825"
       d="m 91.891373,97.780809 c 0.687514,0.01336 1.377077,-0.0489 2.056193,0.0963 0.185285,0.03961 0.36531,0.100735 0.547965,0.151103 1.196589,0.453865 2.092085,1.373383 2.986223,2.250778 0.703463,0.70955 1.347729,1.47235 2.114796,2.11554 0.237075,0.23134 0.51468,0.41054 0.78294,0.60158 0.15598,0.11108 0.30381,0.24603 0.48512,0.31325 -0.11672,-0.1368 -0.13116,-0.17677 -0.46501,-0.0841 -0.14308,0.0397 -0.25131,0.15972 -0.36554,0.25458 -0.0254,0.0211 -0.04615,0.12067 -0.0465,0.0876 -5.29e-4,-0.0609 0.03287,-0.11731 0.04558,-0.17685 0.0167,-0.0783 0.0284,-0.15755 0.0426,-0.23633 0.1304,-0.8041 0.33232,-1.59448 0.57716,-2.37069 0.30749,-0.945715 0.80737,-1.798923 1.35396,-2.62264 0.52822,-0.755539 1.13504,-1.448355 1.77599,-2.108924 0.45127,-0.431862 0.94768,-0.789897 1.54615,-0.975927 0.1126,-0.0056 0.22635,-0.03383 0.33779,-0.01675 0.75756,0.11608 0.9704,0.794323 1.16669,1.423351 0.26881,1.010987 0.46102,2.039844 0.67924,3.062362 0.25051,1.207468 0.5164,2.411588 0.79913,3.611908 0.21149,0.81031 0.40433,1.63428 0.74206,2.40372 0.0738,0.11374 0.0595,0.13965 0.0718,0.0523 0.55257,0.95533 -0.79847,1.73678 -1.35104,0.78145 v 0 c -0.0991,-0.25069 -0.0582,-0.12277 -0.12303,-0.3837 -0.19224,-0.85666 -0.40339,-1.70894 -0.59439,-2.56591 -0.26965,-1.20681 -0.52674,-2.41638 -0.79893,-3.622618 -0.22028,-0.963771 -0.44155,-1.931765 -0.78099,-2.862015 -0.11551,-0.285786 -0.0698,-0.189236 -0.17873,-0.411432 -0.009,-0.01843 -0.0478,-0.05936 -0.0278,-0.05494 0.14499,0.03197 0.21928,0.172334 0.39647,0.06853 -0.15489,-0.08904 -0.77765,0.410242 -0.9018,0.496789 -0.60774,0.557825 -1.16022,1.173014 -1.6271,1.854888 -0.47696,0.714265 -0.91794,1.448888 -1.17604,2.275078 -0.21166,0.69865 -0.37206,1.41578 -0.43761,2.14401 -0.0209,0.26415 -0.004,0.72648 -0.16346,0.95001 -0.36115,0.50741 -0.76325,0.60482 -1.29314,0.31732 -0.488751,-0.3567 -0.937993,-0.77085 -1.38708,-1.17493 -0.751703,-0.70098 -1.406052,-1.48944 -2.116199,-2.23088 -0.714954,-0.73159 -1.456489,-1.489054 -2.429248,-1.865061 -0.125433,-0.03486 -0.248682,-0.07884 -0.376301,-0.104566 -0.568333,-0.11455 -1.154493,-0.04278 -1.716773,0.06702 -1.068559,0.106856 -1.219676,-1.404316 -0.151116,-1.511171 z"
       inkscape:connector-curvature="0" />
    <path
       style="fill:#ff0000;stroke-width:0.26458332"
       id="path827"
       d="m 114.36386,94.850791 c 0.12191,1.316304 0.48262,2.598152 0.82946,3.869415 0.44268,1.540064 0.88042,3.081374 1.3035,4.626944 0.2549,0.9825 0.56183,1.95006 0.83841,2.9264 0.0782,0.10069 0.0402,0.45688 0.18644,0.53769 0.0717,0.0397 -0.10269,-0.17863 -0.12532,-0.19798 -0.007,-0.007 -0.0302,-0.0164 -0.0213,-0.0208 0.0246,-0.0121 0.0544,-0.006 0.0816,-0.009 0.0772,-0.008 0.15463,-0.0131 0.23172,-0.0218 0.37143,-0.0421 0.74127,-0.0916 1.11328,-0.1296 0.96781,-0.0863 1.93802,-0.11879 2.90915,-0.10366 0.43262,-0.006 0.86285,0.0143 1.2936,0.051 1.04222,0.17704 0.79186,1.65097 -0.25037,1.47393 v 0 c -0.35415,-0.10657 -0.7221,-0.12367 -1.08936,-0.15196 -0.89688,-0.0476 -1.79568,-0.0248 -2.68624,0.10191 -0.39913,0.0635 -0.3629,0.0523 -0.7447,0.13321 -0.31381,0.0665 -0.64967,0.16904 -0.97401,0.16381 -0.123,-0.002 -0.24401,-0.0315 -0.36602,-0.0472 -0.11258,-0.0489 -0.23536,-0.0791 -0.33774,-0.14678 -0.45275,-0.29949 -0.54705,-0.81288 -0.607,-1.31126 -0.17594,-0.98905 -0.41748,-1.96532 -0.64262,-2.94393 -0.36696,-1.54873 -0.76887,-3.08791 -1.22259,-4.613752 -0.38412,-1.285623 -0.75056,-2.577737 -1.17262,-3.851342 -0.23706,-1.027226 1.21566,-1.362468 1.45271,-0.335242 z"
       inkscape:connector-curvature="0" />
    <path
       style="fill:#ff0000;stroke-width:0.26458332"
       id="path829"
       d="m 114.9681,100.20247 c 0.81881,0.0865 1.64511,0.0758 2.46757,0.0771 0.71426,-0.0225 1.44609,0.0413 2.14779,-0.1221 0.11145,-0.0572 0.0869,-0.0164 0.11366,-0.087 0.97853,-0.457527 1.62557,0.92633 0.64704,1.38385 v 0 c -0.34422,0.12015 -0.16167,0.068 -0.54927,0.1508 -0.78538,0.0708 -1.57179,0.0355 -2.35922,0.0309 -0.82246,0.001 -1.64876,-0.009 -2.46757,0.0771 -1.06822,0 -1.06822,-1.51068 0,-1.51068 z"
       inkscape:connector-curvature="0" />
    <path
       style="fill:#ff0000;stroke-width:0.26458332"
       id="path831"
       d="m 111.90105,95.009218 c 0.52648,-0.789312 1.14848,-1.061129 2.03598,-1.303569 1.14641,-0.206171 2.31894,-0.21185 3.48002,-0.187937 1.02706,0.04329 2.0475,0.185788 3.06518,0.325061 0.93047,0.165765 0.69604,1.48165 -0.23443,1.315885 v 0 c -0.9356,-0.209665 -1.88725,-0.33343 -2.84638,-0.364424 -1.03059,-0.0033 -2.07483,0.01832 -3.08433,0.245361 -0.39716,0.120207 -0.85263,0.251586 -1.04932,0.652988 -0.48321,0.966423 -1.84994,0.283059 -1.36672,-0.683365 z"
       inkscape:connector-curvature="0" />
    <path
       style="fill:#ff0000;stroke-width:0.26458332"
       id="path833"
       d="m 128.16268,94.426038 c 0.53192,0.845571 0.64649,1.852968 0.77043,2.82252 0.13743,1.474455 0.42534,2.926112 0.69529,4.380002 0.26136,1.32135 0.44585,2.65623 0.63041,3.99001 0.10032,0.75396 0.11895,1.53133 -1.07891,1.3869 -0.21613,-0.0261 -0.30613,-0.30958 -0.4592,-0.46437 -0.53026,-0.95218 0.81633,-1.70207 1.34659,-0.74989 v 0 c -0.50276,-0.3771 -0.40024,-0.45257 -1.20619,0.0767 -0.13952,0.0916 -0.0396,0.4217 0.0136,0.15691 0.0195,-0.0974 0.0176,-0.198 0.0263,-0.29701 -0.0267,-1.30436 -0.1652,-2.60146 -0.43139,-3.87996 -0.28262,-1.46487 -0.59461,-2.924231 -0.81147,-4.40114 -0.12666,-0.68333 -0.20752,-1.465289 -0.65391,-2.027774 -0.7021,-0.819124 0.45631,-1.812052 1.15842,-0.992928 z"
       inkscape:connector-curvature="0" />
    <path
       style="fill:#ff0000;stroke-width:0.26458332"
       id="path835"
       d="m 124.38272,92.582002 c 0.49321,-0.150082 0.98399,-0.319854 1.49901,-0.379888 0.42701,-0.04977 0.57721,-0.02824 1.00827,-0.01367 1.19576,0.08288 2.32237,0.512096 3.42555,0.950202 0.54836,0.219133 1.07656,0.483 1.60417,0.746885 0.82824,0.452783 0.18791,1.624098 -0.64033,1.171316 v 0 c -0.46016,-0.276966 -0.93121,-0.529684 -1.43245,-0.726796 -0.96239,-0.374603 -1.94871,-0.729106 -2.99103,-0.775779 -0.65141,-0.0086 -1.29349,0.05378 -1.8557,0.417092 -0.98243,0.436636 -1.59992,-0.95273 -0.61749,-1.389365 z"
       inkscape:connector-curvature="0" />
    <path
       style="fill:#ff0000;stroke-width:0.26458332"
       id="path837"
       d="m 137.20488,93.885394 c -0.11797,1.062423 -0.23092,2.124885 -0.37037,3.184915 -0.20859,1.715171 -0.53133,3.412301 -0.83437,5.112261 -0.18866,1.06222 -0.37153,2.13082 -0.39862,3.2115 0.008,0.22496 0.005,0.12302 0.01,0.30582 -0.21972,1.08427 -1.7531,0.77353 -1.53338,-0.31073 v 0 c 0.0768,-0.0559 0.028,-0.011 0.0874,-0.17876 0.24724,-1.07761 0.437,-2.16846 0.69667,-3.24355 0.33375,-1.66223 0.64659,-3.329378 0.763,-5.024131 0.0799,-1.014171 0.17196,-2.042987 0.0524,-3.057325 0,-1.080161 1.52758,-1.080161 1.52758,0 z"
       inkscape:connector-curvature="0" />
    <path
       style="fill:#ff0000;stroke-width:0.26458332"
       id="path839"
       d="m 136.14765,92.038053 c 0.88292,0.02054 1.74267,0.188654 2.58843,0.431108 0.88877,0.290815 1.72742,0.708156 2.47487,1.269122 0.50668,0.458703 0.82908,1.04698 0.8227,1.745811 -0.004,0.452147 -0.10438,0.689066 -0.22844,1.114008 -0.45618,1.21406 -1.35535,2.014172 -2.38527,2.744199 -0.44585,0.307506 -0.93243,0.536971 -1.42613,0.753569 -0.89988,0.36138 -1.41095,-0.911254 -0.51107,-1.272633 v 0 c 0.41504,-0.147647 0.82339,-0.307413 1.19184,-0.555403 0.77558,-0.523945 1.48852,-1.146861 1.8228,-2.048782 0.15493,-0.540733 0.25013,-0.926624 -0.15793,-1.375476 -0.57728,-0.488015 -1.26399,-0.818267 -1.97811,-1.059052 -0.67291,-0.190325 -1.37453,-0.360253 -2.07695,-0.242376 -1.06355,0.09669 -1.20029,-1.407408 -0.13674,-1.504095 z"
       inkscape:connector-curvature="0" />
    <path
       style="fill:#ff0000;stroke-width:0.26458332"
       id="path843"
       d="m 262.50323,207.9077 c -0.20048,0.6433 -0.23033,1.32604 -0.27002,1.99432 -0.0456,1.07402 0.0819,2.1401 0.22029,3.20251 0.26416,1.70002 0.49196,3.40529 0.74328,5.10717 0.19938,1.38496 0.4307,2.7686 0.79646,4.12083 0.16952,0.62674 0.36265,1.18929 0.56454,1.80525 0.64131,1.67684 1.32222,3.33588 1.91269,5.03185 0.49739,1.50084 1.03026,2.98828 1.61801,4.45594 0.26797,0.67924 0.6182,1.32122 0.90188,1.99287 0.0997,0.22957 0.16418,0.47147 0.22998,0.71217 0.26051,1.02173 -1.18444,1.39014 -1.44494,0.36841 v 0 c -0.0435,-0.19017 -0.0926,-0.37845 -0.16664,-0.55966 -0.22431,-0.69739 -0.51726,-1.37269 -0.71924,-2.0783 -0.49295,-1.50605 -0.95369,-3.02254 -1.47384,-4.51961 -0.60769,-1.70248 -1.31501,-3.36586 -1.91102,-5.07209 -0.23307,-0.77057 -0.34455,-1.1049 -0.54022,-1.89386 -0.34316,-1.38362 -0.581,-2.78947 -0.80993,-4.1955 -0.29813,-1.7011 -0.62569,-3.39565 -0.95617,-5.09043 -0.18678,-1.13899 -0.33806,-2.28478 -0.32495,-3.44199 0.0165,-0.75882 0.0446,-1.51713 0.14044,-2.27086 0.23404,-1.05316 1.72343,-0.72218 1.4894,0.33098 z"
       inkscape:connector-curvature="0" />
    <path
       style="fill:#ff0000;stroke-width:0.26458332"
       id="path845"
       d="m 258.1401,215.70652 c 0.28243,-0.96491 0.53276,-1.93974 0.78969,-2.91196 0.38357,-1.24573 0.66941,-2.51491 0.84559,-3.80582 0.081,-0.90151 0.20635,-1.83019 0.0193,-2.7267 -0.0103,-0.11779 -0.25209,-0.75311 -0.10515,-0.8394 1.15086,-0.67582 0.99508,-0.66724 1.5206,-0.15159 0.24354,0.38333 0.50065,0.75743 0.7559,1.13301 0.66251,0.96908 1.40293,1.88174 2.14759,2.78812 0.68153,0.8198 1.38564,1.62369 2.17897,2.33814 0.41746,0.37595 0.61386,0.52151 1.04688,0.86543 0.67783,0.5649 -0.12105,1.52349 -0.79889,0.95859 v 0 c -1.19763,-1.04383 -2.30007,-2.18151 -3.33778,-3.38477 -0.79485,-0.89678 -1.59978,-1.78502 -2.37657,-2.69755 -0.27767,-0.328 -0.54613,-0.66396 -0.79497,-1.01447 0.54229,0.36954 1.26074,-0.0331 1.17973,-0.66863 -0.004,-0.0306 -0.008,0.0613 -0.009,0.0922 -0.005,0.16628 0.0114,0.24283 0.0305,0.42791 0.0391,1.02404 -0.0921,2.04378 -0.21336,3.05887 -0.20111,1.33029 -0.48119,2.64392 -0.84979,3.93854 -0.22629,0.94652 -0.47693,1.89556 -0.54441,2.87002 -0.1909,1.04993 -1.67571,0.77996 -1.48482,-0.26996 z"
       inkscape:connector-curvature="0" />
    <path
       style="fill:#ff0000;stroke-width:0.26458332"
       id="path847"
       d="m 250.46097,276.61628 c 0.724,1.00292 1.64721,1.84553 2.56563,2.66647 1.01727,0.91733 2.07956,1.78369 3.17954,2.59963 0.26505,0.17295 0.51192,0.42245 0.82013,0.52654 0.0182,0.006 0.0767,-0.002 0.0576,-0.005 -0.21259,-0.0275 -0.42615,-0.0469 -0.63922,-0.0704 1.03131,-0.43355 1.64445,1.02496 0.61313,1.45851 v 0 c -0.23805,-0.013 -0.47974,0.005 -0.71414,-0.0389 -0.0652,-0.0121 -0.10595,-0.08 -0.15685,-0.1226 -0.27766,-0.23229 -0.53791,-0.48533 -0.81118,-0.72259 -1.04025,-0.91736 -2.10002,-1.81232 -3.13938,-2.73074 -0.96871,-0.8463 -1.91756,-1.71421 -2.88271,-2.5643 -0.70479,-0.7831 0.40268,-1.77983 1.10747,-0.99673 z"
       inkscape:connector-curvature="0" />
    <path
       style="fill:#ff0000;stroke-width:0.26458332"
       id="path849"
       d="m 247.91763,275.90733 c -0.0787,-0.56057 -0.20566,-1.15934 0.17627,-1.6519 0.10051,-0.12963 0.24675,-0.21621 0.37012,-0.32431 0.13622,-0.059 0.26766,-0.13044 0.40864,-0.17685 0.62082,-0.20437 1.50679,-0.16811 2.15629,-0.14652 1.20472,0.0587 2.34638,0.45096 3.46057,0.88252 1.0377,0.41896 2.03053,0.94064 2.98036,1.53062 0.48147,0.31276 0.96284,0.62536 1.42578,0.96514 0.81589,0.63741 -0.0856,1.79125 -0.90144,1.15384 v 0 c -0.41169,-0.34517 -0.84307,-0.66411 -1.27891,-0.97809 -0.83518,-0.59349 -1.74013,-1.08175 -2.68719,-1.47289 -0.9721,-0.37165 -1.97033,-0.70944 -3.0238,-0.71355 -0.55886,5e-5 -1.12165,0.0172 -1.6659,0.15666 0.005,-0.0316 0.0226,-0.12212 -2.1e-4,-0.14729 -0.008,-0.009 -0.0584,0.0194 -0.0403,0.16679 0.009,0.0765 0.0298,0.15128 0.0489,0.22591 0.0172,0.0671 0.0401,0.13263 0.0602,0.19895 0.23403,1.05316 -1.25536,1.38413 -1.48939,0.33097 z"
       inkscape:connector-curvature="0" />
    <path
       style="fill:#ff0000;stroke-width:0.26458332"
       id="path851"
       d="m 252.49827,277.78846 c 0.0983,-0.67648 0.25615,-1.33651 0.47336,-1.98416 0.15897,-0.41363 0.084,-0.21659 0.22516,-0.59097 0.37703,-0.9535 1.72548,-0.4203 1.34845,0.5332 v 0 c -0.14756,0.35702 -0.074,0.18387 -0.22014,0.51968 -0.1881,0.53973 -0.34757,1.09507 -0.31565,1.67336 -0.10686,1.06856 -1.61803,0.91745 -1.51118,-0.15111 z"
       inkscape:connector-curvature="0" />
    <path
       style="fill:#ff0000;stroke-width:0.26458332"
       id="path853"
       d="m 251.97018,269.65363 c 0.84767,0.55335 1.73162,1.04963 2.60262,1.56523 1.15175,0.67776 2.31899,1.31847 3.54936,1.84144 0.38345,0.12792 0.76416,0.32042 1.17762,0.32611 0.17563,0.002 0.16152,0.0216 0.15758,-0.0691 1.04792,-0.19544 1.32431,1.28655 0.27639,1.48199 v 0 c -0.11978,0.007 -0.23948,0.0272 -0.35935,0.0217 -0.63492,-0.029 -1.21056,-0.3609 -1.78713,-0.58776 -0.26169,-0.12728 -0.90698,-0.43925 -1.15189,-0.56648 -0.83617,-0.43441 -1.63575,-0.9359 -2.4761,-1.36271 -0.86903,-0.4683 -1.74102,-0.94972 -2.67246,-1.28369 -0.96642,-0.48321 -0.28306,-1.84994 0.68336,-1.36673 z"
       inkscape:connector-curvature="0" />
    <path
       style="fill:#ff0000;stroke-width:0.26458332"
       id="path855"
       d="m 251.3091,270.549 c -0.27443,-0.57681 -0.5012,-1.20751 -0.30409,-1.84918 0.0464,-0.15119 0.12887,-0.28889 0.1933,-0.43333 0.58899,-0.8743 1.37175,-1.14339 2.37096,-1.27927 0.7751,-0.0263 1.53654,0.2157 2.09737,0.76855 0.11308,0.11148 0.20528,0.24232 0.30792,0.36348 0.47844,0.68798 0.64506,1.50053 0.75866,2.31416 0.0106,0.0963 0.0213,0.19263 0.0319,0.28894 0.079,1.03191 -1.38036,1.1436 -1.45934,0.11169 v 0 c -0.003,-0.0798 -0.006,-0.15955 -0.009,-0.23932 -0.0433,-0.55115 -0.12545,-1.11073 -0.4321,-1.58437 -0.26694,-0.37651 -0.65343,-0.60666 -1.12168,-0.62128 -0.45157,0.0473 -0.93843,0.14455 -1.24528,0.50875 -0.20887,0.32277 -0.12253,0.54066 0.1032,0.84351 0.57111,0.91378 -0.72117,1.72145 -1.29228,0.80767 z"
       inkscape:connector-curvature="0" />
    <path
       style="fill:#ff0000;stroke-width:0.26458332"
       id="path857"
       d="m 254.46933,262.65719 c 0.79173,0.70904 1.71702,1.24926 2.63955,1.76793 1.25035,0.71084 2.52483,1.37512 3.84504,1.94634 0.64625,0.27965 1.31311,0.50144 2.00748,0.61777 0.94953,0.24023 0.60978,1.58306 -0.33974,1.34283 v 0 c -0.73668,-0.23939 -1.4622,-0.5135 -2.16522,-0.84002 -1.33958,-0.60921 -2.64973,-1.2764 -3.94523,-1.97437 -0.97008,-0.5169 -1.91285,-1.08175 -2.88071,-1.60223 -0.88972,-0.59314 -0.0509,-1.85139 0.83883,-1.25825 z"
       inkscape:connector-curvature="0" />
    <path
       style="fill:#ff0000;stroke-width:0.26458332"
       id="path859"
       d="m 253.66867,263.28421 c 0.33485,-0.62856 0.61498,-1.28651 0.84059,-1.96169 0.1194,-0.38463 0.23492,-0.77038 0.3546,-1.15492 0.29506,-0.93927 1.62338,-0.522 1.32832,0.41727 v 0 c -0.12407,0.39129 -0.25137,0.7816 -0.36809,1.17518 -0.2328,0.70204 -0.52552,1.38196 -0.75098,2.08593 -0.39724,0.99309 -1.80167,0.43131 -1.40444,-0.56177 z"
       inkscape:connector-curvature="0" />
    <path
       style="fill:#ff0000;stroke-width:0.26458332"
       id="path861"
       d="m 255.98259,256.15931 c 0.64557,0.52829 1.36685,0.96339 2.09861,1.36142 0.64752,0.33822 1.35515,0.60223 2.09324,0.60201 0.067,-0.0157 0.13687,-0.0221 0.20091,-0.0473 0.26449,-0.10383 0.3726,-0.59298 0.43841,-0.82196 0.11481,-0.66702 0.0328,-1.09625 -0.42532,-1.59997 -0.46105,-0.40199 -1.0327,-0.69179 -1.63526,-0.80518 -0.004,0.014 -0.0271,0.0415 -0.0124,0.0422 0.4117,0.0191 0.48677,-0.0491 0.71012,-0.49531 0.0387,-0.0773 -0.0327,-0.17608 -0.009,-0.2592 0.01,-0.0335 0.0367,0.0593 0.0583,0.0867 0.0453,0.0576 0.0947,0.11197 0.14202,0.16795 0.54839,0.62907 1.22433,1.11518 1.92398,1.55968 0.88171,0.52861 1.81582,0.96387 2.72727,1.4385 0.9178,0.47876 1.85218,0.91956 2.70593,1.50859 0.59153,0.45615 1.1466,1.01867 1.44889,1.71499 0.0557,0.12839 0.0919,0.26442 0.13782,0.39664 0.20556,0.7339 0.0308,1.43772 -0.23752,2.12562 -0.23706,0.53754 -0.61158,1.01995 -1.24153,1.08262 -0.12276,0.0122 -0.24638,-0.0139 -0.36954,-0.0208 -0.12983,-0.0508 -0.25966,-0.10161 -0.38949,-0.15241 -0.95234,-0.49898 -0.24667,-1.84576 0.70564,-1.34679 v 0 c -0.0369,-0.002 -0.0738,-0.004 -0.11075,-0.006 -0.0347,0.0142 -0.18804,0.0788 -0.16574,0.13763 0.028,0.0738 0.21781,-0.26413 0.22058,-0.24509 0.15973,-0.3658 0.28319,-0.7517 0.20828,-1.15433 -0.12477,-0.587 -0.54258,-1.04498 -0.99184,-1.42034 -0.78835,-0.57363 -1.66512,-0.99484 -2.52598,-1.44698 -0.94904,-0.48521 -1.91496,-0.94044 -2.83859,-1.47293 -0.80434,-0.50197 -1.57137,-1.05628 -2.25917,-1.71233 -0.27731,-0.27941 -0.75828,-0.70445 -0.67218,-1.16632 0.11507,-0.61732 0.3979,-0.78582 0.92843,-0.82804 0.11287,-0.009 0.22209,0.0443 0.33313,0.0664 0.82352,0.31896 1.64485,0.67919 2.27609,1.31766 0.11392,0.14325 0.24228,0.27612 0.34176,0.42976 0.47504,0.73364 0.52683,1.61732 0.35523,2.45144 -0.26488,0.8879 -0.5782,1.61976 -1.58211,1.8421 -0.1501,0.0333 -0.30608,0.0293 -0.45912,0.044 -0.15458,-0.0108 -0.31026,-0.011 -0.46374,-0.0323 -0.78064,-0.10839 -1.5226,-0.44198 -2.21559,-0.79865 -0.79743,-0.44151 -1.56525,-0.93421 -2.37513,-1.35351 -0.8413,-0.65435 0.0841,-1.84413 0.92539,-1.18979 z"
       inkscape:connector-curvature="0" />
    <path
       style="fill:#ff0000;stroke-width:0.26458332"
       id="path863"
       d="m 262.22679,251.36996 c 0.54748,0.71848 1.34728,1.21726 2.07711,1.7329 1.12657,0.81238 2.25349,1.62572 3.42882,2.36661 0.37298,0.19317 0.74403,0.43151 1.15393,0.54488 0.0566,0.0156 0.11713,0.0226 0.17544,0.0158 0.0167,-0.002 0.0477,-0.0351 0.0314,-0.0398 -0.0682,-0.0195 -0.14155,-0.008 -0.2123,-0.0119 1.02619,-0.37579 1.55763,1.07546 0.53144,1.45125 v 0 c -0.13962,0.0213 -0.2776,0.0638 -0.41881,0.0638 -0.63256,-2.6e-4 -1.44626,-0.65961 -1.96712,-0.95951 -1.14268,-0.79456 -2.25658,-1.63044 -3.42142,-2.39327 -0.89479,-0.57409 -1.81569,-1.12774 -2.59382,-1.85934 -0.64451,-0.85935 0.57079,-1.77082 1.2153,-0.91147 z"
       inkscape:connector-curvature="0" />
    <path
       style="fill:#ff0000;stroke-width:0.26458332"
       id="path865"
       d="m 259.93066,250.12004 c 0.95106,-0.0968 1.89811,-0.0407 2.84408,0.0735 0.78626,0.13671 1.574,0.26113 2.37012,0.32141 0.23682,-0.007 0.12991,-0.0747 0.0366,-0.0353 -0.15242,0.0643 -0.23473,0.13527 -0.29779,0.27417 -0.052,-0.46305 -0.28961,-0.86365 -0.52563,-1.25492 -0.3795,-0.62354 -0.86948,-1.16851 -1.4,-1.66636 -0.24606,-0.23204 -0.70186,-0.61254 -0.41232,-1.04226 0.19698,-0.29235 0.58582,-0.41548 0.92433,-0.51386 0.10116,-0.0294 0.53219,0.24591 0.62422,0.30062 0.7979,0.50515 1.62618,0.95829 2.45543,1.40907 0.95436,0.54504 1.95779,0.99004 2.98998,1.36352 0.76562,0.21875 1.63137,0.57384 2.43843,0.53562 1.02534,0.0795 0.91286,1.52958 -0.11248,1.45005 v 0 c -0.94882,-0.1448 -1.86076,-0.47033 -2.77331,-0.75793 -1.08939,-0.39949 -2.14984,-0.87006 -3.16468,-1.43492 -0.81817,-0.43548 -1.6448,-0.85654 -2.4825,-1.25315 -0.55776,-0.20353 0.1958,0.14534 0.60055,-0.59741 0.22867,-0.41963 -0.37075,-0.91266 -0.0306,-0.4588 0.52985,0.61911 1.05419,1.24551 1.51491,1.91866 0.42524,0.63985 0.82362,1.32119 0.86749,2.10743 -0.0385,0.28412 -0.0206,0.4719 -0.20963,0.70492 -0.32541,0.40152 -0.75178,0.48125 -1.23452,0.40303 -0.78101,-0.14307 -1.55338,-0.33069 -2.33835,-0.45299 -0.79455,-0.0963 -1.61247,-0.15836 -2.38671,0.0939 -1.05217,0.21044 -1.34976,-1.27755 -0.2976,-1.48799 z"
       inkscape:connector-curvature="0" />
    <path
       style="fill:#ff0000;stroke-width:0.26458332"
       id="path867"
       d="m 265.24259,243.36404 c 0.82892,0.61616 1.63933,1.25521 2.4415,1.90585 0.96118,0.81516 1.97567,1.55626 3.06625,2.18752 0.59677,0.29875 1.21529,0.56874 1.86299,0.73585 0.18314,0.0255 0.37597,0.0838 0.56338,0.0691 0.007,-5.3e-4 0.0206,-0.0161 0.0135,-0.0165 -0.0446,-0.003 -0.0891,0.006 -0.13372,0.009 -0.0589,0.0314 -0.11491,0.0691 -0.17674,0.0944 -0.007,0.003 0,-0.016 0.003,-0.0234 0.014,-0.0424 0.0333,-0.083 0.0463,-0.12567 0.0715,-0.23451 0.098,-0.47381 0.12535,-0.71644 0.0101,-0.39389 0.0978,-0.81062 -0.0225,-1.19463 -0.17521,-1.03886 1.29397,-1.28662 1.46915,-0.24777 v 0 c 0.0592,0.53047 0.0251,1.05929 -0.0196,1.59045 -0.0489,0.50628 -0.10623,1.30792 -0.44792,1.7133 -0.10572,0.12543 -0.24841,0.21429 -0.37263,0.32143 -0.12333,0.0368 -0.24332,0.0876 -0.37,0.11047 -0.3692,0.0665 -0.76872,-0.0988 -1.11948,-0.17869 -0.7367,-0.26249 -1.43219,-0.62779 -2.10394,-1.02646 -1.09958,-0.70791 -2.14436,-1.49303 -3.16468,-2.31059 -0.75877,-0.57965 -1.52363,-1.17256 -2.39719,-1.57154 -0.93746,-0.52082 -0.20092,-1.84659 0.73654,-1.32578 z"
       inkscape:connector-curvature="0" />
    <path
       style="fill:#ff0000;stroke-width:0.26458332"
       id="path869"
       d="m 268.15655,246.90937 c 0.28657,-0.46424 0.51906,-0.96172 0.71803,-1.46924 0.0719,-0.15236 0.0768,-0.30493 0.0841,-0.46815 0.11806,-1.05013 1.60316,-0.88319 1.4851,0.16694 v 0 c -0.0436,0.29813 -0.0953,0.59403 -0.22254,0.87062 -0.24545,0.54591 -0.52501,1.07692 -0.73887,1.63637 -0.52083,0.93747 -1.84661,0.20092 -1.32578,-0.73654 z"
       inkscape:connector-curvature="0" />
    <path
       style="fill:#ff0000;stroke-width:0.26458332"
       id="path871"
       d="m 263.8682,243.98423 c 0.36181,-0.55675 0.63892,-1.16129 0.89857,-1.77049 0.1874,-0.44763 0.41018,-0.8789 0.61441,-1.3187 0.46569,-0.9302 1.7812,-0.27161 1.31551,0.65859 v 0 c -0.22016,0.41101 -0.43146,0.82581 -0.62455,1.25046 -0.29398,0.61369 -0.60502,1.22161 -0.8541,1.85506 -0.47723,0.95447 -1.82707,0.27956 -1.34984,-0.67492 z"
       inkscape:connector-curvature="0" />
    <path
       style="fill:#ff0000;stroke-width:0.26458332"
       id="path873"
       d="m 268.44545,238.99156 c 0.98253,0.42322 2.00049,0.75935 3.01181,1.10625 1.08365,0.40145 2.17929,0.76788 3.30237,1.04187 0.45262,0.0932 0.23717,0.0535 0.64587,0.12163 0.99071,0.2284 0.66771,1.62945 -0.323,1.40105 v 0 c -0.44985,-0.12943 -0.21585,-0.059 -0.70146,-0.21282 -1.11371,-0.37065 -2.21756,-0.76797 -3.32418,-1.15893 -0.98882,-0.32455 -1.984,-0.65046 -3.00799,-0.84488 -1.02825,-0.28043 -0.63167,-1.73461 0.39658,-1.45417 z"
       inkscape:connector-curvature="0" />
    <path
       style="fill:#ff0000;stroke-width:0.26458332"
       id="path875"
       d="m 271.08435,239.50167 c 0.43167,-0.20675 0.75634,-0.51978 1.0508,-0.88706 0.09,-0.12279 0.14224,-0.26203 0.18991,-0.40464 0.40056,-0.97889 1.78491,-0.41244 1.38438,0.56646 v 0 c -0.12205,0.27304 -0.25119,0.54078 -0.441,0.77534 -0.38672,0.45656 -0.78912,0.81424 -1.27262,1.1652 -0.85934,0.64451 -1.77083,-0.57079 -0.91147,-1.2153 z"
       inkscape:connector-curvature="0" />
    <path
       style="fill:#ff0000;stroke-width:0.26458332"
       id="path877"
       d="m 271.12253,234.14324 c 0.6554,0.48445 1.36332,0.89419 2.05452,1.32502 1.01883,0.64824 2.00499,1.34151 3.05779,1.93471 0.16372,0.0757 0.9657,0.52361 1.16036,0.38584 0.0183,-0.0128 -0.0322,-0.0306 -0.0483,-0.046 1.04153,-0.20485 1.33125,1.2681 0.28972,1.47296 v 0 c -0.1429,0.01 -0.28578,0.0381 -0.42868,0.0289 -0.60603,-0.0393 -1.12697,-0.44719 -1.64063,-0.71991 -1.01923,-0.63821 -2.01469,-1.31529 -3.05972,-1.91111 -0.70485,-0.38557 -1.39591,-0.799 -2.12161,-1.14465 -0.93748,-0.52081 -0.20093,-1.84658 0.73654,-1.32577 z"
       inkscape:connector-curvature="0" />
    <path
       style="fill:#ff0000;stroke-width:0.26458332"
       id="path879"
       d="m 272.14904,229.69683 c 0.77306,0.49582 1.5926,0.91631 2.39379,1.36499 0.94424,0.57054 1.90021,1.11902 2.89525,1.596 0.13822,0.0356 0.53618,0.28319 0.70901,0.21529 0.0161,-0.006 -0.0135,-0.0405 -0.0308,-0.0416 -0.0874,-0.005 -0.18536,-0.0196 -0.26159,0.0234 -0.13965,0.0789 -0.23667,0.21653 -0.35499,0.3248 0.4322,-1.01671 1.87005,-0.40548 1.43785,0.61123 v 0 c -0.13869,0.15614 -0.24304,0.35146 -0.41606,0.46843 -0.49807,0.33678 -1.28026,-0.16807 -1.71164,-0.39058 -0.97062,-0.54095 -1.91511,-1.12698 -2.88568,-1.66796 -0.79883,-0.42038 -1.60506,-0.83744 -2.45848,-1.13726 -0.96642,-0.48321 -0.28305,-1.84994 0.68337,-1.36673 z"
       inkscape:connector-curvature="0" />
    <path
       style="fill:#ff0000;stroke-width:0.26458332"
       id="path881"
       d="m 269.57874,230.26455 c 0.48141,-0.77009 0.89591,-1.57945 1.32654,-2.37839 0.26488,-0.46182 0.49128,-0.94218 0.7053,-1.42893 0.40839,-0.855 1.61753,-0.27745 1.20915,0.57755 v 0 c -0.25085,0.48759 -0.50014,0.97599 -0.752,1.46306 -0.39944,0.778 -0.81113,1.55665 -1.09961,2.3842 -0.43664,0.98243 -1.82602,0.36494 -1.38938,-0.61749 z"
       inkscape:connector-curvature="0" />
    <path
       style="fill:#ff0000;stroke-width:0.26458332"
       id="path883"
       d="m 268.65463,232.11848 c 0.32912,-0.48838 0.53544,-1.04598 0.72504,-1.60002 0.18902,-0.52271 0.33488,-1.06148 0.56877,-1.56665 0.0238,-0.0481 0.0475,-0.0962 0.0712,-0.14425 0.51576,-0.94624 1.85394,-0.21684 1.33819,0.7294 v 0 c -0.0243,0.04 -0.0486,0.08 -0.0729,0.12008 -0.27424,0.39947 -0.37681,0.89398 -0.55805,1.33677 -0.2203,0.60852 -0.46056,1.20939 -0.70554,1.80804 -0.48321,0.96642 -1.84994,0.28306 -1.36671,-0.68337 z"
       inkscape:connector-curvature="0" />
  </g>
</svg>
