<?xml version="1.0" encoding="UTF-8" standalone="no"?>
<!-- Created with Inkscape (http://www.inkscape.org/) -->

<svg
   xmlns:dc="http://purl.org/dc/elements/1.1/"
   xmlns:cc="http://creativecommons.org/ns#"
   xmlns:rdf="http://www.w3.org/1999/02/22-rdf-syntax-ns#"
   xmlns:svg="http://www.w3.org/2000/svg"
   xmlns="http://www.w3.org/2000/svg"
   xmlns:sodipodi="http://sodipodi.sourceforge.net/DTD/sodipodi-0.dtd"
   xmlns:inkscape="http://www.inkscape.org/namespaces/inkscape"
   width="297mm"
   height="210mm"
   viewBox="0 0 297 210"
   version="1.1"
   id="svg4429"
   inkscape:version="0.92.1 r15371"
   sodipodi:docname="function.svg">
  <defs
     id="defs4423" />
  <sodipodi:namedview
     id="base"
     pagecolor="#ffffff"
     bordercolor="#666666"
     borderopacity="1.0"
     inkscape:pageopacity="0.0"
     inkscape:pageshadow="2"
     inkscape:zoom="0.7"
     inkscape:cx="503.1068"
     inkscape:cy="250.11858"
     inkscape:document-units="mm"
     inkscape:current-layer="layer1"
     showgrid="false"
     inkscape:window-width="1920"
     inkscape:window-height="1001"
     inkscape:window-x="-9"
     inkscape:window-y="-9"
     inkscape:window-maximized="1" />
  <metadata
     id="metadata4426">
    <rdf:RDF>
      <cc:Work
         rdf:about="">
        <dc:format>image/svg+xml</dc:format>
        <dc:type
           rdf:resource="http://purl.org/dc/dcmitype/StillImage" />
        <dc:title></dc:title>
      </cc:Work>
    </rdf:RDF>
  </metadata>
  <g
     inkscape:label="Layer 1"
     inkscape:groupmode="layer"
     id="layer1"
     transform="translate(0,-87)">
    <path
       style="fill:#000000;stroke-width:0.26458332"
       id="path4433"
       d="m 17.721416,140.33151 c -1.44655,0.97753 -2.614597,2.28949 -3.647976,3.68179 -1.311905,1.738 -2.201264,3.73745 -3.110564,5.70281 -0.942841,2.21828 -1.795105,4.48329 -2.479232,6.79519 -0.720214,2.34015 -1.063634,4.76292 -1.409957,7.17854 -0.333558,2.33564 -0.413095,4.69482 -0.49385,7.04939 0.003,2.45703 0.223883,4.90576 0.595204,7.33264 0.36474,2.42134 1.158477,4.72736 2.003145,7.01367 0.938633,2.45196 1.833131,4.92033 2.745931,7.38194 0.993402,2.52256 2.085513,4.9897 3.535129,7.28366 1.678023,2.69211 3.654061,5.17297 5.738652,7.55719 2.002912,2.34026 4.380045,4.30645 6.710823,6.30453 1.27848,1.09351 0.664462,0.56238 1.843249,1.592 1.701988,1.58972 -0.546206,3.99669 -2.248194,2.40698 v 0 c -1.05501,-1.05675 -0.502753,-0.51454 -1.659239,-1.62413 -2.408536,-2.1218 -4.831529,-4.24171 -6.919872,-6.69025 -2.189311,-2.5001 -4.331942,-5.05153 -6.115874,-7.86398 -1.574588,-2.47118 -2.793921,-5.11527 -3.856937,-7.84465 -0.943686,-2.46035 -1.838754,-4.93928 -2.809128,-7.38933 -0.90875,-2.4924 -1.749077,-5.00894 -2.124094,-7.64755 -0.395811,-2.61671 -0.687665,-5.25532 -0.703968,-7.90482 0.05539,-2.47469 0.247247,-4.94194 0.586433,-7.39484 0.34231,-2.58326 0.714877,-5.17208 1.477414,-7.67171 0.743464,-2.45256 1.665288,-4.84698 2.630231,-7.22032 0.994667,-2.18394 1.970934,-4.39792 3.408165,-6.33666 1.243846,-1.64816 2.637303,-3.15615 4.156134,-4.55659 2.025508,-1.51913 4.173882,1.34537 2.148375,2.8645 z"
       inkscape:connector-curvature="0" />
    <path
       style="fill:#000000;stroke-width:0.26458332"
       id="path4435"
       d="m 34.676072,149.46472 c 1.506977,-1.07923 3.059332,-2.0744 4.711269,-2.91554 1.556861,-0.76197 3.240339,-1.13466 4.954193,-1.30165 1.64378,-0.21641 2.952856,0.21356 4.323535,1.08454 1.402781,1.00457 2.174245,2.54555 2.805068,4.10351 0.629102,1.66172 1.066485,3.38612 1.457975,5.11655 0.389568,1.7488 0.667658,3.50918 0.800021,5.29567 0.104664,1.95487 0.1162,3.91287 0.109889,5.86999 0.01299,2.04373 -0.02275,4.08731 -0.01392,6.13102 -0.06002,1.96886 0.129194,3.92952 0.23158,5.8932 0.09849,1.92942 0.150381,3.86179 0.169449,5.79357 -0.03055,1.74213 0.211437,3.46394 0.516851,5.17357 0.327403,1.79189 0.84428,3.53945 1.403572,5.27028 0.588653,1.63884 1.22297,3.26722 2.073172,4.78925 0.550243,0.87299 1.12682,1.77363 1.961864,2.40684 0.377044,0.2859 0.876607,0.51622 1.290606,0.7286 1.992476,0.82411 4.176577,0.89713 6.301068,1.00235 0.388342,-0.0117 0.776684,-0.0233 1.165026,-0.035 2.283632,-0.0272 2.322084,3.20235 0.03845,3.22954 v 0 c -0.444069,-0.002 -0.888138,-0.004 -1.332206,-0.005 -2.603341,-0.0828 -5.275702,-0.16809 -7.7031,-1.21744 -0.894094,-0.46121 -1.241423,-0.5853 -2.037898,-1.22094 -1.110779,-0.88648 -1.92491,-2.07893 -2.654673,-3.28034 -0.9066,-1.71964 -1.686187,-3.49993 -2.308241,-5.34348 -0.626941,-1.87685 -1.103664,-3.79608 -1.49479,-5.7357 -0.338286,-1.8958 -0.683395,-3.79752 -0.602702,-5.73414 -0.01262,-1.87823 -0.01249,-3.75696 -0.12096,-5.63307 -0.123851,-2.02662 -0.287004,-4.05246 -0.219289,-6.0848 0.01249,-2.03937 -0.01553,-4.07868 -0.0061,-6.11808 -0.0173,-1.86907 -0.01,-3.74087 -0.145299,-5.60615 -0.144409,-1.62274 -0.399772,-3.22448 -0.736105,-4.81889 -0.350073,-1.54346 -0.751054,-3.08483 -1.322239,-4.56249 -0.373856,-0.89148 -0.823188,-1.84345 -1.576874,-2.47309 -0.607309,-0.4576 -1.308913,-0.61958 -2.063761,-0.53959 -1.285367,0.10067 -2.563831,0.28798 -3.742806,0.84539 -1.407221,0.69823 -2.779797,1.49378 -3.892339,2.62221 -1.930693,1.65488 -4.271047,-1.07553 -2.340353,-2.73041 z"
       inkscape:connector-curvature="0" />
    <path
       style="fill:#000000;stroke-width:0.26458332"
       id="path4443"
       d="m 51.952546,178.25953 c -1.033232,0.0644 -2.049542,0.33162 -2.973054,0.79889 -0.727768,0.4145 -1.353965,0.95626 -1.95154,1.53666 -0.705676,0.69229 -1.389719,1.39947 -2.010042,2.16877 -0.556477,0.71353 -0.933366,1.55065 -1.263748,2.38798 -0.39315,0.80796 -0.598414,1.6606 -0.708221,2.54555 -0.197956,1.04682 -0.335844,2.09968 -0.395293,3.16314 -0.02955,0.87013 -0.03818,1.74109 -0.04341,2.61168 -0.09755,1.12291 -0.248502,2.23897 -0.458718,3.34602 -0.161034,0.95357 -0.457235,1.87753 -0.72366,2.80514 -0.305395,1.04756 -0.772226,2.02619 -1.330888,2.95965 -0.46844,0.85012 -1.197819,1.50015 -1.934887,2.11214 -0.809009,0.65713 -1.750346,1.11345 -2.667773,1.59505 -0.880988,0.4535 -1.850866,0.59054 -2.825901,0.65328 -0.966737,0.0858 -1.920356,-0.0776 -2.85043,-0.32632 -0.927346,-0.25722 -1.656408,-0.8217 -2.300658,-1.51242 -0.420055,-0.46515 -0.841142,-0.92807 -1.244412,-1.40785 -1.610913,-1.95157 1.149035,-4.22975 2.759945,-2.27817 v 0 c 0.334262,0.41765 0.720667,0.78641 1.094259,1.16873 0.248925,0.24461 0.427604,0.47371 0.765783,0.56613 0.441955,0.24533 1.06539,0.17586 1.548659,0.17837 0.487556,-0.0295 0.982097,-0.0614 1.435624,-0.26034 0.705745,-0.33497 1.428293,-0.64398 2.01798,-1.17013 0.449506,-0.34697 0.862407,-0.77388 1.168448,-1.25165 0.439131,-0.59692 0.688506,-1.30707 0.928134,-2.00126 0.234572,-0.83639 0.488977,-1.67012 0.669102,-2.5194 0.18147,-0.88084 0.286798,-1.77202 0.370861,-2.6674 -7.9e-5,-0.94917 0.0013,-1.89859 0.08273,-2.84534 0.08978,-1.11723 0.205017,-2.23206 0.410866,-3.33482 0.136194,-1.19501 0.423865,-2.34457 0.946036,-3.4344 0.468458,-1.1751 1.016037,-2.33148 1.792827,-3.33793 0.714359,-0.86315 1.500312,-1.65879 2.290805,-2.45209 0.882782,-0.86436 1.824379,-1.65612 2.937066,-2.21352 1.301416,-0.57401 2.679205,-0.86526 4.066024,-1.16156 2.529617,-0.28107 2.927109,3.29635 0.397491,3.57742 z"
       inkscape:connector-curvature="0" />
    <path
       style="fill:#000000;stroke-width:0.26458332"
       id="path4445"
       d="m 76.285513,187.48524 c 1.577329,-0.63735 3.21605,-1.02332 4.896982,-1.25172 1.832459,-0.27282 3.657764,-0.0621 5.460535,0.29018 1.940943,0.4046 3.333136,1.22566 4.704389,2.6315 1.29315,1.44813 2.00038,3.2088 2.46817,5.06515 0.38731,2.04955 0.42342,4.14521 0.47881,6.22453 -0.0103,1.36981 -0.1316,2.78373 -0.83635,3.99658 -0.45449,0.78216 -0.81455,1.07435 -1.43387,1.70817 -1.84044,1.60054 -4.168286,2.21166 -6.516503,2.60469 -1.512165,0.21391 -3.08611,0.30856 -4.595992,0.003 -0.922859,-0.18657 -1.193557,-0.34359 -2.039329,-0.69299 -0.949169,-0.46936 -0.490485,-0.21365 -1.377093,-0.76528 -2.054505,-1.40669 -0.06514,-4.3122 1.989365,-2.90551 v 0 c 0.460126,0.37668 0.193818,0.18473 0.815615,0.55193 1.440379,0.78289 3.064965,0.79386 4.660255,0.55709 1.647637,-0.27913 3.329614,-0.66148 4.649268,-1.75219 1.067154,-1.04283 1.308614,-1.71625 1.317164,-3.25084 -0.01,-1.81972 -0.0247,-3.6544 -0.40027,-5.44322 -0.32897,-1.27761 -0.803239,-2.50193 -1.683325,-3.50966 -0.789157,-0.85817 -1.718033,-1.41934 -2.869658,-1.67284 -1.43705,-0.295 -2.874862,-0.47327 -4.338177,-0.23766 -1.29209,0.1676 -2.599021,0.40202 -3.739282,1.0702 -2.27788,1.13894 -3.888587,-2.08247 -1.610704,-3.22141 z"
       inkscape:connector-curvature="0" />
    <path
       style="fill:#000000;stroke-width:0.26458332"
       id="path4447"
       d="m 107.42125,192.32765 c -1.03449,-0.81064 -2.24686,-1.37365 -3.5016,-1.74788 -0.889,-0.26214 -1.802,-0.59261 -2.74158,-0.56045 -1.0951,0.0361 -2.172811,0.29677 -3.216081,0.61813 -0.7114,0.25466 -1.35475,0.63954 -1.80071,1.25732 -0.45054,0.58258 -0.64046,1.32987 -0.80076,2.03837 -0.1914,0.9698 -0.20872,1.95988 -0.23537,2.94438 0.0366,0.88667 0.42809,1.67777 0.87899,2.42261 0.5457,0.96998 1.2558,1.82653 1.9962,2.65137 0.76298,0.74356 1.58896,1.43922 2.519751,1.962 1.04609,0.43473 2.15892,0.69271 3.27869,0.84774 1.12989,0.14719 2.26387,0.17419 3.39588,0.057 0.79437,-0.0968 1.63523,-0.17805 2.38532,-0.47431 2.4266,-0.72174 3.4473,2.71 1.0207,3.43174 v 0 c -1.01062,0.25787 -2.04497,0.43489 -3.08372,0.53208 -1.41886,0.11825 -2.83591,0.1108 -4.24903,-0.0923 -1.53834,-0.2552 -3.07534,-0.60255 -4.488481,-1.28222 -1.24918,-0.7312 -2.41,-1.60485 -3.42144,-2.64519 -0.8782,-1.00586 -1.70031,-2.05924 -2.38049,-3.21167 -0.7586,-1.31949 -1.38587,-2.71468 -1.38129,-4.26927 0.0166,-1.22911 0.061,-2.46686 0.32531,-3.67181 0.29923,-1.26753 0.64955,-2.54944 1.51877,-3.55965 0.97168,-1.07307 2.13163,-1.87524 3.53343,-2.29297 1.37963,-0.39261 2.78903,-0.74293 4.227321,-0.80893 1.31297,0.0291 2.56724,0.31907 3.79149,0.79906 1.60654,0.5497 3.1021,1.35503 4.57708,2.19035 2.02551,1.51913 -0.12287,4.38363 -2.14838,2.8645 z"
       inkscape:connector-curvature="0" />
    <path
       style="fill:#000000;stroke-width:0.26458332"
       id="path4449"
       d="m 118.86414,207.25668 c 1.11871,0.85757 2.37025,2.45713 1.95087,3.98062 -0.11062,0.40185 -0.36009,0.75182 -0.54013,1.12773 -0.29704,0.22294 -0.53917,0.5502 -0.89111,0.66881 -1.32133,0.44531 -2.50614,-0.14737 -3.13531,-1.32227 -0.38622,-0.7212 -0.35389,-1.10914 -0.43461,-1.88621 0.0727,-1.39847 0.56778,-2.96991 1.96428,-3.59676 0.30741,-0.13799 0.65268,-0.16787 0.97902,-0.25181 0.31465,0.0316 0.64443,-0.007 0.94396,0.0949 1.42908,0.48406 2.09947,1.88404 1.79604,3.31417 -0.0579,0.27273 -0.18801,0.52496 -0.28201,0.78744 -0.60268,1.01389 -1.72599,2.05799 -3.04516,1.63415 -1.05843,-0.34007 -1.12206,-0.69836 -1.59913,-1.4851 -0.4487,-1.1987 -0.40209,-2.61732 0.3661,-3.69116 0.17344,-0.24245 0.40079,-0.44138 0.60118,-0.66207 1.51836,-0.98411 1.83972,-0.69309 3.17692,0.1941 1.83129,1.83399 -0.76236,4.42382 -2.59364,2.58984 v 0 c 0.65472,0.30567 1.22991,0.57884 1.83198,-0.0838 0.15211,-0.40686 -0.0925,-0.0669 -0.12571,0.039 -0.28449,-0.28809 -0.35805,-0.40513 -0.92205,-0.4986 -0.24949,-0.0414 -1.06106,0.0797 -0.99726,0.51579 0.19833,0.58265 0.64129,1.01234 1.30842,0.84808 0.75865,-0.43251 0.24395,-0.5576 0.13079,0.0256 -0.0683,0.39955 -0.43365,-0.0629 -0.75906,-0.0507 -0.80187,0.0299 -0.77404,0.152 -1.2109,0.62778 -0.0444,0.19644 -0.11827,0.38847 -0.13335,0.58931 -0.008,0.10497 0.09,0.17882 0.15309,0.0913 0.17099,-0.23745 -0.33843,-0.47362 -0.43692,-0.55415 -2.15379,-1.34612 -0.25009,-4.39204 1.9037,-3.04592 z"
       inkscape:connector-curvature="0" />
    <path
       style="fill:#000000;stroke-width:0.26458332"
       id="path4451"
       d="m 126.55635,189.37512 c 1.9451,-0.75639 4.00137,-1.05131 6.0764,-1.06859 2.09973,0.15932 3.99816,1.0482 5.45784,2.57239 0.29973,0.31297 0.55457,0.66604 0.83186,0.99906 1.44881,1.88205 2.22249,4.10311 2.66813,6.40811 0.41922,2.27375 0.29923,4.24951 -0.32474,6.46463 -0.69145,1.78419 -1.75087,3.49005 -3.43037,4.49862 -0.34129,0.20495 -0.71634,0.34751 -1.0745,0.52127 -2.55911,0.8199 -5.19307,0.2633 -7.72524,-0.37022 -1.36257,-0.3347 -2.66294,-0.8376 -3.91912,-1.45451 -2.13464,-1.23372 -0.38989,-4.25257 1.74476,-3.01884 v 0 c 0.88835,0.6525 1.9113,1.02789 2.97267,1.3125 1.78897,0.4567 3.66454,0.91681 5.50311,0.46308 1.41996,-0.60196 2.12552,-1.47108 2.70386,-2.90104 0.50272,-1.60125 0.55034,-3.24129 0.26371,-4.89555 -0.32131,-1.75894 -0.84963,-3.47717 -1.93618,-4.92832 -1.01841,-1.26301 -2.08873,-2.11816 -3.7483,-2.32883 -1.53434,-0.0316 -3.09875,0.17562 -4.45319,0.94765 -2.27788,1.13894 -3.88859,-2.08247 -1.6107,-3.22141 z"
       inkscape:connector-curvature="0" />
    <path
       style="fill:#000000;stroke-width:0.26458332"
       id="path4453"
       d="m 152.32369,193.37916 c -1.09381,-0.66341 -2.22963,-0.78675 -3.45888,-0.5479 -1.01625,0.28208 -1.92071,0.76868 -2.65391,1.52439 -0.86898,0.85528 -1.30868,1.95319 -1.628,3.10678 -0.34787,1.30004 -0.10837,2.58442 0.37007,3.81328 0.69281,1.477 1.45288,2.96229 2.4912,4.22872 0.77269,0.88564 1.84448,1.12648 2.97261,1.19686 1.74059,0.0481 3.45193,-0.3772 5.16731,-0.62508 1.23991,-0.15187 0.63418,-0.0802 1.81711,-0.21583 2.40171,-0.22548 2.72059,3.17106 0.31887,3.39654 v 0 c -1.08993,0.0778 -0.53387,0.0289 -1.66795,0.14921 -1.96485,0.26778 -3.91087,0.78053 -5.90743,0.69306 -2.19933,-0.19891 -3.97989,-0.73861 -5.42045,-2.52436 -1.15276,-1.59216 -2.12971,-3.32353 -2.95377,-5.10668 -0.70383,-1.92438 -1.04523,-3.93144 -0.48884,-5.94942 0.50126,-1.71539 1.17871,-3.37316 2.48648,-4.64235 1.30457,-1.25618 2.75694,-2.05611 4.53955,-2.44263 2.0254,-0.29794 3.56851,-0.0785 5.47149,0.67064 2.31561,1.02916 0.86015,4.30393 -1.45546,3.27477 z"
       inkscape:connector-curvature="0" />
    <path
       style="fill:#000000;stroke-width:0.26458332"
       id="path4455"
       d="m 170.7815,191.81868 c 0.0112,2.13469 0.0843,4.26937 0.14699,6.40325 0.004,1.85014 0.089,3.68706 0.29628,5.52495 0.0905,0.63134 0.0991,1.27528 0.26991,1.89249 0.25821,2.57997 -3.39042,2.94514 -3.64863,0.36517 v 0 c 0.0217,-0.6552 -0.0118,-1.30845 -0.0568,-1.96231 -0.11546,-1.91443 -0.16137,-3.82748 -0.13612,-5.74586 -0.0326,-2.04373 -0.0697,-4.1052 -0.4335,-6.1215 -0.25186,-2.51862 3.31001,-2.87481 3.56187,-0.35619 z"
       inkscape:connector-curvature="0" />
    <path
       style="fill:#000000;stroke-width:0.26458332"
       id="path4457"
       d="m 164.29391,197.36845 c 1.42712,0.3225 2.8702,0.26165 4.31557,0.17066 1.07158,-0.0888 2.14326,-0.17218 3.21774,-0.21522 0.55579,-0.0158 0.28056,-0.009 0.8257,-0.0197 2.54998,-0.0296 2.59189,3.57658 0.0419,3.60622 v 0 c -0.51299,0.002 -0.25471,5.3e-4 -0.77483,0.004 -1.04351,0.011 -2.0868,0.036 -3.12934,0.0833 -1.62048,0.0691 -3.23387,0.0107 -4.85294,-0.0675 -2.51862,-0.25186 -2.16243,-3.81373 0.35619,-3.56186 z"
       inkscape:connector-curvature="0" />
    <path
       style="fill:#000000;stroke-width:0.26458332"
       id="path4459"
       d="m 181.21639,198.1111 c 1.37004,-0.73326 2.43764,-1.84383 3.46586,-2.98296 1.14854,-1.38725 2.11564,-2.90954 2.87643,-4.54022 0.5421,-1.1493 0.94562,-2.35937 1.08922,-3.62384 0.20638,-2.35022 1.61878,-0.64755 3.54077,0.8051 0.002,0.001 -0.17545,1.19582 -0.21467,1.59843 -0.16257,1.71878 -0.0718,3.4523 0.0642,5.1698 0.19718,2.23013 0.50177,4.45287 0.90122,6.6557 0.35807,2.01068 0.72401,4.01717 0.99019,6.04246 0.081,0.64225 0.13425,1.2865 0.22053,1.928 0.1451,2.52094 -3.42005,2.72615 -3.56515,0.20521 v 0 c 0.0141,-0.59145 -8e-4,-1.18164 -0.0454,-1.77197 -0.15648,-1.96712 -0.50266,-3.90439 -0.84093,-5.84689 -0.37445,-2.2972 -0.71732,-4.60173 -0.94663,-6.91837 -0.18821,-1.90506 -0.3719,-3.82017 -0.25893,-5.7359 0.009,-0.14844 0.12249,-1.94047 0.15774,-1.93577 3.75268,0.50068 2.86928,2.25015 3.60375,0.31058 0.0272,-0.0718 -0.0569,0.14256 -0.0854,0.21385 -0.4238,1.49361 -0.8719,2.97497 -1.59783,4.35884 -0.93627,1.8854 -1.99706,3.71656 -3.36487,5.32683 -1.23091,1.40461 -2.6114,2.64234 -4.08634,3.78705 -2.15379,1.34611 -4.0575,-1.69981 -1.90371,-3.04593 z"
       inkscape:connector-curvature="0" />
    <path
       style="fill:#000000;stroke-width:0.26458332"
       id="path4465"
       d="m 200.9856,210.31888 c 1.48986,-1.05005 2.66984,-2.46065 3.79727,-3.87574 1.43927,-1.83261 2.71779,-3.78208 3.99537,-5.72871 1.23304,-1.76595 2.26291,-3.66002 3.26573,-5.56265 1.01136,-1.97728 1.76447,-4.06978 2.54021,-6.14651 0.69295,-2.06562 1.25042,-4.17071 1.69287,-6.30316 0.36037,-1.85953 0.44349,-3.75208 0.48085,-5.64061 0.0327,-1.69441 0.0227,-3.38951 0.0194,-5.08419 0.008,-1.70285 0.006,-3.40618 -0.0277,-5.10877 -0.0282,-1.25309 -0.3892,-2.45011 -0.69434,-3.65468 -0.44654,-1.48861 -0.83862,-2.99246 -1.35696,-4.45821 -0.44013,-1.37386 -1.13159,-2.64186 -1.76367,-3.93312 -0.61459,-1.36625 -1.15192,-2.77054 -1.88401,-4.08039 -0.47506,-0.79842 -1.11109,-1.47885 -1.74782,-2.14851 -0.75727,-0.718 -1.41508,-1.52622 -2.09102,-2.31835 -0.7213,-0.77274 -1.58481,-1.38768 -2.43838,-2.00297 -0.79205,-0.59176 -1.54586,-1.22721 -2.373,-1.77042 -0.39711,-0.28139 -0.8048,-0.5589 -1.26033,-0.73649 -2.34811,-1.00907 -0.92106,-4.32981 1.42705,-3.32073 v 0 c 0.68236,0.30456 1.33927,0.66256 1.93786,1.11351 0.79412,0.59754 1.52518,1.26826 2.30892,1.87688 1.08366,0.77757 2.18745,1.54168 3.10234,2.5224 0.6404,0.74423 1.24123,1.52233 1.95978,2.19526 0.85872,0.90712 1.69616,1.84592 2.28237,2.95933 0.68064,1.3621 1.18926,2.79977 1.81785,4.18618 0.72461,1.41221 1.55735,2.78488 1.97905,4.32833 0.52561,1.54227 0.90587,3.12858 1.42272,4.67416 0.44026,1.49241 0.84272,2.99363 0.8144,4.56532 -0.0309,1.70099 -0.0289,3.40271 -0.0128,5.10386 0.004,1.7336 0.0132,3.46723 -0.0275,5.2006 -0.0907,2.07769 -0.24652,4.15915 -0.66685,6.19993 -0.48002,2.29598 -1.06263,4.5704 -1.82755,6.78965 -0.83081,2.19867 -1.64786,4.40959 -2.69468,6.51703 -1.04504,2.01613 -2.15644,3.99858 -3.46598,5.85746 -1.35878,1.99072 -2.66407,4.01772 -4.12787,5.93458 -1.24677,1.61607 -2.59771,3.13837 -4.04326,4.58015 -1.93069,1.65488 -4.27105,-1.07554 -2.34035,-2.73042 z"
       inkscape:connector-curvature="0" />
    <path
       style="fill:#000000;stroke-width:0.26458332"
       id="path4467"
       d="m 240.72737,143.73329 c -1.49806,0.84916 -2.81796,1.96238 -4.11293,3.08708 -1.32044,1.00541 -2.37058,2.26848 -3.33366,3.60585 -0.91895,1.20089 -1.44655,2.61232 -2.06539,3.97559 -0.90165,1.84858 -1.6497,3.7533 -2.27005,5.71209 -0.50182,1.84084 -0.95997,3.69585 -1.27616,5.57816 -0.35107,1.6997 -0.53334,3.42609 -0.75224,5.14604 -0.22916,1.79674 -0.29561,3.60795 -0.3196,5.41731 -0.0383,1.82477 -0.0472,3.64668 0.0823,5.46762 0.0967,1.90915 0.20157,3.81423 0.44522,5.71103 0.16042,1.75749 0.60482,3.42716 1.3276,5.02997 0.81094,1.66279 1.78102,3.24447 2.83028,4.76662 1.4071,1.89154 2.94525,3.68467 4.52788,5.43098 1.6351,1.76356 3.51963,3.25719 5.42153,4.71685 1.6039,1.14934 3.18496,2.33358 4.51077,3.80196 0.12606,0.135 0.25212,0.27001 0.37817,0.40502 1.58066,1.94811 -1.17439,4.1835 -2.75505,2.23538 v 0 c -0.0951,-0.13757 -0.19021,-0.27514 -0.28531,-0.41272 -1.03691,-1.39934 -2.51304,-2.37707 -3.85713,-3.45712 -2.02172,-1.60527 -4.03139,-3.2384 -5.80232,-5.12459 -1.67561,-1.84993 -3.31954,-3.73039 -4.85106,-5.70256 -1.18959,-1.68556 -2.33137,-3.41843 -3.2014,-5.29441 -0.83058,-1.90384 -1.37369,-3.88542 -1.56334,-5.96152 -0.26073,-1.96505 -0.35788,-3.94074 -0.48669,-5.91766 -0.12353,-1.91992 -0.13731,-3.8388 -0.0897,-5.76243 0.0514,-1.92947 0.0904,-3.86219 0.32509,-5.7804 0.22879,-1.7756 0.40247,-3.56235 0.79053,-5.31279 0.38435,-2.0215 0.88505,-4.01695 1.45767,-5.99332 0.67103,-2.04935 1.4061,-4.07335 2.31721,-6.03073 0.66123,-1.63269 1.29038,-3.2779 2.40101,-4.67293 1.13177,-1.5142 2.37817,-2.93651 3.87739,-4.10192 1.35032,-1.19726 2.77837,-2.29381 4.18101,-3.42694 2.02551,-1.51913 4.17388,1.34537 2.14838,2.86449 z"
       inkscape:connector-curvature="0" />
    <path
       style="fill:#000000;stroke-width:0.26458332"
       id="path4469"
       d="m 250.47873,157.69137 c -0.17774,2.46808 -0.31803,4.94051 -0.39576,7.41421 -0.095,1.71979 -0.22511,3.43747 -0.29455,5.1586 0.0179,0.0639 0.0345,0.25515 0.0536,0.19163 0.11911,-0.39609 -0.21686,-0.87966 -0.47726,-1.09183 -0.55401,-0.4514 -1.38675,-0.22949 -0.4649,-0.45384 1.36495,-0.44927 2.76895,-0.73213 4.19458,-0.8919 1.77068,-0.16686 3.38525,0.44985 4.96894,1.1542 1.58109,0.67557 3.02694,1.56064 4.3062,2.70633 1.37377,1.32522 2.16008,3.01592 2.79132,4.78407 0.66892,1.93391 0.93311,3.95873 0.97536,5.99524 0.0101,2.11401 -0.32234,4.19512 -0.85346,6.23443 -0.61672,1.76727 -1.38801,3.55376 -2.56495,5.03105 -0.24882,0.31231 -0.5325,0.59517 -0.79873,0.89276 -1.68542,1.71739 -3.84767,2.84717 -5.98818,3.89229 -1.91205,0.87683 -3.88956,1.67822 -5.98783,1.96917 -0.46345,0.0643 -0.93191,0.0848 -1.39787,0.12722 -2.86186,0.0344 -5.62474,-0.74813 -8.26244,-1.79184 -1.27148,-0.65994 -2.99508,-1.1351 -3.61929,-2.5851 -0.15019,-0.34887 -0.14988,-0.74472 -0.22482,-1.11707 0.057,-0.32825 0.11391,-0.65649 0.17086,-0.98473 0.6494,-2.45433 4.12034,-1.53594 3.47095,0.91839 v 0 c -0.0164,-0.0511 -0.0327,-0.10229 -0.0491,-0.15343 -0.10498,-0.17998 -0.32675,-0.63074 -0.43256,-0.45125 -0.13241,0.22461 1.88553,1.25439 1.99482,1.33544 2.0902,0.9961 4.31235,1.65728 6.65095,1.61259 2.19085,-0.21163 4.27672,-0.81307 6.24523,-1.81333 1.76395,-0.87225 3.55917,-1.80752 4.96178,-3.21274 1.20946,-1.2824 2.0502,-2.82378 2.588,-4.50272 0.44145,-1.7457 0.77012,-3.52668 0.7453,-5.33549 -0.0303,-1.67691 -0.26895,-3.34508 -0.84153,-4.92899 -0.42781,-1.24053 -0.97092,-2.41819 -1.90971,-3.36283 -0.97245,-0.92025 -2.1191,-1.58329 -3.35005,-2.10551 -1.01897,-0.43689 -2.06734,-0.90728 -3.20059,-0.85247 -1.22199,0.138 -2.43052,0.35656 -3.56715,0.84786 -0.32809,0.11346 -1.06864,0.38958 -1.35628,0.37194 -1.7232,-0.10571 -2.42627,-1.09946 -2.29622,-2.70422 0.18911,-1.6766 0.48339,-3.34029 0.61498,-5.02347 0.13458,-2.42041 0.31464,-4.85606 0.0596,-7.27466 0,-2.50372 3.5408,-2.50372 3.5408,0 z"
       inkscape:connector-curvature="0" />
    <path
       style="fill:#000000;stroke-width:0.26458332"
       id="path4471"
       d="m 251.42831,154.98053 c 1.54527,0.12124 3.09827,0.0902 4.64667,0.0622 1.14646,-0.006 2.29245,-0.0411 3.43868,-0.0617 0.71893,-0.0651 1.38777,0.03 2.0791,0.2209 2.43493,0.81189 1.28674,4.25541 -1.14819,3.44352 v 0 c -0.17444,-0.13346 -0.6546,-0.0644 -0.93091,-0.0848 -1.14623,-0.0206 -2.29222,-0.056 -3.43868,-0.0617 -1.5484,-0.0281 -3.1014,-0.0591 -4.64667,0.0622 -2.53188,0 -2.53188,-3.58062 0,-3.58062 z"
       inkscape:connector-curvature="0" />
    <path
       style="fill:#000000;stroke-width:0.26458332"
       id="path4473"
       d="m 272.70044,142.24478 c 1.38875,1.11786 2.69137,2.33449 3.93081,3.61454 1.37083,1.44589 2.53558,3.06286 3.71576,4.66281 1.26878,1.71795 2.34741,3.5578 3.29109,5.47067 0.93195,1.83835 1.6446,3.76795 2.33019,5.7072 0.60375,1.64505 1.17314,3.30271 1.72675,4.96527 0.62661,1.60721 1.04431,3.27077 1.38322,4.95815 0.37626,2.01502 0.50688,4.06342 0.57538,6.10863 0.068,2.26636 -0.39354,4.47565 -0.82957,6.68384 -0.46363,2.10816 -1.03714,4.19217 -1.6433,6.26351 -0.65162,2.00665 -1.25627,4.02631 -1.87516,6.04313 -0.54588,1.74027 -1.11297,3.4684 -1.80467,5.1568 -0.68752,1.86766 -1.76056,3.52478 -2.83683,5.18289 -1.11641,1.63526 -2.45766,3.09919 -3.83429,4.51621 -1.20015,1.23814 -2.50415,2.36605 -3.77134,3.53256 -0.48723,0.50023 -1.04786,0.81546 -1.67135,1.10684 -2.44147,0.82793 -3.61233,-2.6248 -1.17089,-3.45273 v 0 c -0.0267,0.0371 -0.12581,0.10725 -0.0802,0.11132 0.25657,0.0229 0.4531,-0.43223 0.65868,-0.40408 1.26458,-1.0164 2.48479,-2.08122 3.60093,-3.26278 1.22428,-1.2558 2.46674,-2.50666 3.47231,-3.9512 0.95771,-1.494 1.87037,-3.00315 2.48108,-4.67913 0.66286,-1.59504 1.21677,-3.22738 1.77517,-4.86128 0.64376,-1.97942 1.23407,-3.97634 1.86195,-5.96057 0.56637,-1.99092 1.1793,-3.97174 1.60777,-5.99824 0.4078,-1.94853 0.75943,-3.90831 0.71578,-5.90945 -0.0684,-1.84935 -0.14986,-3.70765 -0.54822,-5.52165 -0.34952,-1.55734 -0.7375,-3.10054 -1.31368,-4.59349 -0.53605,-1.64617 -1.0704,-3.29329 -1.64751,-4.9255 -0.62889,-1.81439 -1.27125,-3.62387 -2.14225,-5.34044 -0.86408,-1.73733 -1.84211,-3.4059 -2.99747,-4.9684 -1.08386,-1.47486 -2.20144,-2.92892 -3.44786,-4.27156 -1.05572,-1.06409 -2.11834,-2.16806 -3.41591,-2.93795 -2.15381,-1.34612 -0.25011,-4.39204 1.90368,-3.04592 z"
       inkscape:connector-curvature="0" />
    <path
       style="fill:#ff0000;stroke-width:0.26458332"
       id="path4511"
       d="m 56.005748,125.76997 c 0.613783,2.5675 1.249485,5.12769 1.821284,7.70516 0.502872,2.27467 1.088186,4.53063 1.539311,6.81649 0.150405,0.71948 0.07575,0.40046 0.215045,0.95911 0.193723,1.00287 -1.224542,1.27683 -1.418264,0.27397 v 0 c -0.08335,-0.59015 -0.03634,-0.26037 -0.141695,-0.98925 -0.37597,-2.28225 -0.921158,-4.53161 -1.411819,-6.79096 -0.566553,-2.56741 -1.191618,-5.1204 -1.975038,-7.63173 -0.242393,-0.96956 1.128784,-1.31236 1.371176,-0.34279 z"
       inkscape:connector-curvature="0" />
    <path
       style="fill:#ff0000;stroke-width:0.26458332"
       id="path4513"
       d="m 57.300796,127.98325 c 0.863402,-0.59645 1.837516,-1.47887 2.97057,-1.42773 0.224248,0.0101 0.439132,0.0934 0.658699,0.14008 0.19299,0.13369 0.410115,0.23794 0.578969,0.40105 0.86782,0.83829 1.049991,2.32083 1.247307,3.43983 0.294346,1.62897 0.442118,3.27985 0.813964,4.89435 0.260993,0.83636 0.518393,1.3304 1.359379,1.5909 0.704138,0.1852 1.388298,-0.0232 1.916739,-0.50632 0.786239,-0.64191 1.69404,0.47 0.907799,1.11191 v 0 c -0.9628,0.74046 -2.092113,1.10261 -3.296171,0.75003 -1.380453,-0.50991 -1.850761,-1.25433 -2.239886,-2.65075 -0.341262,-1.63783 -0.494094,-3.30482 -0.81498,-4.94644 -0.170355,-0.9244 -0.342596,-1.92183 -0.894797,-2.70619 -0.533522,-0.47123 -1.879328,0.67838 -2.271451,1.00144 -0.772276,0.66195 -1.708417,-0.43021 -0.936141,-1.09216 z"
       inkscape:connector-curvature="0" />
    <path
       style="fill:#ff0000;stroke-width:0.26458332"
       id="path4515"
       d="m 70.430657,128.08123 c -1.146871,0.21844 -2.120273,0.74346 -2.709143,1.7636 -0.345437,0.93789 0.343466,1.72013 1.028962,2.28729 0.944115,0.62871 1.942277,0.74552 2.982188,0.31011 1.121198,-0.57873 1.744014,-1.53745 2.125649,-2.69981 0.338526,-1.13259 0.05753,-2.20575 -0.452022,-3.23046 -0.257564,-0.3486 -0.426265,-0.85765 -0.830358,-1.07992 -0.01913,-0.0105 -0.03298,0.0647 -0.01114,0.0645 0.253423,-0.002 0.519094,0.016 0.756928,-0.0716 0.112892,-0.0416 0.145518,-0.1916 0.218276,-0.28739 0.451763,1.59339 1.48213,2.92065 2.475905,4.21156 0.864626,1.032 1.796581,2.00535 2.867813,2.82255 0.771681,0.60543 -0.08452,1.69675 -0.856205,1.09132 v 0 c -1.13906,-0.91541 -2.147215,-1.9673 -3.069987,-3.10099 -1.124783,-1.46781 -2.264812,-2.97372 -2.843646,-4.75458 0.03021,-0.32064 -0.115083,-0.71413 0.09063,-0.96193 0.995651,-1.1994 2.118225,0.83628 2.465507,1.45699 0.643932,1.36795 0.971208,2.80584 0.510794,4.29375 -0.58487,1.64788 -1.3744,2.72283 -2.953256,3.55539 -1.76145,0.62244 -2.8225,0.44622 -4.389723,-0.56449 -1.261573,-1.12396 -2.062927,-2.38459 -1.308671,-4.08166 0.137734,-0.21264 0.254537,-0.4404 0.413202,-0.63791 0.789427,-0.98271 2.004084,-1.45218 3.17626,-1.7906 0.992928,-0.22065 1.304975,1.18356 0.312047,1.40421 z"
       inkscape:connector-curvature="0" />
    <path
       style="fill:#ff0000;stroke-width:0.26458332"
       id="path4517"
       d="m 80.615353,124.39886 c 1.055008,2.54513 2.138029,5.07625 3.126613,7.64855 0.998503,2.63938 1.899351,5.31444 2.754839,8.00323 0.271492,0.89752 -0.997802,1.28147 -1.269291,0.38394 v 0 c -0.768924,-2.68226 -1.62887,-5.33856 -2.620462,-7.94741 -0.987367,-2.52708 -2.05068,-5.02414 -3.264332,-7.452 -0.449942,-0.89989 0.822691,-1.5362 1.272633,-0.63631 z"
       inkscape:connector-curvature="0" />
    <path
       style="fill:#ff0000;stroke-width:0.26458332"
       id="path4519"
       d="m 80.867863,124.56357 c 1.291585,-0.63366 2.80838,-0.83718 3.91935,0.27416 0.226052,0.22613 0.381706,0.51306 0.572558,0.76959 0.889863,1.51217 1.043258,3.28916 1.714905,4.88634 0.08104,0.13211 0.162071,0.26422 0.243105,0.39633 0.491654,0.87003 -0.738757,1.56533 -1.230408,0.6953 v 0 c -0.102579,-0.19282 -0.205155,-0.38563 -0.307734,-0.57844 -0.571556,-1.51895 -0.763961,-3.16328 -1.542058,-4.60173 -0.759172,-1.15393 -1.350317,-1.25786 -2.608239,-0.62318 -0.861515,0.53845 -1.622996,-0.67992 -0.761479,-1.21837 z"
       inkscape:connector-curvature="0" />
    <path
       style="fill:#ff0000;stroke-width:0.26458332"
       id="path4521"
       d="m 91.015909,125.43424 c -0.714,1.08096 -0.898609,2.34593 -0.32215,3.51773 0.46082,0.62594 1.20413,1.29775 1.99117,0.81854 0.84317,-0.98658 0.90668,-2.37738 0.88063,-3.61175 -0.19183,-1.01788 -0.27761,-2.38732 -1.13136,-3.11153 -0.1039,0.20631 -0.13402,0.22955 0.56306,0.10798 0.11246,-0.0196 0.16257,-0.1725 0.27029,-0.2103 0.0563,-0.0198 0.11858,0.28957 0.19373,0.49999 0.0668,0.18699 0.14385,0.37015 0.21578,0.55522 0.67486,1.52071 1.91226,2.59067 3.32433,3.40584 0.26456,0.11968 0.52911,0.23937 0.79367,0.35905 0.86441,0.40072 0.2977,1.62318 -0.56671,1.22246 v 0 c -0.30009,-0.14207 -0.60018,-0.28415 -0.90027,-0.42622 -1.70111,-0.9993 -3.10136,-2.21484 -3.94749,-4.03758 -0.22025,-0.52821 -0.67837,-1.34498 -0.53249,-1.94982 0.21501,-0.89148 0.994,-1.04143 1.63922,-0.51876 0.96626,1.13644 1.2788,2.62585 1.42841,4.08032 0.0208,1.47049 -0.0445,3.27151 -1.08326,4.44795 -0.17957,0.20338 -0.42014,0.34341 -0.63021,0.51511 -0.23276,0.0747 -0.45658,0.18752 -0.69829,0.22396 -1.35184,0.2038 -2.421372,-0.77257 -3.091686,-1.81961 -0.101034,-0.25674 -0.231817,-0.50368 -0.303101,-0.77021 -0.3839,-1.4354 0.03613,-2.91121 0.760928,-4.15772 0.607649,-0.8102 1.753449,0.0492 1.145799,0.85935 z"
       inkscape:connector-curvature="0" />
    <path
       style="fill:#ff0000;stroke-width:0.26458332"
       id="path4523"
       d="m 100.24004,129.89911 c 0.96873,-1.40722 1.41591,-3.04599 1.48753,-4.7349 -0.12943,-1.21885 -0.56376,-2.5837 -1.65373,-3.27606 -0.102131,0.26455 -0.126311,0.26635 0.64649,-0.0577 0.0928,-0.0389 0.0979,-0.26964 0.19166,-0.23314 0.13289,0.0517 0.12055,0.2589 0.19178,0.38245 0.31714,0.55009 0.461,0.7131 0.85218,1.24804 1.06361,1.44182 2.46502,2.53271 4.02982,3.37602 1.15216,0.42495 1.17816,0.43268 1.51493,-0.59044 0.21764,-1.26153 0.0735,-2.51162 -0.43767,-3.67998 -0.0293,-0.044 -0.13773,-0.11448 -0.0879,-0.13208 0.47515,-0.16767 0.96545,-0.36504 1.46921,-0.35536 0.15273,0.003 0.16096,0.25969 0.24344,0.38826 0.41027,0.63948 0.85281,1.24322 1.31556,1.84563 0.49441,0.7155 1.07827,1.35226 1.68639,1.96978 0.66969,0.69421 -0.31207,1.6413 -0.98177,0.94709 v 0 c -0.62741,-0.66257 -1.24161,-1.3364 -1.7744,-2.0798 -0.49369,-0.62007 -0.96821,-1.24528 -1.42438,-1.89331 -0.11551,-0.16409 -0.44495,-0.31757 -0.34639,-0.49237 0.24409,-0.4329 0.72347,-0.69643 1.15534,-0.94233 0.0729,-0.0415 0.054,0.1589 0.0811,0.23835 0.50361,1.51508 0.75454,3.07432 0.42433,4.66201 -0.0903,0.23931 -0.14631,0.49458 -0.27097,0.71794 -0.73302,1.31347 -2.05212,1.17741 -3.23136,0.59474 -1.70914,-0.97212 -3.24912,-2.18836 -4.4519,-3.76116 -0.38414,-0.50305 -1.236621,-1.46679 -1.362321,-2.10618 -0.23271,-1.18371 0.3839,-1.69605 1.436361,-1.17423 1.34122,1.14278 2.05142,2.71285 2.13215,4.47463 -0.11951,1.96179 -0.65332,3.83779 -1.68967,5.52349 -0.60765,0.8102 -1.753451,-0.0491 -1.1458,-0.85935 z"
       inkscape:connector-curvature="0" />
    <path
       style="fill:#ff0000;stroke-width:0.26458332"
       id="path4525"
       d="m 114.3752,122.69158 c 0.95483,-0.80262 1.49654,-1.6937 1.47544,-2.95147 0.008,-0.23885 -0.84518,-1.89068 -1.10865,-1.36055 -0.64965,0.78119 -0.77667,1.85318 -0.85143,2.8277 7.9e-4,1.62677 0.61342,2.54951 1.83976,3.53829 1.29854,0.86278 2.38016,0.96585 3.85181,0.55818 0.9289,-0.38148 0.47846,-0.17016 1.35232,-0.63187 0.86119,-0.44511 1.49068,0.7728 0.62949,1.21791 v 0 c -1.0452,0.53009 -0.50307,0.28536 -1.62858,0.72933 -0.31203,0.0818 -0.61834,0.18977 -0.93608,0.24537 -1.49908,0.26232 -2.90886,-0.22064 -4.14121,-1.05847 -1.57922,-1.31933 -2.34849,-2.59851 -2.33116,-4.70933 0.10878,-1.28477 0.27274,-3.01305 1.42454,-3.84937 0.20337,-0.14766 0.45928,-0.20426 0.68892,-0.30638 0.24761,0.0124 0.50354,-0.0277 0.74284,0.0371 1.15726,0.31344 1.66977,1.7664 1.86804,2.78575 -0.01,0.2554 0.006,0.51306 -0.0296,0.7662 -0.18067,1.2964 -0.9947,2.36976 -1.91028,3.25375 -0.77227,0.66195 -1.70842,-0.43022 -0.93614,-1.09217 z"
       inkscape:connector-curvature="0" />
    <path
       style="fill:#ff0000;stroke-width:0.26458332"
       id="path4527"
       d="m 123.68974,116.58232 c 0.63416,1.8831 1.59416,3.63894 2.49757,5.40326 0.41009,0.78274 0.79498,1.57792 1.19689,2.36482 0.43249,0.86925 -0.79682,1.48088 -1.22931,0.61163 v 0 c -0.3838,-0.79176 -0.7466,-1.59354 -1.15612,-2.37263 -0.91825,-1.82174 -1.8632,-3.63545 -2.64229,-5.52226 -0.34282,-0.94276 0.99044,-1.42758 1.33326,-0.48482 z"
       inkscape:connector-curvature="0" />
    <path
       style="fill:#ff0000;stroke-width:0.26458332"
       id="path4529"
       d="m 125.32039,118.71718 c 0.4668,-1.05744 1.16903,-2.45392 2.47307,-2.62788 0.29132,-0.0389 0.58607,0.0452 0.8791,0.0679 0.27607,0.14651 0.57947,0.25029 0.8282,0.43953 1.22343,0.93078 2.02853,2.73647 2.72964,4.07181 0.45847,0.93013 1.15391,1.00998 -0.33646,0.80134 -0.0511,-0.007 0.0168,-0.46522 0.04,-0.68446 0.17797,-1.13998 0.23015,-2.49879 0.96676,-3.45927 0.14095,-0.18379 0.33034,-0.32474 0.4955,-0.48711 0.23011,-0.0853 0.44607,-0.23219 0.69033,-0.25575 1.37696,-0.13285 2.46048,1.34766 3.21366,2.27007 0.48754,0.67029 0.9544,1.3551 1.43114,2.03304 0.5554,0.79866 -0.57408,1.58411 -1.12947,0.78545 v 0 c -0.4491,-0.65303 -0.88884,-1.3128 -1.36014,-1.95022 -0.56095,-0.68023 -1.15322,-1.33434 -1.91001,-1.80114 -0.85079,0.49712 -0.88483,2.12563 -0.99832,2.98557 -0.0149,0.21159 -0.0482,1.24919 -0.23151,1.40708 -1.24433,1.07202 -1.63597,-0.16331 -2.08222,-1.021 -0.67386,-1.33456 -1.33012,-2.83978 -2.57185,-3.7409 -0.92403,-0.43324 -1.51092,0.94843 -1.7648,1.62018 -0.32117,0.96353 -1.6838,0.50932 -1.36263,-0.45421 z"
       inkscape:connector-curvature="0" />
    <path
       style="fill:#ff0000;stroke-width:0.26458332"
       id="path4531"
       d="m 139.93104,113.04143 c 0.92483,2.2418 1.72039,4.53178 2.54874,6.81012 0.88202,2.36984 1.73578,4.75137 2.53084,7.15188 0.38621,1.08853 0.20022,0.56035 0.55841,1.58437 0.30823,0.92139 -0.99482,1.35728 -1.30304,0.43589 v 0 c -0.32956,-1.03244 -0.15537,-0.49495 -0.52384,-1.61205 -0.74835,-2.39707 -1.55219,-4.77815 -2.43947,-7.12752 -0.83341,-2.24411 -1.6036,-4.51701 -2.68155,-6.66051 -0.41166,-0.92625 0.89825,-1.50843 1.30991,-0.58218 z"
       inkscape:connector-curvature="0" />
    <path
       style="fill:#ff0000;stroke-width:0.26458332"
       id="path4533"
       d="m 139.75506,115.25141 c 0.5513,-0.94517 1.12118,-2.06988 2.10492,-2.64983 0.19052,-0.11231 0.40733,-0.17241 0.61099,-0.25861 0.24495,0.005 0.49702,-0.0423 0.73485,0.0166 1.36953,0.33902 1.79849,2.0838 2.17658,3.22287 0.41739,1.19561 0.52585,2.5078 1.12274,3.63711 0.0521,-0.0658 0.1741,0.31983 0.29933,0.27069 0.0317,-0.0124 -0.037,-0.0628 -0.033,-0.0966 0.003,-0.0262 0.0278,-0.0488 0.0517,-0.06 0.0848,-0.0396 0.1777,-0.059 0.26654,-0.0885 0.9734,-0.31372 1.41706,1.06288 0.44366,1.37659 v 0 c -1.07479,0.34013 -1.71213,0.23386 -2.3127,-0.77661 -0.56006,-1.21802 -0.74541,-2.5482 -1.13282,-3.82479 -0.28098,-0.81371 -0.53,-1.69067 -1.14681,-2.32178 -0.86539,0.11276 -1.52245,1.4487 -1.87613,2.13501 -0.41167,0.92625 -1.72157,0.34407 -1.30991,-0.58218 z"
       inkscape:connector-curvature="0" />
    <path
       style="fill:#ff0000;stroke-width:0.26458332"
       id="path4535"
       d="m 99.016249,132.9532 c 1.458951,0.98391 3.035501,1.77182 4.550871,2.6613 1.47219,0.85478 2.84496,1.84096 4.10102,2.98818 1.28177,1.24006 2.09631,2.83372 2.85501,4.42381 0.72615,1.64554 1.23174,3.37162 1.68653,5.10775 0.38639,1.63608 0.63629,3.30417 0.86009,4.96971 0.2796,1.7525 0.18038,3.49487 -0.046,5.2431 -0.25596,2.10588 -0.98111,4.07904 -1.85233,5.99725 -0.83822,1.98434 -1.99588,3.79557 -3.1477,5.60548 -0.56122,0.80229 -0.29779,0.42174 -0.79145,1.14086 -0.57555,0.8078 -1.71795,-0.006 -1.1424,-0.81396 v 0 c 0.51206,-0.69318 0.24619,-0.33668 0.79824,-1.06903 1.15736,-1.72535 2.28132,-3.47713 3.08047,-5.405 0.80395,-1.80178 1.49154,-3.64901 1.71572,-5.62448 0.20033,-1.63427 0.29155,-3.25665 0.0246,-4.89378 -0.21035,-1.60887 -0.44464,-3.22101 -0.81328,-4.80163 -0.44328,-1.65045 -0.89805,-3.30241 -1.58898,-4.87062 -0.69425,-1.42845 -1.42127,-2.86965 -2.56912,-3.99497 -1.17937,-1.08704 -2.4705,-2.02343 -3.84958,-2.84396 -1.52865,-0.89457 -3.101141,-1.71243 -4.633221,-2.60164 -0.86151,-0.53845 -0.10003,-1.75682 0.76149,-1.21837 z"
       inkscape:connector-curvature="0" />
    <path
       style="fill:#ff0000;stroke-width:0.26458332"
       id="path4537"
       d="m 107.20097,163.3814 c -0.33866,1.72941 -0.88545,3.40227 -1.47664,5.05875 -0.66979,1.69907 -1.48515,3.34706 -2.33137,4.96614 -0.50761,0.97156 -1.00165,1.95054 -1.51885,2.91702 -0.0447,0.16815 -0.35253,0.57557 -0.28091,0.79603 0.0161,0.0495 0.0556,-0.0989 0.0444,-0.1497 -0.0952,-0.4293 -0.1309,-0.36939 -0.45942,-0.55095 -0.004,-0.0119 -0.0249,-0.0303 -0.0134,-0.0357 0.24088,-0.11188 0.50688,-0.16182 0.75054,-0.26751 0.57596,-0.24984 1.1241,-0.5821 1.67349,-0.88328 1.38091,-0.77208 2.74039,-1.58042 4.1296,-2.33819 1.33781,-0.74839 2.72476,-1.40287 4.07043,-2.13541 0.68521,-0.3608 0.37109,-0.17778 0.9477,-0.53984 0.86003,-0.51804 1.59265,0.69823 0.73262,1.21627 v 0 c -0.66319,0.38561 -0.3226,0.20093 -1.02246,0.55273 -1.35211,0.71216 -2.74078,1.35296 -4.07137,2.10732 -1.38378,0.75893 -2.74019,1.56438 -4.11252,2.34342 -0.98682,0.5617 -1.96333,1.18545 -3.07763,1.46092 -0.21658,-0.054 -0.46717,-0.0335 -0.64975,-0.16192 -0.760341,-0.53465 -0.21725,-1.49485 0.0789,-2.09381 0.52292,-0.96105 1.03527,-1.92778 1.56434,-2.88555 0.84297,-1.54504 1.63671,-3.13098 2.28266,-4.76774 0.56939,-1.60287 1.11438,-3.22703 1.3355,-4.92105 0.22065,-0.99293 1.62486,-0.68088 1.40421,0.31205 z"
       inkscape:connector-curvature="0" />
    <path
       style="fill:#ff0000;stroke-width:0.26458332"
       id="path4559"
       d="m 114.0927,217.29342 c -1.50225,1.94412 -2.97413,3.91365 -4.41466,5.90441 -0.60439,0.95237 -1.31059,1.83688 -1.83085,2.83974 -0.49264,0.86659 -1.71819,0.16989 -1.22555,-0.69671 v 0 c 0.61582,-1.00766 1.35593,-1.92527 2.02069,-2.90066 1.44908,-1.95989 2.92626,-3.89845 4.26408,-5.93764 0.55923,-0.83883 1.74552,-0.048 1.18629,0.79086 z"
       inkscape:connector-curvature="0" />
    <path
       style="fill:#ff0000;stroke-width:0.26458332"
       id="path4561"
       d="m 34.106078,214.9112 c 1.014455,1.76964 2.319512,3.33785 3.596923,4.91836 0.882769,1.13449 1.95114,2.07119 3.053802,2.97918 0.750255,0.63712 -0.150773,1.69814 -0.901025,1.06102 v 0 c -1.137418,-0.99611 -2.253181,-2.00855 -3.178667,-3.21453 -1.280131,-1.59731 -2.57655,-3.18153 -3.716833,-4.88468 -0.60765,-0.8102 0.53815,-1.66955 1.1458,-0.85935 z"
       inkscape:connector-curvature="0" />
    <path
       style="fill:#ff0000;stroke-width:0.26458332"
       id="path4563"
       d="m 49.169251,221.83101 c 0.358561,2.49512 0.974593,4.94558 1.530292,7.40231 0.371417,1.56146 0.642289,3.14232 0.916493,4.72259 0.138496,0.98603 -1.255967,1.1819 -1.394463,0.19586 v 0 c -0.167052,-1.55978 -0.423762,-3.10799 -0.762524,-4.64002 -0.5534,-2.48479 -1.139155,-4.96174 -1.685546,-7.44812 -0.164492,-0.98694 1.231257,-1.21957 1.395748,-0.23262 z"
       inkscape:connector-curvature="0" />
    <path
       style="fill:#ff0000;stroke-width:0.26458332"
       id="path4565"
       d="m 51.444319,228.51714 c 1.154665,-0.47706 2.541304,-0.89023 3.749772,-0.3112 0.259149,0.12417 0.475142,0.32334 0.712711,0.48501 1.190445,1.14555 1.496047,2.75043 1.866117,4.29096 0.05373,0.16895 0.107453,0.33789 0.161179,0.50684 0.284813,0.95601 -1.067189,1.35879 -1.352,0.40278 v 0 c -0.05559,-0.19798 -0.11118,-0.39597 -0.166769,-0.59395 -0.273447,-1.21835 -0.482614,-2.52677 -1.346729,-3.48497 -0.919928,-0.83216 -1.970104,-0.49319 -2.979997,-0.007 -0.911154,0.45558 -1.555435,-0.83298 -0.644284,-1.28856 z"
       inkscape:connector-curvature="0" />
    <path
       style="fill:#ff0000;stroke-width:0.26458332"
       id="path4567"
       d="m 61.080557,229.65884 c 0.236487,-0.18705 1.633286,-1.52515 1.227251,-1.84019 -0.08289,0.1482 -0.188917,0.24912 -0.307742,0.3745 -0.396983,0.56309 -0.276521,1.25038 -0.111794,1.87043 0.318651,0.88191 0.953344,1.59407 1.793798,2.00111 0.661498,0.28351 1.345875,0.27868 2.038927,0.14322 0.993333,-0.17272 1.237602,1.23206 0.244266,1.40479 v 0 c -1.004626,0.16035 -1.997916,0.15219 -2.940299,-0.28835 -1.176766,-0.64119 -2.081514,-1.62463 -2.507564,-2.91596 -0.286975,-1.1862 -0.336196,-2.42166 0.581392,-3.35629 1.032103,-0.74687 2.092227,-0.755 2.650644,0.54713 0.01071,0.1854 0.05101,0.37146 0.03216,0.55622 -0.110408,1.08269 -1.079492,1.85724 -1.7649,2.59556 -0.772279,0.66195 -1.70842,-0.43022 -0.936144,-1.09217 z"
       inkscape:connector-curvature="0" />
    <path
       style="fill:#ff0000;stroke-width:0.26458332"
       id="path4569"
       d="m 73.218945,230.01254 c -0.862579,-0.0691 -2.016715,-0.0434 -2.509092,0.80371 0.02556,0.0188 0.0511,0.0375 0.07665,0.0563 0.03349,0.003 0.0723,-0.0107 0.100467,0.008 0.06979,0.0453 0.119404,0.11591 0.179105,0.17387 0.104587,0.074 0.202922,0.15778 0.313758,0.22206 0.401408,0.23281 0.545087,0.24756 1.00547,0.3932 1.574776,0.39337 2.254813,0.21059 3.402954,-0.89898 0.719707,-0.94238 1.291865,-2.14833 1.14902,-3.36127 -0.191765,-0.39665 -0.167341,-0.074 -0.04794,-0.0414 0.347298,1.0478 0.498422,-0.0826 0.735738,-0.0203 0.03076,0.008 0.01807,0.061 0.02711,0.0915 0.07392,1.17613 0.592373,2.22412 1.230466,3.18885 0.526809,0.79945 1.197403,1.3939 2.116658,1.66284 0.968254,0.31045 0.529204,1.67977 -0.439047,1.36932 v 0 c -1.217371,-0.41259 -2.137968,-1.18924 -2.837238,-2.27421 -0.806341,-1.24617 -1.442759,-2.59994 -1.513139,-4.10861 0.05582,-0.31834 0.07162,-0.88679 0.437277,-1.08031 1.059006,-0.56046 1.527154,0.27838 1.713304,1.13867 0.02249,1.6316 -0.576736,3.18653 -1.631526,4.43177 -0.226187,0.20974 -0.433134,0.44237 -0.678561,0.62924 -1.210202,0.92145 -2.663741,0.99693 -4.085839,0.59462 -1.084982,-0.34698 -2.663489,-0.97515 -2.597571,-2.39711 0.0109,-0.23506 0.146273,-0.44731 0.219409,-0.67097 0.139814,-0.1571 0.260601,-0.33346 0.419436,-0.47131 0.925676,-0.80333 2.20617,-0.90438 3.372122,-0.86999 1.011846,0.11243 0.85285,1.5434 -0.158998,1.43097 z"
       inkscape:connector-curvature="0" />
    <path
       style="fill:#ff0000;stroke-width:0.26458332"
       id="path4571"
       d="m 92.190349,221.43371 c -0.13345,2.06505 0.0495,4.12741 0.26475,6.17963 0.14312,0.87403 0.24229,1.7592 0.51008,2.6072 0.0489,0.15488 0.10221,0.30953 0.1748,0.45483 0.0226,0.0452 0.1285,0.15343 0.10638,0.108 -0.0399,-0.0819 -0.10745,-0.14701 -0.16118,-0.22052 -0.3968,0.25952 -0.74378,0.61939 -1.19039,0.77856 -0.11438,0.0408 -0.16139,-0.18188 -0.24954,-0.26539 -0.11617,-0.11008 -0.23413,-0.21928 -0.36264,-0.31466 -0.41807,-0.31026 -0.85816,-0.50111 -1.353608,-0.64224 -1.100143,0.0163 -1.582722,1.04251 -1.995043,1.91357 -0.222234,0.62755 -0.754184,1.89107 0.06802,2.30208 1.000091,0.33918 2.088536,0.001 3.084621,-0.2071 0.92991,-0.20196 1.21552,1.11313 0.28561,1.31509 v 0 c -1.431999,0.32168 -2.92231,0.74408 -4.291222,-0.0121 -0.172095,-0.16537 -0.376705,-0.30252 -0.516286,-0.49613 -0.743964,-1.03193 -0.282755,-2.44592 0.127987,-3.49684 0.784542,-1.62046 1.66116,-2.88674 3.662531,-2.66485 0.86972,0.294 1.64372,0.68434 2.32456,1.31406 0.13471,0.12459 0.4224,0.21662 0.38262,0.39575 -0.1123,0.5057 -0.5135,0.89985 -0.77025,1.34977 -0.10199,-0.10366 -0.22262,-0.19183 -0.306,-0.31098 -0.59869,-0.85555 -0.61384,-2.78348 -0.83017,-3.77524 -0.20918,-2.0995 -0.38371,-4.20119 -0.40585,-6.31245 0,-1.01839 1.44022,-1.01839 1.44022,0 z"
       inkscape:connector-curvature="0" />
    <path
       style="fill:#ff0000;stroke-width:0.26458332"
       id="path4573"
       d="m 130.13223,218.23998 c 1.34433,1.37948 2.89155,2.53876 4.55714,3.49869 0.9825,0.58764 2.05723,0.97031 3.05931,1.5192 0.12068,0.0835 0.24136,0.16705 0.36205,0.25058 0.83028,0.6001 -0.0184,1.77431 -0.84868,1.1742 v 0 c -0.0729,-0.0564 -0.14573,-0.11273 -0.2186,-0.16909 -0.99806,-0.57485 -2.07585,-0.98483 -3.04747,-1.6108 -1.73417,-1.06426 -3.35177,-2.30154 -4.8691,-3.65742 -0.71089,-0.7109 0.29446,-1.71625 1.00535,-1.00536 z"
       inkscape:connector-curvature="0" />
    <path
       style="fill:#ff0000;stroke-width:0.26458332"
       id="path4575"
       d="m 194.46993,218.82613 c -1.5,1.49542 -3.04043,2.9458 -4.43685,4.54019 -0.58975,0.65145 -1.09722,1.36885 -1.61225,2.07868 -0.58085,0.7795 -1.68323,-0.0419 -1.10238,-0.82145 v 0 c 0.55524,-0.7263 1.10901,-1.45512 1.72926,-2.12837 1.42843,-1.60139 3.00973,-3.05507 4.4089,-4.68237 0.71653,-0.71652 1.72985,0.2968 1.01332,1.01332 z"
       inkscape:connector-curvature="0" />
    <path
       style="fill:#ff0000;stroke-width:0.26458332"
       id="path4577"
       d="m 145.52247,224.43149 c 0.10895,2.0324 0.17737,4.06639 0.24247,6.10054 0.0438,1.0396 0.0104,2.08196 0.12301,3.11701 0.0819,0.99074 -1.31926,1.10649 -1.40111,0.11576 v 0 c -0.0645,-1.06565 -0.0251,-2.13218 -0.0511,-3.19938 -0.0363,-1.99969 -0.0892,-4.00503 -0.338,-5.99145 -0.10075,-1.00745 1.324,-1.14993 1.42475,-0.14248 z"
       inkscape:connector-curvature="0" />
    <path
       style="fill:#ff0000;stroke-width:0.26458332"
       id="path4579"
       d="m 146.52767,228.92771 c 1.29875,-0.21009 2.79658,-0.39305 3.99578,0.30426 0.22789,0.13252 0.41509,0.3251 0.62264,0.48765 1.1383,1.33235 0.86254,2.94518 0.26183,4.44929 -0.78702,1.38836 -1.56035,1.8615 -3.15053,1.55466 -0.66396,-0.21464 -0.3395,-0.0846 -0.97294,-0.39123 -0.90548,-0.46242 -0.25152,-1.74296 0.65395,-1.28054 v 0 c 0.38356,0.21384 0.17336,0.11817 0.63606,0.27472 0.70528,0.21504 1.17672,-0.055 1.54209,-0.69938 0.40018,-0.89355 0.69778,-1.95412 0.11796,-2.83587 -0.90163,-0.89969 -2.24924,-0.75105 -3.39479,-0.45934 -0.99293,0.22065 -1.30498,-1.18356 -0.31205,-1.40422 z"
       inkscape:connector-curvature="0" />
    <path
       style="fill:#ff0000;stroke-width:0.26458332"
       id="path4581"
       d="m 156.4463,230.50513 c -0.008,1.1534 0.47512,2.22342 1.5059,2.78355 1.11012,0.29962 1.73669,-0.79046 2.2212,-1.61705 0.23647,-0.67358 1.16343,-2.07204 0.43507,-2.7206 -0.75554,-0.38369 -1.54812,-0.35646 -2.3395,-0.1264 -0.33236,0.12029 -0.5466,0.32295 -0.75446,0.59402 -0.67582,0.76024 -1.75097,-0.19551 -1.07515,-0.95576 v 0 c 0.42859,-0.45009 0.85105,-0.82062 1.46553,-1.00299 1.38034,-0.34626 2.83659,-0.32536 3.91649,0.7249 0.10914,0.20528 0.2532,0.39551 0.32743,0.61583 0.40748,1.20961 -0.33206,2.50552 -0.80021,3.56975 -0.98509,1.63868 -2.08611,2.89912 -4.14236,2.1072 -0.21881,-0.14808 -0.45679,-0.27119 -0.65642,-0.44426 -1.01971,-0.88406 -1.45893,-2.22321 -1.54374,-3.52819 0,-1.01838 1.44022,-1.01838 1.44022,0 z"
       inkscape:connector-curvature="0" />
    <path
       style="fill:#ff0000;stroke-width:0.26458332"
       id="path4583"
       d="m 169.74789,220.89971 c 0.28116,2.34542 0.472,4.70189 0.68643,7.05461 0.0751,0.97698 0.1682,1.95593 0.36445,2.9173 0.0322,0.15778 0.0695,0.31478 0.11539,0.46911 0.0203,0.0684 0.15312,0.18435 0.083,0.19725 -0.48777,0.0897 -0.99106,0.0406 -1.48659,0.0608 -0.34148,-0.60567 -1.04892,-0.86323 -1.70518,-0.94542 -0.50529,0.17803 -0.59087,0.77163 -0.62516,1.2458 0.0452,0.83218 0.59403,1.38792 1.25681,1.82251 0.87519,0.53683 1.72498,0.33546 2.65506,0.094 0.14649,-0.0588 0.29298,-0.11753 0.43946,-0.1763 0.93565,-0.35441 1.43685,0.96881 0.5012,1.32321 v 0 c -0.19659,0.0712 -0.39319,0.14236 -0.58978,0.21355 -1.39613,0.35805 -2.51803,0.51249 -3.80983,-0.28607 -1.08482,-0.76897 -1.88991,-1.74989 -1.86973,-3.14844 0.18775,-1.41531 0.70678,-2.43576 2.28525,-2.49935 1.22907,0.24657 2.36839,0.77909 2.87268,2.00616 -0.44238,0.23434 -0.84255,0.57734 -1.32713,0.70303 -0.11214,0.0291 -0.0549,-0.22524 -0.0752,-0.33931 -0.0318,-0.17921 -0.0572,-0.35956 -0.081,-0.54003 -0.13135,-0.9979 -0.22381,-2.0013 -0.27746,-3.00634 -0.19235,-2.29061 -0.37829,-4.59632 -0.81686,-6.85412 -0.22064,-0.99292 1.18357,-1.30497 1.40422,-0.31204 z"
       inkscape:connector-curvature="0" />
    <path
       style="fill:#ff0000;stroke-width:0.26458332"
       id="path4585"
       d="m 175.41753,227.70328 c 0.21683,1.19152 0.83667,2.12616 1.85138,2.76497 0.10909,0.0337 0.21359,0.0907 0.32729,0.10121 0.37286,0.0346 0.731,-0.93346 0.82225,-1.16328 0.15248,-0.4788 0.27811,-0.96311 0.27207,-1.46872 -0.001,-0.0972 -0.007,-0.1951 -0.0245,-0.29066 -0.003,-0.0145 -0.0495,-0.0306 -0.0352,-0.0269 0.45947,0.11873 0.91599,0.24857 1.37398,0.37285 -0.007,2.00892 0.45208,4.00201 0.81093,5.97207 0.29764,1.92469 0.79745,3.91178 0.4672,5.87063 -0.0504,0.29921 -0.15417,0.58695 -0.23126,0.88042 -0.15942,0.25865 -0.27667,0.54863 -0.47827,0.77596 -1.44889,1.63383 -3.52092,0.9133 -5.22808,0.27204 -1.55897,-0.68151 -3.01874,-1.55301 -4.43537,-2.48843 -0.77845,-0.53886 -0.0164,-1.63975 0.76206,-1.10089 v 0 c 1.28618,0.93596 2.64528,1.76778 4.11897,2.38029 1.28552,0.46323 2.96204,1.11386 3.94229,-0.2234 0.66272,-1.99628 0.16397,-4.1181 -0.17408,-6.13377 -0.40014,-2.12341 -0.9345,-4.25452 -0.97594,-6.42172 0.50016,-0.15221 0.98085,-0.39903 1.50047,-0.45665 0.0956,-0.0106 0.0263,0.19087 0.0297,0.28697 0.0282,0.79868 -0.14249,1.58031 -0.3967,2.33345 -0.62838,1.4951 -1.51978,2.54205 -3.23354,1.70169 -1.32005,-0.92189 -2.06663,-2.0597 -2.46987,-3.62611 -0.22065,-0.99292 1.18357,-1.30497 1.40421,-0.31204 z"
       inkscape:connector-curvature="0" />
    <path
       style="fill:#ff0000;stroke-width:0.26458332"
       id="path4587"
       d="m 255.80108,220.03825 c -0.23424,1.7874 -0.28353,3.59199 -0.3333,5.39191 0.0453,2.36678 -0.43045,4.68562 -0.9173,6.9878 -0.76268,3.2601 -1.84801,6.42591 -3.09115,9.53031 -1.40896,3.32632 -3.07874,6.5432 -5.22044,9.46132 -0.46353,0.63156 -0.9662,1.23343 -1.44929,1.85015 -2.00474,2.4633 -4.46715,4.43679 -7.00654,6.30988 -0.63872,0.46697 -1.29911,-0.43632 -0.66039,-0.90328 v 0 c 2.47454,-1.79262 4.86786,-3.68933 6.79743,-6.08697 0.46798,-0.59874 0.95525,-1.1829 1.40395,-1.79623 2.0878,-2.85383 3.68357,-6.01189 5.03455,-9.27062 1.1921,-3.04724 2.23149,-6.15311 2.94662,-9.35037 0.44476,-2.23198 0.87442,-4.47986 0.82393,-6.76746 0.0465,-1.8345 0.13184,-3.66744 0.24719,-5.49891 0.10074,-1.00745 1.52549,-0.86498 1.42474,0.14247 z"
       inkscape:connector-curvature="0" />
    <path
       style="fill:#ff0000;stroke-width:0.26458332"
       id="path4589"
       d="m 248.55675,225.5011 c 1.03549,-0.8669 2.06767,-1.74137 3.04576,-2.67316 0.67234,-0.69367 1.17295,-1.53057 1.61039,-2.38634 0.41925,-0.6862 0.6397,-1.45764 0.88396,-2.21653 0.12136,-0.48921 0.46546,-1.62923 1.13965,-1.61459 0.27864,0.006 0.53219,0.16578 0.7983,0.24867 0.59458,0.80347 1.08353,1.68592 1.58396,2.55115 0.76417,1.36222 1.48968,2.7465 2.17051,4.1522 0.45243,0.99785 0.91479,1.99326 1.29894,3.01986 0.34171,0.94346 -0.99256,1.4267 -1.33426,0.48323 v 0 c -0.34587,-0.99191 -0.77603,-1.9531 -1.20613,-2.91073 -0.64667,-1.37701 -1.37272,-2.71626 -2.134,-4.03313 -0.42929,-0.71177 -0.88636,-1.41414 -1.32136,-2.11796 0.18053,0.0125 0.36251,0.0633 0.54161,0.0374 0.0758,-0.011 0.20275,-0.22848 0.14493,-0.17824 -0.21068,0.18315 -0.21256,0.57909 -0.31051,0.80588 -0.27115,0.83437 -0.52586,1.67938 -0.98688,2.43407 -0.52483,0.99082 -1.11936,1.95469 -1.91626,2.75293 -1.00866,0.93008 -2.08756,1.78039 -3.07247,2.73751 -0.77228,0.66195 -1.70842,-0.43021 -0.93614,-1.09217 z"
       inkscape:connector-curvature="0" />
    <path
       style="fill:#ff0000;stroke-width:0.26458332"
       id="path4621"
       d="m 183.85997,269.26281 c -1.47273,-0.25999 -2.97491,-0.22852 -4.43407,0.0844 -1.07736,0.28657 -1.63248,0.28221 -1.99712,1.38211 -0.29722,1.29822 -0.099,2.19017 0.74906,3.20184 1.1807,1.01061 1.99606,0.96132 3.34942,0.31676 1.47706,-0.95232 2.58794,-2.35197 3.42555,-3.87797 0.45715,-0.87747 0.63068,-1.82927 0.68592,-2.80505 -0.0947,-0.72054 -0.37793,-0.75008 1.23343,-0.25398 0.11115,0.0342 0.0243,0.23132 0.0374,0.34689 0.0226,0.20069 0.0465,0.40125 0.0697,0.60188 0.34552,1.39996 0.93391,2.73928 1.58985,4.02047 0.44618,0.54033 0.68357,1.2679 1.20889,1.73993 0.70255,0.75649 -0.36729,1.75006 -1.06984,0.99357 v 0 c -0.54698,-0.64334 -0.92416,-1.40235 -1.38057,-2.11001 -0.70463,-1.42813 -1.34211,-2.91082 -1.73564,-4.45641 -0.005,-0.0321 -0.20627,-1.2502 -0.15513,-1.30112 1.56467,-1.55801 1.54945,-0.51415 1.63668,0.51247 -0.0863,1.18775 -0.34209,2.33733 -0.93065,3.38781 -1.01981,1.74133 -2.316,3.35956 -4.05062,4.4332 -0.31815,0.14204 -0.62245,0.32041 -0.95444,0.42611 -1.51597,0.48267 -2.94155,-0.0307 -4.04186,-1.1066 -0.17245,-0.22157 -0.36799,-0.42696 -0.51734,-0.66471 -0.73665,-1.17258 -0.78927,-2.58654 -0.47914,-3.89995 0.0841,-0.21289 0.14316,-0.43743 0.25223,-0.63866 0.57155,-1.05447 1.70911,-1.37245 2.80252,-1.60129 1.64631,-0.31197 3.32244,-0.34628 4.98636,-0.1346 0.992,0.1984 0.71142,1.60129 -0.28057,1.40289 z"
       inkscape:connector-curvature="0" />
    <path
       style="fill:#ff0000;stroke-width:0.26458332"
       id="path4623"
       d="m 193.48796,266.0349 c -0.0628,1.9018 -0.0588,3.80523 -0.0634,5.70787 -7.9e-4,2.08165 5.3e-4,4.16338 0.0215,6.24495 -0.028,1.22927 0.11764,2.46588 -0.0721,3.68593 -0.0309,0.0983 -0.0619,0.19655 -0.0928,0.29482 -0.40271,0.96804 -1.77173,0.39851 -1.36902,-0.56953 v 0 c 0.0114,-0.004 0.0229,-0.007 0.0343,-0.0107 0.29814,-1.09704 0.0383,-2.28139 0.14316,-3.40055 0.0211,-2.08156 0.0223,-4.16329 0.0215,-6.24494 -0.005,-1.90265 -5.3e-4,-3.80607 -0.0634,-5.70787 0,-1.01839 1.44021,-1.01839 1.44021,0 z"
       inkscape:connector-curvature="0" />
    <path
       style="fill:#ff0000;stroke-width:0.26458332"
       id="path4625"
       d="m 193.12679,267.43857 c 0.96765,-0.5114 2.11624,-1.16561 3.25204,-0.81523 0.20254,0.0625 0.37899,0.18994 0.56848,0.28492 1.07766,0.86916 0.84901,2.06298 0.49338,3.23155 -0.27457,0.83657 -0.74678,1.6618 -0.76478,2.56012 0.0169,0.0107 0.0547,0.0516 0.0507,0.032 -0.0747,-0.36745 -0.15514,-0.32081 -0.47091,-0.50005 0.9784,-0.36014 1.48772,1.02352 0.50932,1.38367 v 0 c -0.90703,0.27457 -1.4703,-0.0525 -1.53141,-1.02717 0.10835,-0.99825 0.47404,-1.92518 0.84439,-2.85298 0.13816,-0.47889 0.43325,-1.11423 0.14265,-1.58409 -0.65605,-0.60911 -1.72941,0.16118 -2.33241,0.50565 -0.86152,0.53845 -1.62299,-0.67992 -0.76148,-1.21837 z"
       inkscape:connector-curvature="0" />
    <path
       style="fill:#ff0000;stroke-width:0.26458332"
       id="path4627"
       d="m 199.00328,267.82865 c 1.01933,-0.95696 2.12858,-1.73792 3.51241,-2.01535 1.36528,-0.0951 1.96093,0.38701 2.17316,1.72907 -0.009,1.09754 -0.55394,1.98561 -1.10736,2.88696 -0.52333,0.66749 -0.78837,1.40562 -0.92775,2.22972 -0.0352,0.54422 -0.22625,0.71915 0.28546,0.84107 0.68405,-0.14155 1.27584,-0.54412 1.8822,-0.87187 0.87934,-0.47634 1.55299,0.76723 0.67365,1.24357 v 0 c -0.97985,0.53203 -1.95219,1.25216 -3.12615,0.97197 -1.10306,-0.5248 -1.32039,-1.26548 -1.12628,-2.43227 0.17989,-0.99698 0.49417,-1.91961 1.12187,-2.732 0.38643,-0.62509 0.7962,-1.22674 0.88655,-1.9768 0.0182,-0.39525 -0.0468,-0.50489 -0.50381,-0.476 -1.10436,0.11001 -1.96882,0.86348 -2.73063,1.61525 -0.71653,0.71652 -1.72985,-0.2968 -1.01332,-1.01332 z"
       inkscape:connector-curvature="0" />
    <path
       style="fill:#ff0000;stroke-width:0.26458332"
       id="path4629"
       d="m 209.43539,267.39078 c 0.17788,1.11912 0.43611,2.27025 1.23988,3.1099 0.38497,0.21429 0.68693,-0.15704 0.92707,-0.43627 0.476,-0.51182 0.66923,-1.14774 0.78118,-1.82004 0.0124,-0.11381 0.0349,-0.22697 0.0372,-0.34143 0.002,-0.11494 0.0365,-0.29176 -0.0688,-0.33794 -0.0326,-0.0143 -0.0253,0.1001 0.01,0.10645 1.27644,0.23114 1.29994,-0.30401 1.23507,0.2406 0.0467,0.86922 0.21282,1.72218 0.4042,2.5695 0.39862,1.5147 0.73592,3.04558 1.03662,4.5826 0.35943,1.71064 0.24123,3.31935 -0.18109,4.99972 -0.6025,1.81068 -1.48709,3.21852 -2.9773,4.40965 -1.48367,0.97229 -2.76241,1.03375 -4.42332,0.54854 -1.48224,-0.51751 -2.33715,-1.34957 -2.91259,-2.79167 -0.48235,-1.61335 -0.25065,-2.63271 0.80782,-3.91811 1.25168,-1.14702 2.94342,-1.4864 4.56202,-1.78089 0.95413,-0.16843 1.19232,1.18091 0.23819,1.34934 v 0 c -1.30443,0.22256 -2.68905,0.487 -3.73384,1.35535 -0.67101,0.70923 -0.869,1.54734 -0.55876,2.48763 0.3545,0.97304 0.99678,1.62207 1.99491,1.96112 1.20265,0.36612 2.06887,0.38328 3.17693,-0.30263 1.22606,-0.91886 2.02644,-2.19951 2.50819,-3.64979 0.368,-1.46163 0.45709,-2.92469 0.1438,-4.41202 -0.27736,-1.52134 -0.61785,-3.03372 -1.04569,-4.51999 -0.25099,-1.0419 -0.49908,-2.10407 -0.47305,-3.18222 0.18069,-0.78887 0.0301,-0.7363 1.50625,-0.66236 0.20644,0.0104 0.18611,1.36119 0.13527,1.53671 -0.17137,0.94905 -0.48722,1.83761 -1.15311,2.56108 -0.9347,0.94814 -1.91452,1.32369 -3.04873,0.38574 -0.89313,-1.07768 -1.30132,-2.37564 -1.57225,-3.73653 -0.22065,-0.99292 1.18356,-1.30497 1.40421,-0.31204 z"
       inkscape:connector-curvature="0" />
    <path
       style="fill:#ff0000;stroke-width:0.26458332"
       id="path4631"
       d="m 217.0615,273.1589 c 0.89281,-0.9721 1.32199,-2.2063 1.60984,-3.46877 0.0874,-0.41698 0.15272,-0.85143 0.0714,-1.27601 -0.006,-0.0299 -0.0516,-0.11045 -0.0387,-0.0829 0.34847,0.74251 0.0378,0.39107 1.39381,0.17623 0.11558,0.83701 0.51046,1.54639 0.9277,2.26422 0.4352,0.74682 0.83573,1.58263 1.52008,2.13766 0.0172,0.0194 0.32669,0.21588 0.36508,0.0561 0.005,-0.0222 -0.0334,-0.0463 -0.0207,-0.0652 0.10074,-0.14978 0.25029,-0.26102 0.36151,-0.4032 0.40516,-0.73005 0.47401,-1.56686 0.53042,-2.38318 0.15523,-1.03997 0.0393,-1.60679 1.64595,-1.07332 0.0365,0.0121 0.30476,0.78477 0.3324,0.86241 0.30994,1.01889 0.54883,2.06576 0.99064,3.03818 0.24407,0.41936 0.10984,0.23377 0.39164,0.5646 0.62851,0.79965 -0.50236,1.68849 -1.13086,0.88885 v 0 c -0.42298,-0.56428 -0.23253,-0.26806 -0.57103,-0.88886 -0.41605,-1.00733 -0.69395,-2.06125 -1.02883,-3.09716 -0.074,-0.18765 -0.20857,-0.50842 -0.18682,-0.51705 1.58043,-0.62657 1.09798,-0.48397 0.97829,0.32596 -0.085,1.11438 -0.2132,2.23428 -0.8407,3.19378 -0.82103,0.97015 -1.63327,1.41407 -2.77591,0.5811 -0.75746,-0.7038 -1.29123,-1.59592 -1.77741,-2.50235 -0.56797,-0.94778 -1.06918,-1.92514 -1.16433,-3.04708 0.41653,-0.28221 0.76307,-0.71837 1.24958,-0.84663 0.16707,-0.044 0.19564,0.28819 0.25928,0.44883 0.23391,0.59042 -0.0805,1.38224 -0.12715,1.96676 -0.36212,1.47415 -0.89749,2.89468 -1.87303,4.08312 -0.66195,0.77228 -1.75411,-0.16386 -1.09216,-0.93614 z"
       inkscape:connector-curvature="0" />
    <path
       style="fill:#ff0000;stroke-width:0.26458332"
       id="path4633"
       d="m 230.81636,271.63902 c 1.07166,-0.18462 1.92288,-0.69431 2.47905,-1.6269 0.1653,-0.38566 0.41141,-0.80992 -5.3e-4,-1.08247 -0.35875,-0.21004 -0.74291,-0.17779 -1.09882,0.0162 -0.72271,0.2875 -1.13669,0.85995 -1.5037,1.51615 -0.3495,0.83826 -0.59679,1.78053 -0.21003,2.64093 0.51888,0.91668 1.55406,1.22332 2.5166,1.45235 0.88357,0.20725 1.76372,0.15484 2.64865,0.006 0.98083,-0.16427 1.21314,1.22283 0.23231,1.3871 v 0 c -1.07639,0.17986 -2.14496,0.22476 -3.21752,-0.0322 -1.4232,-0.3628 -2.82978,-0.9173 -3.50966,-2.32235 -0.0745,-0.22547 -0.17438,-0.44408 -0.22344,-0.67641 -0.2251,-1.06603 0.12235,-2.18464 0.52712,-3.15774 0.52381,-0.91149 1.14264,-1.72406 2.14539,-2.13806 0.94886,-0.39213 1.91073,-0.38098 2.73874,0.29319 0.84532,0.96488 0.72238,1.7766 0.15208,2.86869 -0.84626,1.25172 -1.89723,1.89705 -3.36421,2.25954 -0.99293,0.22065 -1.30497,-1.18357 -0.31205,-1.40421 z"
       inkscape:connector-curvature="0" />
    <path
       style="fill:#ff0000;stroke-width:0.26458332"
       id="path4635"
       d="m 241.18472,267.8297 c 0.27071,1.56483 0.5553,3.13209 0.87595,4.68822 0.11789,0.55714 0.22242,1.11176 0.39004,1.65598 0.27261,0.96947 -1.09842,1.35499 -1.37103,0.38553 v 0 c -0.15254,-0.58622 -0.26527,-1.17694 -0.37458,-1.77292 -0.29772,-1.56088 -0.54673,-3.1307 -0.92326,-4.67623 -0.1984,-0.99199 1.20449,-1.27257 1.40288,-0.28058 z"
       inkscape:connector-curvature="0" />
    <path
       style="fill:#ff0000;stroke-width:0.26458332"
       id="path4637"
       d="m 242.39856,270.08385 c 1.08715,-0.46504 2.00485,-1.17343 2.73903,-2.09315 0.50254,-0.66425 0.89076,-1.13736 1.8007,-0.45336 0.19241,0.14463 0.20471,0.75488 0.22225,0.96283 -0.0357,1.05428 0.11163,2.08676 0.31702,3.1171 0.20593,0.89649 0.55073,1.73695 0.97646,2.54713 0.46674,0.90722 -0.81627,1.56728 -1.283,0.66006 v 0 c -0.47141,-0.9353 -0.84521,-1.9088 -1.0737,-2.93437 -0.21124,-1.07746 -0.38315,-2.15887 -0.38198,-3.26051 -0.008,-0.0792 -0.0469,-0.16148 -0.0236,-0.23758 0.01,-0.0318 0.0443,0.0567 0.0768,0.0637 0.25599,0.0552 0.51449,0.11797 0.77634,0.12008 0.0509,5.3e-4 0.15301,-0.12164 0.10282,-0.113 -0.0626,0.0108 -0.1032,0.0751 -0.14738,0.12067 -0.0958,0.0989 -0.18081,0.2076 -0.27121,0.31139 -0.90326,1.06004 -1.99463,1.88469 -3.24834,2.4989 -0.92625,0.41167 -1.50843,-0.89824 -0.58218,-1.3099 z"
       inkscape:connector-curvature="0" />
    <path
       style="fill:#ff0000;stroke-width:0.26458332"
       id="path4639"
       d="m 251.73688,267.4673 c 0.13741,1.45096 0.16929,2.91006 0.30563,4.36046 0.21231,1.11403 0.10948,2.29451 0.45852,3.38017 0.25923,0.99175 -1.14332,1.35837 -1.40256,0.36661 v 0 c -0.26244,-1.18919 -0.2567,-2.41462 -0.42727,-3.61844 -0.13442,-1.44209 -0.14472,-2.89562 -0.36528,-4.3298 -0.11243,-1.01185 1.31854,-1.17085 1.43096,-0.159 z"
       inkscape:connector-curvature="0" />
    <path
       style="fill:#ff0000;stroke-width:0.26458332"
       id="path4641"
       d="m 251.26871,270.23581 c 0.62086,-1.13732 1.47499,-2.03765 2.61907,-2.63877 1.09994,-0.39773 2.11901,-0.0555 3.01571,0.61396 0.85836,0.75952 1.05069,1.84954 1.1642,2.93251 0.10443,1.11038 0.039,2.21278 -0.11414,3.31373 0.004,0.0427 0.0534,0.14045 0.0122,0.12821 -0.47824,-0.1422 -0.99325,-0.24532 -1.39608,-0.53968 -0.12091,-0.0884 0.0337,-0.29768 0.0459,-0.44696 0.044,-0.54102 0.10065,-1.07165 0.17873,-1.60932 0.10631,-0.99234 0.33816,-1.77139 1.06119,-2.47747 0.69556,-0.5749 1.55945,-0.71877 2.42953,-0.79784 1.11797,-0.0262 1.8728,0.5283 2.45621,1.43116 0.55578,1.09678 0.58251,2.3463 0.64286,3.54924 0.0243,0.72383 0.0146,0.36877 0.0294,1.06516 0.0146,1.00634 -1.40858,1.02696 -1.42316,0.0206 v 0 c -0.005,-0.66949 0,-0.32909 -0.0148,-1.02118 -0.0397,-0.96156 -0.0572,-1.96487 -0.45582,-2.85786 -0.25295,-0.44846 -0.56732,-0.73043 -1.10541,-0.74643 -0.53816,0.0474 -1.09968,0.0968 -1.55731,0.41243 -0.4713,0.42265 -0.58457,1.01077 -0.65698,1.63049 -0.0364,0.24038 -0.11462,0.72993 -0.13587,0.97501 -0.0265,0.30482 -0.0377,1.06369 -0.0656,1.0775 -0.45559,0.2249 -0.99854,0.24203 -1.50651,0.23188 -0.0881,-0.002 0.0265,-0.17412 0.0395,-0.26119 0.19187,-0.96925 0.21587,-1.94665 0.1176,-2.93019 -0.0692,-0.67435 -0.1325,-1.42025 -0.62092,-1.93553 -0.43109,-0.3433 -0.93125,-0.59745 -1.49788,-0.48027 -0.89153,0.41817 -1.54162,1.11799 -1.97297,2.00506 -0.45557,0.91115 -1.74414,0.26687 -1.28856,-0.64428 z"
       inkscape:connector-curvature="0" />
  </g>
</svg>
