<?xml version="1.0" encoding="UTF-8" standalone="no"?>
<!-- Created with Inkscape (http://www.inkscape.org/) -->

<svg
   xmlns:dc="http://purl.org/dc/elements/1.1/"
   xmlns:cc="http://creativecommons.org/ns#"
   xmlns:rdf="http://www.w3.org/1999/02/22-rdf-syntax-ns#"
   xmlns:svg="http://www.w3.org/2000/svg"
   xmlns="http://www.w3.org/2000/svg"
   xmlns:sodipodi="http://sodipodi.sourceforge.net/DTD/sodipodi-0.dtd"
   xmlns:inkscape="http://www.inkscape.org/namespaces/inkscape"
   width="297mm"
   height="210mm"
   viewBox="0 0 297 210"
   version="1.1"
   id="svg4649"
   inkscape:version="0.92.1 r15371"
   sodipodi:docname="fizzbuzz piccha.svg">
  <defs
     id="defs4643" />
  <sodipodi:namedview
     id="base"
     pagecolor="#ffffff"
     bordercolor="#666666"
     borderopacity="1.0"
     inkscape:pageopacity="0.0"
     inkscape:pageshadow="2"
     inkscape:zoom="0.7"
     inkscape:cx="848.35311"
     inkscape:cy="410.00916"
     inkscape:document-units="mm"
     inkscape:current-layer="layer1"
     showgrid="false"
     inkscape:window-width="1920"
     inkscape:window-height="1001"
     inkscape:window-x="-9"
     inkscape:window-y="-9"
     inkscape:window-maximized="1" />
  <metadata
     id="metadata4646">
    <rdf:RDF>
      <cc:Work
         rdf:about="">
        <dc:format>image/svg+xml</dc:format>
        <dc:type
           rdf:resource="http://purl.org/dc/dcmitype/StillImage" />
        <dc:title></dc:title>
      </cc:Work>
    </rdf:RDF>
  </metadata>
  <g
     inkscape:label="Layer 1"
     inkscape:groupmode="layer"
     id="layer1"
     transform="translate(0,-87)">
    <path
       style="fill:#000000;stroke-width:0.26458332"
       id="path5701"
       d="m 176.45514,120.93725 c -0.11167,2.1001 -0.0947,4.20512 -0.0973,6.30758 -0.0152,2.71274 -0.0284,5.42548 -0.0356,8.13825 0.009,2.75123 0.0175,5.50243 0.0118,8.25368 -0.003,3.35774 -0.0941,6.71469 -0.0307,10.07207 0.13923,4.00323 0.18069,8.00967 0.33239,12.01229 0.13413,4.10166 0.33512,8.20024 0.68614,12.28921 0.34427,4.42244 0.89178,8.8251 1.32712,13.23876 0.41094,4.73858 0.7449,9.4823 1.08296,14.22634 0.30046,5.11849 0.60422,10.23707 0.88078,15.35702 0.26359,5.68559 0.52056,11.37136 0.80073,17.05617 0.33558,5.09635 0.59579,10.19612 0.75947,15.30081 0.17313,3.30623 0.0461,6.62792 0.29168,9.92984 0.0338,0.25824 0.0675,0.51647 0.10132,0.7747 0.11113,1.44711 -1.93538,1.60427 -2.04651,0.15717 v 0 c -0.008,-0.28336 -0.0156,-0.56671 -0.0235,-0.85007 -0.0362,-3.32275 0.0969,-6.64684 0.0125,-9.96994 -0.0918,-5.09444 -0.29473,-10.18498 -0.61462,-15.2705 -0.25839,-5.68036 -0.50963,-11.36082 -0.83932,-17.03761 -0.31807,-5.11041 -0.62011,-10.22159 -0.92757,-15.33258 -0.34079,-4.72937 -0.7402,-9.45236 -1.15322,-14.17595 -0.43673,-4.41928 -0.9648,-8.82936 -1.34085,-13.25454 -0.37577,-4.11691 -0.60941,-8.24354 -0.74543,-12.37534 -0.13941,-4.01072 -0.15413,-8.0253 -0.33851,-12.0349 -0.0931,-3.37004 -0.0975,-6.74183 -0.12114,-10.11295 -0.006,-2.75125 0.003,-5.50245 0.0118,-8.25368 -0.007,-2.71277 -0.0203,-5.42551 -0.0356,-8.13825 -0.003,-2.10246 0.0144,-4.20748 -0.0973,-6.30758 0,-1.51913 2.14837,-1.51913 2.14837,0 z"
       inkscape:connector-curvature="0" />
    <path
       style="fill:#000000;stroke-width:0.26458332"
       id="path5703"
       d="m 102.23458,185.98558 c 1.88087,0.28012 3.78682,0.29018 5.68074,0.41862 2.42196,0.15401 4.83406,0.41984 7.25492,0.58792 3.12781,0.19912 6.26515,0.0236 9.39127,-0.12664 4.00561,-0.21603 8.01694,-0.26497 12.02725,-0.30861 4.32438,0.0128 8.64428,-0.22318 12.95861,-0.49334 4.96756,-0.34028 9.94535,-0.46885 14.92258,-0.5582 5.0339,0.001 10.0627,-0.17027 15.09129,-0.38058 5.3536,-0.23688 10.70427,-0.50959 16.06152,-0.65423 5.5786,-0.19697 11.15795,-0.3562 16.73362,-0.62776 5.76448,-0.33147 11.5361,-0.48773 17.30893,-0.56148 6.25063,-0.0576 12.50158,-0.009 18.75231,0.005 5.96137,0.0129 11.90329,-0.50862 17.82851,-1.10999 2.25462,-0.22749 4.51001,-0.43991 6.76238,-0.68864 1.21655,-0.11555 1.37996,1.6049 0.16343,1.72045 v 0 c -2.25988,0.18017 -4.52175,0.33101 -6.78026,0.52821 -5.97898,0.50938 -11.96818,0.97369 -17.97398,0.93487 -6.24403,0.0151 -12.488,0.0503 -18.73168,0.11983 -5.75393,0.0844 -11.50803,0.20947 -17.25383,0.54441 -5.58662,0.29527 -11.17687,0.50206 -16.76782,0.69648 -5.3476,0.14065 -10.68884,0.40459 -16.03163,0.66549 -5.04226,0.24752 -10.0864,0.43519 -15.13595,0.41304 -4.95002,0.0767 -9.90079,0.21357 -14.83716,0.61098 -4.34385,0.31595 -8.69486,0.55448 -13.05179,0.55134 -3.98416,0.0452 -7.96915,0.12948 -11.94647,0.38088 -3.19901,0.20349 -6.40877,0.41124 -9.61484,0.25916 -2.42248,-0.14417 -4.83472,-0.40572 -7.25801,-0.53799 -1.92079,-0.11654 -3.84638,-0.13881 -5.76766,-0.25228 -1.51117,-0.15112 -1.29746,-2.28824 0.21372,-2.13712 z"
       inkscape:connector-curvature="0" />
    <path
       style="fill:#000000;stroke-width:0.26458332"
       id="path5705"
       d="m 183.30296,112.45731 c 0.0675,1.00373 0.40876,1.90083 1.24918,2.48335 0.0567,0.009 0.1199,0.0564 0.17009,0.0284 0.0315,-0.0176 -0.0441,-0.0639 -0.0417,-0.1 0.002,-0.0308 0.0337,-0.052 0.0534,-0.0757 0.12728,-0.15268 0.1709,-0.27937 0.25397,-0.46753 0.12341,-0.49112 0.40458,-1.13235 0.17848,-1.62927 0.38334,1.11422 -0.14947,-0.001 2.05949,0.21737 0.12832,0.0127 0.0166,0.25737 0.0273,0.38587 0.069,0.82882 0.19969,1.64612 0.31895,2.46898 0.27463,1.98866 0.40304,3.99345 0.51797,5.9965 0.0584,1.33408 -0.26659,2.70868 -1.67909,3.19991 -0.28052,0.0976 -0.58337,0.11188 -0.87506,0.16782 -1.55261,0.0745 -3.13566,-0.19787 -4.56014,-0.823 -0.1417,-0.0988 -0.28341,-0.19762 -0.42511,-0.29643 -1.1768,-1.01694 0.26138,-2.68119 1.43818,-1.66424 v 0 c -0.0114,0.0138 -0.0227,0.0277 -0.034,0.0415 0.92907,0.61857 2.17198,0.68055 3.25362,0.65571 0.9326,-0.0485 0.74802,-0.15472 0.82774,-1.20151 -0.0381,-1.92726 -0.13817,-3.85669 -0.45274,-5.76142 -0.14889,-0.86575 -0.33309,-1.73005 -0.43753,-2.60277 -0.0305,-0.25487 -0.26083,-0.59307 -0.0718,-0.76673 0.54716,-0.50265 1.26379,-0.85569 1.99299,-0.99818 0.20122,-0.0393 0.17206,0.37221 0.25808,0.55831 0.13842,1.05061 -0.0215,2.09503 -0.44647,3.06843 -0.65894,1.14499 -1.59816,2.00756 -3.03599,1.59047 -0.22747,-0.066 -0.41962,-0.21977 -0.62943,-0.32965 -1.23616,-1.06678 -1.80004,-2.30115 -2.05678,-3.90773 -0.16864,-1.51777 1.97781,-1.75627 2.14645,-0.2385 z"
       inkscape:connector-curvature="0" />
    <path
       style="fill:#000000;stroke-width:0.26458332"
       id="path5707"
       d="m 170.81561,124.17593 c 0.75732,-1.35493 1.34115,-2.80123 1.93137,-4.23504 0.4169,-0.61564 0.48577,-2.04515 0.90051,-2.60428 0.15925,-0.21469 0.37305,-0.38294 0.55957,-0.57441 0.4531,0.0417 0.94617,-0.0656 1.35931,0.12503 0.56133,0.25905 1.14578,2.96354 1.34412,3.59918 0.43201,1.43868 1.15474,2.74578 1.93248,4.01948 0.37179,0.61352 0.6461,1.27254 0.90626,1.93814 0.52195,1.39851 -1.45585,2.13667 -1.9778,0.73815 v 0 c -0.19333,-0.5508 -0.40067,-1.09523 -0.70597,-1.59667 -0.85535,-1.41538 -1.60209,-2.89014 -2.10535,-4.47148 -0.41553,-1.25535 -0.12428,-0.35986 -0.50158,-1.55805 -0.0627,-0.19923 -0.12486,-0.39866 -0.19014,-0.59707 -0.0352,-0.10699 -0.13564,-0.20909 -0.11126,-0.31904 0.0133,-0.0598 0.10884,0.0563 0.16326,0.0845 0.35282,-0.0263 0.70565,-0.0527 1.05848,-0.079 0.0797,-0.12503 0.15657,-0.25198 0.23924,-0.37509 0.0426,-0.0634 -0.0864,0.12672 -0.11888,0.19584 -0.34346,0.73127 -0.46513,1.5573 -0.85316,2.27294 -0.63048,1.46883 -1.26422,2.93564 -1.89761,4.40327 -0.68336,1.36673 -2.61621,0.40031 -1.93285,-0.96642 z"
       inkscape:connector-curvature="0" />
    <path
       style="fill:#000000;stroke-width:0.26458332"
       id="path5709"
       d="m 272.7838,178.86465 c 1.51402,0.37874 3.03805,0.71656 4.54321,1.12978 0.95351,0.36115 2.22959,0.40787 3.01765,1.13432 0.1796,0.16556 0.30428,0.3822 0.45644,0.5733 0.0567,0.26712 0.18521,0.52869 0.17018,0.80135 -0.067,1.21647 -1.32588,2.03461 -2.22774,2.62823 -0.27326,0.20973 -2.2587,1.14238 -2.23689,1.26891 -1.11181,1.08469 -2.64581,-0.48764 -1.53398,-1.57233 v 0 c 0.78253,-0.65964 1.76916,-0.90657 2.61951,-1.46571 0.31911,-0.20404 1.14599,-0.95644 1.15194,-0.95447 0.14444,0.0479 -0.11184,0.44725 0.18116,0.41894 0.0476,0.0167 0.11824,0.0943 0.14274,0.0502 0.0344,-0.0619 -0.15311,-0.17506 -0.47453,-0.30413 -0.59073,-0.23722 -1.20964,-0.41203 -1.81946,-0.59032 -1.46611,-0.41341 -2.94928,-0.79504 -4.45831,-1.01175 -1.48939,-0.33098 -1.02131,-2.4373 0.46808,-2.10632 z"
       inkscape:connector-curvature="0" />
    <path
       style="fill:#000000;stroke-width:0.26458332"
       id="path5711"
       d="m 281.84872,186.61761 c 1.43197,-0.5245 2.97859,-0.64359 4.35665,0.11539 0.27511,0.15152 0.51612,0.3581 0.77417,0.53715 0.95605,0.85152 1.76612,2.01629 1.89593,3.32912 0.0235,0.23751 -0.003,0.47733 -0.005,0.716 -0.45186,1.87352 -1.78446,2.29517 -3.50462,2.59762 -1.31503,0.0712 -2.69184,0.1449 -3.93425,-0.35676 -0.75004,-1.25948 -0.85442,-1.57138 0.43146,-2.32152 1.39491,-0.6883 2.36831,1.28441 0.9734,1.97272 v 0 c 0.50845,-0.74588 0.20235,-0.87231 -0.30919,-1.57706 -0.40172,0.0576 0.53091,0.19181 0.62021,0.20242 0.25588,0.0304 1.00459,0.056 1.25735,0.0539 0.19849,-0.002 0.39666,-0.017 0.595,-0.0255 0.63346,-0.11521 1.25843,-0.19608 1.73373,-0.64916 0.14282,-0.86033 -0.38616,-1.67615 -0.9689,-2.26248 -0.96954,-0.75309 -1.79134,-0.92517 -2.9499,-0.39904 -1.36673,0.68336 -2.33317,-1.24948 -0.96644,-1.93285 z"
       inkscape:connector-curvature="0" />
    <path
       style="fill:#000000;stroke-width:0.26458332"
       id="path5760"
       d="m 293.33396,187.87584 c -0.95427,-0.14401 -1.9413,-0.16078 -2.85686,0.16976 -0.39011,0.24416 -1.00484,0.44045 -1.17999,0.90919 -0.16024,0.48269 -0.15841,0.99902 -0.16624,1.50211 -0.0364,0.51199 0.0553,0.99437 0.42825,1.36064 0.54653,0.4906 1.2487,0.68116 1.93342,0.88889 0.70503,0.21063 1.43465,0.30243 2.16659,0.34725 0.42151,0.0326 0.83855,-0.0705 1.25368,-0.13256 1.0713,-0.15764 1.29423,1.35741 0.22294,1.51505 v 0 c -0.52544,0.076 -1.05405,0.18995 -1.58745,0.13167 -0.84159,-0.0703 -1.67558,-0.206 -2.48761,-0.44353 -0.95039,-0.29059 -1.89791,-0.58578 -2.63017,-1.29856 -0.6272,-0.73913 -0.85241,-1.4273 -0.81786,-2.39952 0.0185,-0.76186 0.0281,-1.54206 0.36746,-2.24265 0.0849,-0.13173 0.15689,-0.27283 0.25484,-0.39521 0.44337,-0.55397 1.17332,-0.85907 1.7897,-1.15834 1.12792,-0.33052 2.29269,-0.33448 3.4604,-0.26536 1.06858,0.10686 0.91745,1.61803 -0.1511,1.51117 z"
       inkscape:connector-curvature="0" />
    <path
       style="fill:#000000;stroke-width:0.26458332"
       id="path5762"
       d="m 12.453058,104.57742 c 0.102831,1.87942 0.685725,3.63046 1.528942,5.29545 0.586543,0.93186 1.484537,2.13792 2.715759,2.12208 0.97065,-0.38064 1.33456,-1.50015 1.671478,-2.39677 0.434271,-1.40775 0.580294,-2.88213 0.599078,-4.34941 -0.0278,-1.41371 0.443119,-1.41686 2.255046,-0.4219 0.18826,0.10337 0.05377,0.42617 0.08198,0.63909 0.116663,0.88026 0.159629,1.16457 0.29356,2.10785 0.523221,3.85017 1.199168,7.67637 1.80209,11.51407 0.31233,2.95023 0.993909,5.94903 0.700141,8.93246 -0.04618,0.46894 -0.152377,0.93002 -0.228566,1.39503 -0.664128,2.25186 -2.104048,3.83742 -4.47788,4.29822 -0.460496,0.0894 -0.934718,0.0806 -1.402077,0.12086 -0.484413,-0.0607 -0.978851,-0.0667 -1.453241,-0.18196 -1.970134,-0.47877 -3.655263,-1.76979 -4.748301,-3.45668 -0.255206,-0.39386 -0.442664,-0.82769 -0.663996,-1.24154 -0.511426,-1.18905 -0.560357,-2.395 -0.525599,-3.65928 0.0859,-1.42941 2.107399,-1.30793 2.021493,0.12149 v 0 c -0.09669,0.90798 -0.10535,1.76972 0.223333,2.64547 0.163162,0.32695 0.30063,0.66804 0.489485,0.98085 0.987708,1.63602 2.601693,2.6787 4.505782,2.84637 0.32922,-0.0216 0.66218,-0.0107 0.98766,-0.0647 1.621622,-0.26893 2.608549,-1.25048 3.149652,-2.7572 0.07999,-0.38462 0.18659,-0.76465 0.239967,-1.15386 0.390119,-2.84461 -0.244548,-5.73917 -0.509592,-8.56175 -0.591992,-3.82577 -1.264409,-7.64052 -2.025278,-11.4364 -0.153764,-0.71367 -0.283622,-1.35046 -0.457993,-2.05129 -0.04019,-0.16151 -0.294718,-0.44418 -0.132499,-0.48141 3.719258,-0.85367 1.470734,0.92208 2.03465,-0.39023 0.0491,-0.11427 -0.02791,0.24716 -0.04186,0.37074 -0.154514,1.66651 -0.283461,3.34654 -0.815148,4.94719 -0.5516,1.47733 -1.260575,3.17955 -2.937825,3.65789 -0.295728,0.0843 -0.61018,0.0772 -0.915269,0.11574 -0.294701,-0.055 -0.598003,-0.0755 -0.884101,-0.16507 -1.523494,-0.47699 -2.576337,-1.85222 -3.338747,-3.16537 -0.91329,-1.89855 -1.564425,-3.87228 -1.879247,-5.96233 -0.151117,-1.51117 1.986003,-1.72489 2.13712,-0.21371 z"
       inkscape:connector-curvature="0" />
    <path
       style="fill:#000000;stroke-width:0.26458332"
       id="path5764"
       d="m 29.059616,105.91583 c -1.23824,1.97315 -1.508556,4.33082 -1.769203,6.59577 -0.189349,1.84127 -0.195617,3.73534 0.276963,5.53895 0.250354,0.95548 0.409128,1.20115 0.814586,2.07961 0.849794,1.58943 2.202686,2.63409 3.836493,3.31783 1.31777,0.57853 0.49961,2.44214 -0.81816,1.86361 v 0 c -2.123729,-0.96608 -3.738875,-2.26139 -4.802781,-4.38937 -0.171727,-0.39993 -0.367769,-0.79028 -0.51518,-1.19979 -0.853454,-2.37096 -0.878902,-4.93636 -0.649785,-7.41581 0.269031,-2.54205 0.589364,-5.11686 1.752139,-7.43243 0.736539,-1.32578 2.61147,-0.28415 1.874928,1.04163 z"
       inkscape:connector-curvature="0" />
    <path
       style="fill:#000000;stroke-width:0.26458332"
       id="path5766"
       d="m 31.438278,111.01204 c 1.553742,-0.43781 3.202019,-0.48968 4.750345,0.0167 0.339024,0.11087 0.659207,0.2727 0.988809,0.40906 1.916726,1.00906 2.831089,2.36334 3.52866,4.35385 0.302313,1.53388 -0.05787,3.05629 -1.458571,3.92333 -0.276233,0.17099 -0.590529,0.271 -0.88579,0.4065 -1.527657,0.44827 -3.149807,0.75079 -4.738346,0.52236 -0.738558,-0.23119 -0.363591,-0.0468 -1.084602,-0.62856 -0.999609,-1.20237 0.700797,-2.61603 1.700406,-1.41366 v 0 c -0.351409,-0.16136 -0.400868,-0.21448 -0.209016,-0.061 1.120334,0.34469 2.398906,-0.0655 3.497236,-0.31677 0.933122,-0.37599 1.297874,-0.69876 1.209588,-1.77593 -0.412149,-1.32731 -1.085135,-2.46905 -2.351886,-3.1469 -1.430481,-0.63151 -2.775106,-0.84989 -4.265518,-0.24502 -1.445286,0.48176 -2.126601,-1.56218 -0.681315,-2.04394 z"
       inkscape:connector-curvature="0" />
    <path
       style="fill:#000000;stroke-width:0.26458332"
       id="path5768"
       d="m 46.24938,112.93426 c -1.379635,0.27572 -2.156407,0.56818 -2.780133,1.85687 -0.335907,1.0673 -0.01463,1.984 0.650312,2.82659 0.820732,0.9118 1.909524,1.19201 3.093093,1.18232 1.052208,-0.11471 2.077095,-0.40007 3.102752,-0.65128 1.408803,-0.33221 1.878621,1.66014 0.469818,1.99235 v 0 c -1.187458,0.26918 -2.36493,0.62051 -3.583186,0.71701 -2.03546,-0.0286 -3.354448,-0.46357 -4.759983,-1.99451 -1.213977,-1.69421 -1.500799,-3.03548 -0.804958,-5.04839 0.152334,-0.27176 0.27618,-0.56158 0.456999,-0.81529 0.880613,-1.23554 2.330254,-1.77411 3.734419,-2.17 1.487988,-0.2976 1.908855,1.80674 0.420867,2.10433 z"
       inkscape:connector-curvature="0" />
    <path
       style="fill:#000000;stroke-width:0.26458332"
       id="path5770"
       d="m 52.334122,105.77159 c 2.087047,1.16819 3.558755,2.55023 4.946203,4.48398 1.39963,2.07237 1.941235,4.46026 2.117389,6.91583 -0.02053,1.81252 -0.170892,3.72658 -1.110578,5.32918 -0.156329,0.26661 -0.357772,0.50406 -0.53666,0.7561 -0.48869,0.61309 -1.1176,0.98019 -1.802135,1.32376 -1.36607,0.63606 -2.265587,-1.29586 -0.89952,-1.93191 v 0 c 0.391618,-0.15647 0.752002,-0.32978 1.04947,-0.64272 1.105797,-1.31407 1.334349,-3.0284 1.334021,-4.70095 -0.132458,-2.09004 -0.575942,-4.136 -1.757182,-5.90462 -1.12436,-1.58835 -2.470359,-2.94982 -4.295481,-3.7197 -1.349833,-0.67491 -0.395357,-2.58386 0.954473,-1.90895 z"
       inkscape:connector-curvature="0" />
    <path
       style="fill:#000000;stroke-width:0.26458332"
       id="path5772"
       d="m 65.131264,110.34548 c 1.758074,0.19688 3.524729,0.29521 5.292299,0.35006 0.842989,-0.013 1.660776,0.009 2.480492,0.2083 1.464641,0.43658 0.847212,2.5079 -0.617426,2.07131 v 0 c -0.607142,-0.27893 -1.309145,-0.13703 -1.9549,-0.22435 -1.732664,-0.10063 -3.464624,-0.24853 -5.200465,-0.26889 -1.510681,0 -1.510681,-2.13643 0,-2.13643 z"
       inkscape:connector-curvature="0" />
    <path
       style="fill:#000000;stroke-width:0.26458332"
       id="path5774"
       d="m 65.418816,114.86925 c 1.553567,0.0829 3.11083,0.0615 4.665903,0.0445 1.024263,0.0108 2.048314,-0.0591 3.070632,0.0118 1.511747,0.15246 1.296139,2.2904 -0.215611,2.13794 v 0 c -0.940896,-0.14317 -1.907016,-0.0281 -2.855021,-0.0786 -1.555073,-0.017 -3.112336,-0.0383 -4.665903,0.0445 -1.527577,0 -1.527577,-2.16033 0,-2.16033 z"
       inkscape:connector-curvature="0" />
    <path
       style="fill:#000000;stroke-width:0.26458332"
       id="path5776"
       d="m 79.616691,108.7592 c 2.375058,-0.4002 3.944493,-0.0799 6.093206,0.95136 2.073761,1.09256 3.309215,2.65485 4.220482,4.76902 0.566679,1.46233 0.599091,3.09677 -0.47417,4.34551 -0.206865,0.24068 -0.47102,0.42547 -0.70653,0.63821 -1.597735,1.09949 -3.480893,1.41474 -5.377739,1.49078 -1.056383,-0.0207 -2.07737,-0.17498 -2.971374,-0.75462 -1.206862,-0.99459 0.199703,-2.70135 1.406568,-1.70676 v 0 c -0.467789,-0.002 1.606489,0.54412 1.514271,0.39342 1.427837,-0.008 2.855558,-0.20388 4.076628,-1.00509 1.004774,-0.76387 1.034437,-1.42999 0.651079,-2.61904 -0.642914,-1.62258 -1.628521,-2.93831 -3.211896,-3.75624 -1.60043,-0.79062 -3.033247,-1.16113 -4.799658,-0.64222 -1.48799,0.2976 -1.908858,-1.80673 -0.420867,-2.10433 z"
       inkscape:connector-curvature="0" />
    <path
       style="fill:#000000;stroke-width:0.26458332"
       id="path5778"
       d="m 96.732967,111.35993 c -1.29268,-0.0336 -2.463924,0.44026 -3.335573,1.38482 -0.810162,1.08672 -0.249687,2.0964 0.437645,3.0765 1.3994,1.72451 3.245543,2.87681 5.297522,3.65676 1.885569,0.69242 3.801769,0.43449 5.722839,0.10005 1.42177,-0.22418 1.7388,1.7865 0.31704,2.01068 v 0 c -2.27277,0.32339 -4.54156,0.54754 -6.748005,-0.29016 -2.510602,-0.99537 -4.474331,-2.25775 -6.239954,-4.33259 -0.221075,-0.32117 -0.474634,-0.62224 -0.663223,-0.9635 -0.921354,-1.66722 -0.763895,-3.25506 0.411305,-4.72175 0.225782,-0.2155 0.433136,-0.45212 0.677341,-0.6465 1.167093,-0.92893 2.669352,-1.29198 4.123063,-1.43463 1.52758,0 1.52758,2.16032 0,2.16032 z"
       inkscape:connector-curvature="0" />
    <path
       style="fill:#ff0000;stroke-width:0.2837919"
       id="path5804"
       d="m 96.160855,262.62441 c 1.29095,-1.89637 2.75448,-3.65778 4.281935,-5.37031 1.55029,-1.76285 3.25008,-3.38771 4.8521,-5.10239 1.49372,-1.70504 3.16534,-3.24115 4.81158,-4.79887 1.59683,-1.43145 3.24065,-2.80506 4.80652,-4.2703 1.50019,-1.50976 2.8916,-3.11796 4.30417,-4.70639 1.53227,-1.65923 3.06673,-3.31436 4.56439,-5.00439 1.3108,-1.45209 2.72713,-2.80598 4.11075,-4.1891 1.17307,-1.17214 2.43964,-2.23907 3.71615,-3.29741 1.03789,-0.87951 2.03219,-1.81401 2.98352,-2.78457 1.46288,-1.39458 3.02984,-2.67833 4.52968,-4.03491 1.64695,-1.53881 3.40889,-2.9463 5.10281,-4.43369 1.40568,-1.21465 2.75982,-2.48497 4.08903,-3.78031 1.10679,-1.02522 2.09371,-2.16303 3.10434,-3.27843 0.98249,-1.14285 2.02902,-2.22566 3.09826,-3.28925 0.94957,-0.86792 1.76486,-1.85975 2.63322,-2.80321 0.93633,-1.04843 1.91455,-2.05038 2.9749,-2.97601 1.20091,-0.97017 2.4136,-1.92444 3.61943,-2.88889 1.47447,-1.22981 2.96904,-2.43452 4.47672,-3.62438 1.6112,-1.22009 3.27107,-2.37703 4.92169,-3.54451 1.40311,-1.04156 2.6928,-2.21764 3.94579,-3.42878 1.14588,-1.1582 2.27518,-2.33214 3.42585,-3.48572 1.41359,-1.44234 2.91959,-2.79209 4.46213,-4.0978 1.78594,-1.56734 3.63717,-3.05651 5.52916,-4.49664 1.88152,-1.49419 3.8989,-2.80842 5.8695,-4.18242 1.99511,-1.40687 4.05837,-2.71622 5.98433,-4.21602 1.99699,-1.55955 3.88296,-3.24922 5.7658,-4.93927 1.4851,-1.31697 2.9362,-2.67086 4.36019,-4.05196 1.32652,-1.29211 2.64101,-2.59228 4.02737,-3.82209 1.45652,-1.25118 2.91961,-2.4923 4.4161,-3.69705 1.6928,-1.44393 3.52183,-2.71893 5.32232,-4.02617 2.11177,-1.49511 4.31371,-2.85605 6.39263,-4.39731 1.96282,-1.32339 3.81247,-2.79593 5.65568,-4.27455 1.46289,-1.19916 2.88859,-2.43667 4.23381,-3.76363 1.06642,-1.02679 2.1373,-2.05754 3.27948,-3.00294 1.15177,-0.8894 2.30696,-1.77802 3.47717,-2.64422 0.93022,-0.62714 1.75556,-1.38447 2.62858,-2.08251 0.90021,-0.73258 1.81049,-1.45881 2.67195,-2.23563 0.73917,-0.68676 1.42235,-1.42862 2.17295,-2.10313 0.63573,-0.52319 1.28355,-1.03665 1.99604,-1.45408 1.4414,-0.81006 2.60132,1.20322 1.15992,2.01327 v 0 c -0.58704,0.30449 -1.09799,0.74028 -1.61552,1.14459 -0.76981,0.66178 -1.41768,1.44992 -2.18681,2.11405 -0.90768,0.76438 -1.82825,1.51442 -2.74529,2.26852 -0.89592,0.73879 -1.7587,1.52016 -2.73726,2.15542 -1.15048,0.80339 -2.26301,1.66476 -3.3738,2.52019 -1.09494,0.91781 -2.11168,1.92496 -3.1682,2.88506 -1.42512,1.34255 -2.92061,2.60217 -4.44178,3.83737 -1.87271,1.48567 -3.75793,2.95785 -5.74517,4.29324 -2.08871,1.5289 -4.28965,2.8935 -6.38827,4.40735 -1.75785,1.30692 -3.53932,2.58844 -5.20015,4.01624 -1.46102,1.19171 -2.9003,2.40689 -4.33124,3.63354 -1.35841,1.22376 -2.66094,2.50196 -3.96305,3.78394 -1.46508,1.37966 -2.9459,2.74232 -4.47482,4.05329 -1.94126,1.68794 -3.86079,3.40214 -5.87969,5.00065 -1.95045,1.5322 -4.03586,2.87536 -6.06264,4.30525 -1.94452,1.35624 -3.94244,2.64361 -5.79611,4.12219 -1.85189,1.42676 -3.68529,2.87391 -5.41861,4.44145 -1.47745,1.2894 -2.94068,2.59899 -4.28657,4.02389 -1.15259,1.17853 -2.29652,2.36561 -3.46355,3.53013 -1.33963,1.27959 -2.7318,2.50745 -4.22933,3.60577 -1.61959,1.1409 -3.24024,2.28238 -4.82599,3.46855 -1.49759,1.19476 -2.98754,2.39728 -4.43401,3.65251 -1.17705,0.95343 -2.35672,1.90219 -3.52515,2.86544 -0.99351,0.86269 -1.91195,1.79923 -2.78621,2.78016 -0.8782,0.99552 -1.73567,2.0123 -2.72656,2.90275 -1.05304,1.02104 -2.07055,2.07091 -3.03029,3.17839 -1.04917,1.15239 -2.04864,2.35424 -3.21589,3.39523 -1.38358,1.28694 -2.78041,2.56003 -4.21554,3.79096 -1.69692,1.45762 -3.43895,2.86548 -5.07132,4.3941 -1.45593,1.33338 -2.96422,2.61262 -4.37189,3.99574 -0.99893,1.04644 -2.02513,2.07695 -3.16058,2.97983 -1.23574,0.99396 -2.46391,1.99668 -3.59553,3.10796 -1.36293,1.34931 -2.74801,2.67898 -4.04982,4.08661 -1.52394,1.65725 -3.04792,3.31396 -4.57371,4.96944 -1.44994,1.64378 -2.85495,3.32906 -4.41936,4.87037 -1.56084,1.46706 -3.21766,2.81955 -4.82252,4.23832 -1.61572,1.53234 -3.24088,3.05715 -4.71201,4.72887 -1.60419,1.68401 -3.29503,3.2869 -4.85164,5.01538 -1.453,1.64786 -2.877265,3.3412 -3.941565,5.26776 -0.90533,1.34125 -2.82585,0.0768 -1.9205,-1.26453 z"
       inkscape:connector-curvature="0" />
  </g>
</svg>
