<?xml version="1.0" encoding="UTF-8" standalone="no"?>
<!-- Created with Inkscape (http://www.inkscape.org/) -->

<svg
   xmlns:dc="http://purl.org/dc/elements/1.1/"
   xmlns:cc="http://creativecommons.org/ns#"
   xmlns:rdf="http://www.w3.org/1999/02/22-rdf-syntax-ns#"
   xmlns:svg="http://www.w3.org/2000/svg"
   xmlns="http://www.w3.org/2000/svg"
   xmlns:sodipodi="http://sodipodi.sourceforge.net/DTD/sodipodi-0.dtd"
   xmlns:inkscape="http://www.inkscape.org/namespaces/inkscape"
   width="297mm"
   height="210mm"
   viewBox="0 0 297 210"
   version="1.1"
   id="svg6148"
   inkscape:version="0.92.1 r15371"
   sodipodi:docname="haskell ghci.svg">
  <defs
     id="defs6142" />
  <sodipodi:namedview
     id="base"
     pagecolor="#ffffff"
     bordercolor="#666666"
     borderopacity="1.0"
     inkscape:pageopacity="0.0"
     inkscape:pageshadow="2"
     inkscape:zoom="0.98994949"
     inkscape:cx="525.39899"
     inkscape:cy="406.3979"
     inkscape:document-units="mm"
     inkscape:current-layer="layer1"
     showgrid="false"
     inkscape:window-width="1920"
     inkscape:window-height="1001"
     inkscape:window-x="-9"
     inkscape:window-y="-9"
     inkscape:window-maximized="1" />
  <metadata
     id="metadata6145">
    <rdf:RDF>
      <cc:Work
         rdf:about="">
        <dc:format>image/svg+xml</dc:format>
        <dc:type
           rdf:resource="http://purl.org/dc/dcmitype/StillImage" />
        <dc:title></dc:title>
      </cc:Work>
    </rdf:RDF>
  </metadata>
  <g
     inkscape:label="Layer 1"
     inkscape:groupmode="layer"
     id="layer1"
     transform="translate(0,-87)">
    <path
       style="fill:#000000;stroke-width:0.26458332"
       id="path6152"
       d="m 44.830875,124.12905 c -0.133974,1.61211 -0.133146,3.23341 -0.150077,4.85023 -0.04024,2.42589 -0.03416,4.85224 -0.10663,7.27745 -0.129503,2.87524 -0.192161,5.75259 -0.238966,8.63016 -0.103095,3.2829 -0.299963,6.56186 -0.493165,9.84044 -0.242091,3.62603 -0.335052,7.25892 -0.40159,10.8916 -0.06055,4.05181 -0.19722,8.10188 -0.25664,12.15379 -0.02117,4.27262 -0.115642,8.54333 -0.239197,12.81402 -0.13947,4.97972 -0.188476,9.96073 -0.212116,14.94209 -0.0044,5.22232 -0.01373,10.44463 -0.0185,15.66694 -0.0072,5.2776 -0.0024,10.55519 0.01196,15.83277 0.019,4.96449 0.03076,9.92899 0.03714,14.89351 -0.04988,2.09187 -0.01318,4.18392 0.02688,6.27546 -0.03441,1.34304 -1.933768,1.29438 -1.899357,-0.0487 v 0 c 0.146548,-2.07265 0.288227,-4.14715 0.268952,-6.22679 0.0064,-4.96449 0.0181,-9.92897 0.03665,-14.89342 0.01373,-5.27757 0.01757,-10.55514 0.0088,-15.83272 -0.0057,-5.22394 -0.01863,-10.44792 5.29e-4,-15.67184 0.0075,-4.99086 -2.09e-4,-9.98204 0.06435,-14.97254 0.05605,-4.26915 0.12501,-8.53761 0.142499,-12.80717 0.07025,-4.04969 0.188143,-8.09885 0.202661,-12.14916 0.02824,-3.66085 0.08836,-7.32238 0.311049,-10.97748 0.180261,-3.24931 0.332026,-6.5018 0.394113,-9.75562 0.02416,-2.88573 0.08946,-5.77048 0.171495,-8.65511 0.04255,-2.4091 -0.02027,-4.81851 -0.04269,-7.22771 -0.01693,-1.61682 -0.01611,-3.23812 -0.150077,-4.85023 0,-1.79031 2.531885,-1.79031 2.531885,0 z"
       inkscape:connector-curvature="0" />
    <path
       style="fill:#000000;stroke-width:0.26458332"
       id="path6160"
       d="m 42.775041,257.74263 c 1.098085,-0.16059 2.197294,-0.30588 3.304427,-0.38513 1.212768,-0.0754 2.421921,-0.17888 3.636629,-0.22509 1.549839,-0.0457 3.100546,-0.0459 4.650917,-0.0482 1.797452,-0.002 3.59496,0.0558 5.391989,0.0109 2.295371,-0.0991 4.592849,-0.12598 6.889998,-0.14488 2.643844,-0.0162 5.287751,-0.0151 7.931629,-0.0152 2.806869,-0.008 5.61362,0.02 8.420402,0.0368 3.129967,5.3e-4 6.260636,0.0601 9.389943,-0.0158 3.273763,-0.11468 6.549255,-0.14439 9.824585,-0.17453 3.44971,-0.0315 6.89999,0.0104 10.34909,-0.0672 3.46532,-0.11864 6.93251,-0.15624 10.39953,-0.17966 3.62996,-0.012 7.2599,-0.0323 10.88988,-0.0355 3.73683,0.0826 7.47306,0.17896 11.20822,0.31766 3.6277,0.089 7.25056,0.30498 10.86995,0.55877 3.67381,0.29279 7.3588,0.35705 11.04078,0.46854 3.53794,0.12357 7.0773,0.19143 10.61701,0.23606 3.57298,0.0417 7.1463,0.0281 10.71943,0.0185 3.45483,-0.018 6.90969,-2.2e-4 10.36453,-0.003 3.31486,-0.004 6.62966,-0.0244 9.94449,-0.0358 3.15018,0.0344 6.29809,-0.032 9.44672,-0.11885 3.07088,-0.0679 6.13704,-0.25754 9.20668,-0.36367 2.85897,-0.0608 5.71729,-0.0641 8.57518,-0.16769 2.65282,-0.0449 5.29901,-0.23865 7.94769,-0.37677 2.00925,-0.11237 4.01986,-0.23614 6.02448,-0.41467 1.02762,-0.0969 2.05561,-0.18942 3.08352,-0.28316 1.6811,-0.10458 1.829,2.27287 0.14789,2.37745 v 0 c -1.01895,0.033 -2.03671,0.0912 -3.05259,0.17836 -2.03385,0.14029 -4.07397,0.21338 -6.11126,0.27787 -2.65743,0.0902 -5.31272,0.23036 -7.97104,0.29321 -2.86151,0.0879 -5.72359,0.0932 -8.58576,0.15183 -3.07091,0.0689 -6.13898,0.20707 -9.20909,0.2985 -3.16706,0.0916 -6.33359,0.16807 -9.5024,0.12322 -3.31473,-0.0113 -6.62944,-0.0317 -9.94421,-0.0346 -3.45501,-0.002 -6.91004,0.0182 -10.36505,10e-4 -3.57951,-0.0105 -7.15901,-0.0224 -10.73851,-0.0369 -3.55468,-0.028 -7.10907,-0.0911 -10.66037,-0.2578 -3.70255,-0.13705 -7.40979,-0.17761 -11.10568,-0.46471 -3.60078,-0.23946 -7.20447,-0.44425 -10.81059,-0.58259 -3.71189,-0.13685 -7.42505,-0.2337 -11.13935,-0.27463 -3.6239,-5.3e-4 -7.24795,-0.0192 -10.87168,0.0271 -3.46115,0.0462 -6.92114,0.13334 -10.38125,0.22842 -3.45483,0.0558 -6.91059,0.004 -10.3656,0.0605 -3.269216,0.0403 -6.537031,0.13518 -9.804863,0.2359 -3.143223,0.0521 -6.287108,0.0204 -9.430634,0.047 -2.806329,0.0159 -5.612632,0.0419 -8.419036,0.0344 -2.634022,0.003 -5.268211,0.004 -7.901934,0.0484 -2.284709,0.0477 -4.567809,0.13159 -6.849325,0.26343 -1.81779,0.0698 -3.637057,0.0532 -5.455877,0.0757 -1.513988,0.008 -3.028781,0.0148 -4.541126,0.0932 -1.197779,0.074 -2.389158,0.21508 -3.586308,0.28965 -0.982475,0.0648 -1.975765,0.13818 -2.920428,0.43579 -1.755267,0.39006 -2.306895,-2.09226 -0.551628,-2.48232 z"
       inkscape:connector-curvature="0" />
    <path
       style="fill:#000000;stroke-width:0.26458332"
       id="path6162"
       d="m 44.119932,122.00183 c 1.170485,0.11421 2.346936,0.0681 3.519273,0.0197 1.77092,-0.16657 3.531407,-0.43109 5.295627,-0.65691 2.356962,-0.26334 4.717577,-0.49467 7.075842,-0.74791 2.998573,-0.35349 5.998014,-0.70056 8.999625,-1.02799 3.192798,-0.34043 6.391703,-0.57527 9.600792,-0.67598 3.366889,-0.029 6.725529,-0.23018 10.083094,-0.46144 3.3421,-0.27172 6.686005,-0.48513 10.037717,-0.58598 3.433778,-0.0903 6.869088,-0.086 10.303778,-0.0989 3.31842,-0.0237 6.63705,-0.0164 9.95549,7.9e-4 3.45407,0.0805 6.90728,0.18179 10.36214,0.2238 3.37769,0.013 6.75414,0.0326 10.13066,0.12315 3.37826,0.0657 6.74897,0.30534 10.12282,0.47098 3.21929,0.12163 6.43878,0.23518 9.65807,0.35841 3.28523,0.10349 6.56788,0.26257 9.85434,0.3272 3.16832,0.054 6.33716,0.0754 9.50587,0.0882 3.17984,0.0669 6.35917,0.14177 9.53725,0.26735 2.88863,0.11418 5.77863,0.17087 8.66736,0.28188 2.76672,0.0851 5.53086,0.23468 8.2974,0.32461 2.31477,0.13245 4.63064,0.23049 6.94807,0.30022 2.20127,0.0493 4.40328,0.0446 6.60497,0.0437 2.09089,0.0146 4.17981,10e-4 6.26874,-0.0902 1.88988,-0.0818 3.77087,-0.29557 5.64739,-0.52668 1.93982,-0.23912 3.88293,-0.45253 5.83168,-0.60394 1.86034,-0.14592 3.71681,-0.32887 5.57502,-0.49845 1.38688,-0.1939 2.77549,-0.36137 4.17062,-0.4818 0.47594,-0.0528 0.95003,-0.0684 1.42807,-0.062 1.77699,0.1142 1.61549,2.62726 -0.16151,2.51306 v 0 c -0.37092,-0.0636 -0.74129,-0.0335 -1.11675,-0.0288 -1.38042,0.0494 -2.75386,0.19201 -4.1276,0.33152 -1.8686,0.14635 -3.735,0.32011 -5.60319,0.47171 -1.9102,0.13141 -3.81071,0.35928 -5.71134,0.58796 -1.93647,0.25623 -3.88187,0.46405 -5.83591,0.51635 -2.12197,0.0916 -4.24375,0.074 -6.36744,0.0659 -2.22059,-0.005 -4.44133,-0.0135 -6.6615,-0.0615 -2.32855,-0.0558 -4.65205,-0.20323 -6.97463,-0.37671 -2.76507,-0.13449 -5.52766,-0.31766 -8.29575,-0.38277 -2.89152,-0.12584 -5.7855,-0.16171 -8.67593,-0.31463 -3.14725,-0.16466 -6.29704,-0.26756 -9.44822,-0.32206 -3.18434,0.002 -6.36915,0.0129 -9.55269,-0.0733 -3.29092,-0.10227 -6.57962,-0.2562 -9.87048,-0.3562 -3.23426,-0.0968 -6.46894,-0.19563 -9.70122,-0.34145 -3.35272,-0.20965 -6.7051,-0.45504 -10.06524,-0.5056 -3.36874,-0.0909 -6.73773,-0.0794 -10.10718,-0.1283 -3.44523,-0.0596 -6.88967,-0.14901 -10.33469,-0.21739 -3.31722,0.0144 -6.63455,0.0157 -9.95174,-0.004 -3.41437,-0.002 -6.8292,0.009 -10.242442,0.10636 -3.325982,0.12182 -6.645505,0.3354 -9.965817,0.56179 -3.378753,0.25053 -6.759736,0.46045 -10.1483,0.51864 -3.157805,0.12971 -6.310794,0.33184 -9.454523,0.66424 -2.998052,0.34115 -5.988621,0.74233 -8.975944,1.16648 -2.334636,0.28785 -4.670682,0.56246 -7.005225,0.84902 -1.818492,0.2847 -3.634774,0.59426 -5.46105,0.82189 -1.221751,0.10019 -2.443147,0.0925 -3.665397,0.17189 -1.800268,0 -1.800268,-2.54596 0,-2.54596 z"
       inkscape:connector-curvature="0" />
    <path
       style="fill:#000000;stroke-width:0.26458332"
       id="path6170"
       d="m 252.3475,257.78488 c 0.008,-1.20459 -0.28623,-2.38621 -0.49149,-3.56757 -0.15199,-0.95294 -0.27072,-1.91261 -0.35651,-2.8739 -0.15481,-1.41832 -0.33467,-2.83319 -0.45746,-4.25479 -0.10052,-1.34165 -0.17271,-2.68446 -0.34589,-4.01927 -0.21999,-1.45021 -0.52979,-2.88307 -0.8116,-4.32175 -0.21764,-1.03658 -0.46128,-2.06724 -0.69245,-3.10044 -0.16291,-0.9021 -0.40791,-1.78542 -0.62978,-2.67405 -0.29375,-0.97218 -0.60723,-1.93085 -0.76807,-2.93543 -0.27171,-1.67304 -0.25078,-3.37431 -0.3168,-5.06322 -0.11185,-2.18924 -0.20695,-4.37934 -0.27683,-6.57033 -0.0474,-1.73669 -0.0428,-3.47315 -0.13189,-5.2084 -0.0624,-1.73438 -0.26444,-3.46136 -0.50214,-5.17943 -0.27254,-1.89305 -0.48963,-3.79212 -0.6827,-5.69489 -0.19991,-1.96537 -0.37268,-3.93313 -0.56788,-5.89894 -0.2274,-1.95737 -0.40401,-3.92013 -0.62483,-5.87819 -0.25582,-2.0455 -0.43677,-4.09826 -0.64225,-6.14889 -0.2151,-1.80004 -0.30329,-3.60902 -0.349,-5.41994 0.0184,-1.87792 -0.097,-3.75234 -0.16258,-5.62838 -0.0684,-1.98546 -0.0889,-3.97186 -0.10885,-5.95823 -0.0245,-1.86485 -0.005,-3.72985 -0.007,-5.59476 0.004,-1.86146 -0.008,-3.72288 -0.002,-5.58435 8e-4,-1.93542 0.0182,-3.87086 0.0126,-5.80628 -0.0136,-1.90385 -0.0238,-3.8052 0.0592,-5.70753 0.10664,-1.78789 0.14977,-3.57816 0.16715,-5.36884 0.0141,-1.45586 -0.0193,-2.91159 -0.0386,-4.36726 -0.026,-0.86335 -0.0486,-1.72639 -0.0575,-2.59004 0.004,-0.96452 0.023,-1.92873 0.0833,-2.89139 0.0359,-1.01409 0.19815,-2.01367 0.33207,-3.01731 0.0698,-0.52277 0.0878,-1.04997 0.0972,-1.57664 0.006,-0.52059 0.004,-1.04124 0.003,-1.56186 -0.046,-0.56478 0.0726,-1.11294 0.17069,-1.66424 0.0799,-0.49217 0.22778,-0.96776 0.29765,-1.46222 0.0562,-0.47399 0.0607,-0.95195 0.0656,-1.42861 0.0188,-1.80645 2.57346,-1.77992 2.55471,0.0265 v 0 c -0.006,0.59039 -0.0153,1.18229 -0.0906,1.76876 -0.0765,0.51882 -0.21161,1.02323 -0.29483,1.53951 -0.0712,0.41038 -0.19428,0.79426 -0.14756,1.21513 0.001,0.5412 0.004,1.08246 -0.005,1.62362 -0.0166,0.64265 -0.0529,1.28584 -0.17196,1.91901 -0.16999,0.91178 -0.38914,1.81642 -0.40037,2.74988 -0.0408,0.91934 0.0261,1.83838 0.0202,2.75848 -0.008,0.86423 -0.0289,1.72791 -0.0545,2.59186 -0.0199,1.46683 -0.0563,2.93334 -0.077,4.40016 -0.0352,1.81639 -0.0813,3.63276 -0.1806,5.44695 -0.10182,1.86414 -0.0986,3.72936 -0.093,5.59606 -0.006,1.93549 0.0117,3.87101 0.0123,5.80651 0.005,1.86164 -0.008,3.72322 -0.005,5.58485 -0.003,1.86078 0.0128,3.72157 0.002,5.58236 5.3e-4,1.96024 0.0125,3.92122 0.0904,5.88013 0.0858,1.88687 0.21199,3.77216 0.21844,5.66179 0.0421,1.7582 0.12124,3.51594 0.28585,5.26742 0.17851,2.03688 0.35068,4.07296 0.62805,6.09967 0.23754,1.97208 0.41209,3.95042 0.64618,5.92286 0.17983,1.9591 0.36989,3.91716 0.55065,5.87614 0.20994,1.87702 0.45003,3.74975 0.72554,5.61828 0.24719,1.78361 0.45224,3.57393 0.53467,5.37369 0.0918,1.76095 0.092,3.5206 0.078,5.28385 0.014,2.16329 0.0596,4.32695 0.23364,6.4843 0.12485,1.59871 0.18642,3.21009 0.53536,4.78104 0.17232,0.93256 0.47327,1.83017 0.72007,2.74475 0.23822,0.9165 0.53731,1.82005 0.70341,2.75332 0.21718,1.06094 0.33283,2.13812 0.55697,3.19834 0.25586,1.48483 0.62233,2.94671 0.88128,4.43121 0.18589,1.37077 0.20456,2.74688 0.27999,4.12641 0.13308,1.40929 0.35609,2.80361 0.58778,4.1996 0.11919,0.92195 0.23312,1.84207 0.30093,2.7695 0.16538,1.23561 0.43696,2.45198 0.62832,3.68354 0.17809,1.78093 -2.34053,2.03279 -2.51862,0.25186 z"
       inkscape:connector-curvature="0" />
    <path
       style="fill:#000000;stroke-width:0.26458332"
       id="path6180"
       d="m 45.447735,139.07496 c 0.969703,-0.22129 1.927323,-0.47362 2.914351,-0.61107 1.016011,-0.12805 2.039686,-0.11015 3.061187,-0.10941 1.243481,0.0523 2.483771,-0.059 3.724391,-0.12313 1.510208,-0.14599 3.023317,-0.24258 4.539377,-0.29765 1.881389,-0.0328 3.763272,-0.0117 5.644814,-0.004 2.174028,0.009 4.347954,0.0219 6.522014,0.0211 2.102352,-0.0192 4.204829,-0.0142 6.30724,-0.0123 2.213692,0.006 4.427374,0.0181 6.641081,0.0207 2.321063,0.0467 4.639615,-0.021 6.958222,-0.11758 2.288572,-0.0767 4.576315,-0.18012 6.861932,-0.31959 2.583126,-0.18152 5.171636,-0.25095 7.760156,-0.29301 2.6231,-0.0322 5.24631,-0.043 7.86959,-0.0412 2.82875,0.0487 5.65378,-0.13235 8.47802,-0.26187 3.02948,-0.0984 6.05585,-0.27256 9.08501,-0.37826 3.21304,-0.12105 6.4224,-0.31311 9.63083,-0.52104 3.41384,-0.1891 6.82553,-0.41451 10.23941,-0.60328 3.4488,-0.17967 6.89848,-0.34058 10.34691,-0.52722 3.33979,-0.18242 6.67765,-0.38005 10.02106,-0.48447 3.30256,-0.0863 6.60658,-0.0689 9.90989,-0.0863 3.12635,-0.004 6.25256,-0.0303 9.37891,-0.0276 3.11252,0.004 6.22504,0.021 9.33755,0.0106 2.84032,-0.0119 5.68056,-0.0373 8.52085,-0.0515 2.47562,-0.0639 4.94902,0.0593 7.42283,0.13049 2.2216,0.10385 4.44036,0.27773 6.65429,0.48806 1.70619,0.18271 3.42028,0.25189 5.13463,0.29454 1.23089,0.0164 2.45854,-0.0271 3.68711,0.0576 0.71891,0.0943 1.42251,0.27035 2.14328,0.3512 0.41626,-0.001 1.01541,0.34469 1.42367,0.23893 0.43264,-0.0737 0.84035,-0.29538 1.2441,-0.46955 0.6779,-0.30185 1.40291,-0.43128 2.13666,-0.49534 0.57239,-0.0374 1.14638,-0.0329 1.71966,-0.0316 0.26587,-0.0165 0.53616,0.0236 0.80168,0.003 0.041,-0.003 0.30152,-0.0343 0.16232,-0.0718 0.49765,-0.26022 1.04855,-0.35822 1.60036,-0.41921 0.0996,-0.007 0.19917,-0.0139 0.29876,-0.0209 1.80732,-0.13101 1.9926,2.42493 0.18528,2.55594 v 0 c -0.0665,0.005 -0.1331,0.0102 -0.19964,0.0153 -0.32585,0.0369 -0.63058,0.10173 -0.92109,0.26472 -0.63349,0.21007 -1.26774,0.26976 -1.9343,0.22822 -0.50295,-10e-4 -1.00633,-0.006 -1.50883,0.0192 -0.45898,0.0322 -0.91639,0.0892 -1.3442,0.27072 -0.70764,0.3031 -1.40126,0.69234 -2.19125,0.70692 -0.61388,-0.009 -1.21043,-0.10635 -1.8029,-0.27072 -0.68803,-0.0992 -1.35946,-0.26805 -2.03544,-0.42736 -1.17689,-0.13643 -2.36024,-0.11526 -3.54286,-0.16514 -1.76366,-0.0725 -3.5215,-0.22904 -5.27505,-0.43044 -2.16573,-0.2231 -4.33464,-0.42473 -6.50903,-0.54099 -2.44928,-0.0952 -4.89807,-0.21471 -7.35003,-0.19146 -2.84033,-0.0142 -5.68061,-0.0395 -8.52096,-0.0517 -3.11274,-0.0108 -6.22547,0.005 -9.33822,0.008 -3.12508,2.6e-4 -6.24998,-0.0308 -9.37507,-0.0305 -3.28525,-0.007 -6.57074,0.0185 -9.85517,0.0952 -3.32851,0.0927 -6.65252,0.26942 -9.97817,0.43097 -3.44632,0.17823 -6.89181,0.36927 -10.33791,0.5508 -3.40691,0.19967 -6.81537,0.36898 -10.22082,0.59357 -3.2287,0.22301 -6.45508,0.48752 -9.68938,0.62057 -3.01842,0.10347 -6.03495,0.24728 -9.05284,0.3633 -2.8579,0.16011 -5.71485,0.38626 -8.57954,0.36209 -2.61097,0.003 -5.22213,-0.0102 -7.83289,0.0294 -2.55359,0.0492 -5.10727,0.12974 -7.653251,0.34403 -2.304121,0.16895 -4.612031,0.28861 -6.921817,0.34115 -2.347251,0.0848 -4.69301,0.15593 -7.042306,0.12451 -2.213742,0.003 -4.427456,0.0151 -6.641182,0.0207 -2.102638,0.002 -4.205346,0.006 -6.307915,-0.0143 -2.172849,-0.002 -4.345586,0.007 -6.5184,0.018 -1.853014,0.0125 -3.706413,0.0286 -5.558125,0.10502 -1.501699,0.0613 -2.999267,0.17235 -4.492927,0.34161 -1.281729,0.0812 -2.561431,0.20778 -3.84702,0.19352 -0.915988,0.0109 -1.833936,0.0299 -2.746243,0.11706 -0.918983,0.11754 -1.824826,0.30981 -2.691022,0.64751 -1.755264,0.39006 -2.306891,-2.09226 -0.551627,-2.48232 z"
       inkscape:connector-curvature="0" />
    <path
       style="fill:#000000;stroke-width:0.26458332"
       id="path6188"
       d="m 54.886621,128.62633 c -1.058166,0.22255 -2.097696,0.54083 -3.108867,0.92339 -0.207037,0.0976 -1.633053,0.53806 -1.648913,0.69462 0.414523,-0.35983 0.07709,-0.39229 0.606883,0.10908 0.533644,0.49904 1.122908,0.93206 1.687116,1.39501 0.52225,0.45925 1.057873,0.90138 1.601893,1.33444 0.200877,0.13691 0.40227,0.26944 0.614254,0.38839 0.93767,0.53901 0.175392,1.86507 -0.762278,1.32606 v 0 c -0.277362,-0.16208 -0.550084,-0.3298 -0.806825,-0.52386 -0.545481,-0.44061 -1.062808,-0.91367 -1.597012,-1.36782 -0.592087,-0.4863 -1.218187,-0.92998 -1.784615,-1.44698 -0.521335,-0.49456 -1.112462,-1.15389 -0.845748,-1.94443 0.05654,-0.16758 0.191733,-0.29724 0.287596,-0.44586 0.650195,-0.46912 1.397781,-0.6442 2.148608,-0.90147 1.092255,-0.37742 2.207712,-0.68335 3.31031,-1.02856 1.052166,-0.21043 1.349764,1.27756 0.297598,1.48799 z"
       inkscape:connector-curvature="0" />
    <path
       style="fill:#000000;stroke-width:0.26458332"
       id="path6190"
       d="m 56.959909,134.37867 c 0.71796,-1.1583 1.432182,-2.31836 2.166578,-3.4663 0.633741,-1.02904 1.23961,-2.07272 1.95558,-3.04769 0.219102,-0.26843 0.451253,-0.52535 0.691732,-0.77456 0.840767,-0.71675 1.854417,0.47227 1.013651,1.18903 v 0 c -0.211236,0.11274 -0.363855,0.30225 -0.525373,0.47438 -0.718759,0.92774 -1.328729,1.92647 -1.945875,2.92339 -0.72149,1.11763 -1.447768,2.24068 -2.030516,3.43829 -0.520814,0.93747 -1.84659,0.20092 -1.325777,-0.73654 z"
       inkscape:connector-curvature="0" />
    <path
       style="fill:#000000;stroke-width:0.26458332"
       id="path6192"
       d="m 68.156616,127.18855 c 1.067101,0.32119 2.15424,0.57012 3.227368,0.87184 0.787927,0.18893 1.663999,0.43159 1.760019,1.39491 0.01897,0.19025 -0.07325,0.37531 -0.109878,0.56297 -0.549902,1.01067 -1.493391,1.68375 -2.449592,2.2775 -1.020197,0.56192 -2.044732,1.11098 -3.05104,1.69762 -0.264774,0.14786 -0.549969,0.26299 -0.783281,0.45974 -0.927507,0.58517 -1.755066,-0.72653 -0.827558,-1.3117 v 0 c 0.290769,-0.15592 0.590232,-0.29136 0.888068,-0.43339 1.003081,-0.54285 2.009977,-1.07927 3.003447,-1.63935 0.657294,-0.41794 1.262531,-0.87526 1.751473,-1.48873 0.433298,0.46457 0.209762,0.18491 0.109437,0.13506 -0.221229,-0.10992 -0.478957,-0.17208 -0.711811,-0.24124 -1.065647,-0.33526 -2.144914,-0.61953 -3.242104,-0.83373 -1.026363,-0.30791 -0.590915,-1.7594 0.435452,-1.4515 z"
       inkscape:connector-curvature="0" />
    <path
       style="fill:#000000;stroke-width:0.26458332"
       id="path6194"
       d="m 83.082804,125.96797 c -0.07888,1.39124 -0.0642,2.78589 -0.06474,4.1788 -0.01598,1.05203 0.05093,2.10445 0.0094,3.15574 -0.07445,1.04705 -1.555202,0.94177 -1.480754,-0.10528 v 0 c 0.112297,-1.01147 0.04324,-2.03475 0.0733,-3.05046 -5.29e-4,-1.39291 0.01413,-2.78756 -0.06474,-4.1788 0,-1.08016 1.52758,-1.08016 1.52758,0 z"
       inkscape:connector-curvature="0" />
    <path
       style="fill:#000000;stroke-width:0.26458332"
       id="path6196"
       d="m 83.324231,129.1657 c 0.859332,-0.0446 1.719961,-0.1034 2.553586,-0.32683 1.0288,-0.25515 1.389639,1.1998 0.360836,1.45495 v 0 c -0.905018,0.21117 -1.827149,0.26462 -2.74578,0.38964 -1.073226,0.11925 -1.241866,-1.39852 -0.168642,-1.51776 z"
       inkscape:connector-curvature="0" />
    <path
       style="fill:#000000;stroke-width:0.26458332"
       id="path6198"
       d="m 88.1567,126.80175 c -0.0708,1.25707 -0.04841,2.5168 -0.03835,3.7751 0.0019,0.46056 0.0016,0.91687 0.05754,1.37397 0.08509,1.05611 -1.408483,1.17644 -1.49357,0.12033 v 0 c -0.02474,-0.49864 -0.02154,-0.99507 -0.0064,-1.4943 0.01005,-1.2583 0.03245,-2.51803 -0.03835,-3.7751 0,-1.07419 1.519129,-1.07419 1.51913,0 z"
       inkscape:connector-curvature="0" />
    <path
       style="fill:#000000;stroke-width:0.26458332"
       id="path6200"
       d="m 93.834732,127.2696 c -0.942181,0.0547 -1.677141,0.36508 -2.39568,0.95595 -0.440664,0.42531 -0.515885,0.75875 -0.381053,1.33037 0.227372,0.68253 0.773506,1.16321 1.367263,1.53245 0.574665,0.28403 1.229723,0.57786 1.831372,0.23698 0.616757,-0.56447 0.732295,-1.40004 0.854297,-2.18576 0.113504,-0.95351 0.155763,-1.91317 0.03146,-2.86607 -0.167828,-0.61833 -0.590547,-0.60168 1.409568,-0.18228 0.09011,0.0189 -0.009,0.18424 -0.0041,0.27618 0.0049,0.0928 0.09771,0.89539 0.09868,0.90398 0.158803,1.13988 0.396052,2.26152 0.71251,3.36724 0.159686,0.39717 0.07148,0.22773 0.245549,0.51778 0.469717,0.97055 -0.902851,1.63483 -1.372569,0.66428 v 0 c -0.208115,-0.4944 -0.107174,-0.2283 -0.29524,-0.80114 -0.293883,-1.17407 -0.527831,-2.36017 -0.738749,-3.55194 -0.01998,-0.12704 -0.234621,-1.46444 -0.185433,-1.49242 1.569125,-0.89283 1.512888,-0.74191 1.62024,0.13336 0.102309,1.08517 0.02995,2.17288 -0.09493,3.25435 -0.204859,1.30034 -0.490423,2.59708 -1.694283,3.33355 -0.193315,0.0735 -0.378751,0.17261 -0.579945,0.22052 -0.913181,0.21744 -1.842241,-0.17115 -2.632615,-0.5876 -0.93341,-0.60882 -1.736738,-1.36897 -2.043036,-2.47861 -0.22583,-1.22968 0.0041,-1.9387 0.933675,-2.79053 0.981123,-0.74825 1.940494,-1.11929 3.161943,-1.30181 1.068559,-0.10686 1.219679,1.40432 0.151119,1.51117 z"
       inkscape:connector-curvature="0" />
    <path
       style="fill:#000000;stroke-width:0.26458332"
       id="path6202"
       d="m 103.41284,125.90949 c -0.71735,-0.009 -1.40861,0.13084 -1.88776,0.69135 -0.0336,0.0586 -0.0847,0.11014 -0.10071,0.17576 -0.005,0.0193 0.0354,0.0189 0.0501,0.0323 0.18551,0.17018 0.31549,0.41657 0.4883,0.6026 0.6367,0.59126 1.34684,1.08672 1.95327,1.71245 0.53028,0.61309 0.86521,1.40939 0.39398,2.17401 -0.0916,0.14854 -0.22778,0.26439 -0.34167,0.39658 -0.88136,0.63438 -1.97718,0.74345 -3.02799,0.84537 -1.052105,0.0899 -1.179272,-1.39799 -0.12716,-1.48791 v 0 c 0.69633,-0.0504 1.40731,-0.11305 2.05106,-0.4057 0.0492,-0.0296 0.0714,-0.0668 0.1257,-0.0416 0.0213,0.01 0.0417,0.0572 0.0579,0.0401 0.10092,-0.10654 -0.20754,-0.42606 -0.23067,-0.49289 -0.58538,-0.65764 -1.33465,-1.12179 -1.9584,-1.73892 -0.80287,-0.8973 -1.282598,-1.81503 -0.39928,-2.87515 0.88754,-0.8278 1.75941,-1.06825 2.95339,-1.15594 1.08017,0 1.08017,1.52758 0,1.52758 z"
       inkscape:connector-curvature="0" />
    <path
       style="fill:#000000;stroke-width:0.26458332"
       id="path6204"
       d="m 108.73645,125.19813 c -0.0725,1.50074 -0.11174,3.00852 -0.0266,4.50933 0.0719,0.82799 0.034,0.42873 0.11263,1.19793 0.0815,1.02472 -1.36774,1.13992 -1.44919,0.11519 v 0 c -0.0461,-0.80137 -0.0239,-0.38342 -0.0655,-1.25393 -0.0438,-1.52248 0.009,-3.0476 -0.0905,-4.56852 0,-1.07419 1.51913,-1.07419 1.51913,0 z"
       inkscape:connector-curvature="0" />
    <path
       style="fill:#000000;stroke-width:0.26458332"
       id="path6206"
       d="m 108.43286,128.13329 c 0.84776,-0.77838 1.61766,-1.63984 2.28341,-2.57842 0.62042,-0.83618 1.80296,0.0412 1.18253,0.87741 v 0 c -0.72613,0.94187 -1.5419,1.80546 -2.32669,2.69786 -0.70488,0.80557 -1.84413,-0.19128 -1.13925,-0.99685 z"
       inkscape:connector-curvature="0" />
    <path
       style="fill:#000000;stroke-width:0.26458332"
       id="path6208"
       d="m 109.4902,128.47164 c 0.84679,0.63593 1.73456,1.2238 2.62179,1.80346 0.10836,0.0611 0.21672,0.12211 0.32509,0.18316 0.90793,0.53955 0.14489,1.82356 -0.76304,1.28401 v 0 c -0.13018,-0.0807 -0.26037,-0.16141 -0.39055,-0.24211 -0.89039,-0.62151 -1.77449,-1.25099 -2.70477,-1.81322 -0.85935,-0.64451 0.0521,-1.85981 0.91148,-1.2153 z"
       inkscape:connector-curvature="0" />
    <path
       style="fill:#000000;stroke-width:0.26458332"
       id="path6210"
       d="m 115.95273,126.53448 c -0.0731,1.29317 -0.0559,2.58978 -0.0383,3.88434 0.003,0.45477 0.008,0.9062 0.0559,1.35833 0.0821,1.05382 -1.40822,1.1699 -1.49031,0.1161 v 0 c -0.028,-0.49221 -0.0277,-0.98145 -0.008,-1.47443 0.0176,-1.29456 0.0348,-2.59117 -0.0383,-3.88434 0,-1.07419 1.51913,-1.07419 1.51913,0 z"
       inkscape:connector-curvature="0" />
    <path
       style="fill:#000000;stroke-width:0.26458332"
       id="path6212"
       d="m 116.2827,124.38191 c 0.94696,0.0497 1.89572,0.03 2.84337,0.0171 1.05604,0 1.05604,1.49346 0,1.49346 v 0 c -0.94765,-0.013 -1.89641,-0.0326 -2.84337,0.0171 -1.08016,0 -1.08016,-1.52757 0,-1.52757 z"
       inkscape:connector-curvature="0" />
    <path
       style="fill:#000000;stroke-width:0.26458332"
       id="path6214"
       d="m 116.31467,127.86064 c 0.93873,-0.0205 1.87246,-0.13476 2.80824,-0.20633 0.48823,-0.0312 0.24911,-0.0176 0.71733,-0.0411 1.07058,-0.0409 1.12842,1.47313 0.0578,1.51403 v 0 c -0.44439,0.0114 -0.21711,0.004 -0.68182,0.0212 -0.96945,0.0465 -1.93703,0.12252 -2.90159,0.23134 -1.07418,0 -1.07418,-1.51913 0,-1.51913 z"
       inkscape:connector-curvature="0" />
    <path
       style="fill:#000000;stroke-width:0.26458332"
       id="path6216"
       d="m 116.19838,131.03658 c 0.92093,-0.0851 1.85131,-0.0964 2.76827,-0.21797 0.32035,-0.0484 0.63724,-0.0885 0.94678,-0.1847 1.04204,-0.26893 1.42237,1.20475 0.38032,1.47368 v 0 c -0.38165,0.0868 -0.7636,0.15088 -1.15356,0.19033 -0.92311,0.097 -1.85639,0.096 -2.77317,0.25643 -1.07322,0.11925 -1.24186,-1.39852 -0.16864,-1.51777 z"
       inkscape:connector-curvature="0" />
    <path
       style="fill:#000000;stroke-width:0.26458332"
       id="path6220"
       d="m 123.97504,126.23524 c -0.0549,1.08518 -0.0424,2.17309 -0.0322,3.25933 0.0251,0.43053 -0.0102,0.86534 0.0193,1.29563 0.008,0.10966 0.0368,0.38054 0.11895,0.30755 -0.002,0.007 -0.0155,-0.0808 0.012,-0.0816 0.12906,-0.004 0.25555,0.0387 0.38428,0.0486 0.2319,0.0179 0.378,0.0174 0.6121,0.0221 0.67141,0.0115 1.34289,-0.006 2.01423,-0.0151 0.41964,-0.0399 0.85832,0.0509 1.27163,-0.0389 1.07904,-0.14652 1.28625,1.37946 0.20721,1.52598 v 0 c -0.48802,0.0503 -0.97666,0.035 -1.46703,0.0357 -0.68555,0.001 -1.37111,0.003 -2.05666,0.007 -0.8117,-0.0166 -1.66894,0.0146 -2.25931,-0.63805 -0.0712,-0.12791 -0.15914,-0.24785 -0.21354,-0.38375 -0.26216,-0.65499 -0.059,-1.40563 -0.10643,-2.08498 0.0102,-1.08624 0.0227,-2.17414 -0.0322,-3.25933 0,-1.08016 1.52758,-1.08016 1.52758,0 z"
       inkscape:connector-curvature="0" />
    <path
       style="fill:#000000;stroke-width:0.26458332"
       id="path6224"
       d="m 134.13128,127.03705 c -0.0572,1.0194 -0.0302,2.04109 -0.0256,3.06147 0.061,0.37447 -0.10621,1.56702 0.0993,1.83216 0.0623,-0.10334 -0.052,-0.0919 -0.0727,-0.17671 -0.002,-0.008 0.2524,-0.0259 0.49215,-0.0411 0.65482,-0.0611 1.31178,-0.0807 1.96886,-0.0976 0.41157,-0.0101 0.82324,-0.0141 1.23491,-0.0173 1.07982,-0.004 1.08529,1.52322 0.005,1.52709 v 0 c -0.40166,-2.7e-4 -0.80335,-7.9e-4 -1.20498,0.006 -0.62594,0.0131 -1.25177,0.0408 -1.87476,0.10563 -0.8692,0.091 -1.56323,0.0845 -2.00792,-0.80876 -0.20841,-0.76304 -0.11426,-1.54471 -0.11681,-2.32896 0.005,-1.02038 0.0316,-2.04208 -0.0256,-3.06148 0,-1.08016 1.52757,-1.08016 1.52757,0 z"
       inkscape:connector-curvature="0" />
    <path
       style="fill:#000000;stroke-width:1.01015258"
       d="m 636.0107,645.47458 c -15.55635,-0.45893 -40.78491,-1.63901 -56.06347,-2.6224 -21.45212,-1.38076 -42.15891,-1.80075 -90.91373,-1.84399 -158.60702,-0.14067 -312.20071,1.33881 -323.598,3.11704 l -3.88471,0.6061 0.48324,-128.15863 c 0.51124,-135.58162 1.78693,-213.68438 4.26339,-261.02114 0.82916,-15.84924 1.50757,-33.70705 1.50757,-39.68403 0,-10.6782 0.0364,-10.84777 2.0919,-9.74769 1.54007,0.82422 2.93906,0.81227 5.30331,-0.0453 3.04774,-1.1055 10.44718,-1.71055 49.17333,-4.0209 9.16714,-0.5469 40.98694,-1.01051 70.71068,-1.03024 29.72374,-0.0197 60.63441,-0.49339 68.69038,-1.05257 8.05596,-0.55918 33.51181,-1.44138 56.56854,-1.96044 45.18735,-1.01728 73.58725,-2.20664 108.5914,-4.54767 86.81449,-5.80606 94.92451,-6.05632 196.47467,-6.06283 83.852,-0.005 98.64956,0.21961 113.13708,1.72027 9.16714,0.94956 21.21321,2.00608 26.76904,2.34783 5.55584,0.34175 13.64942,1.26469 17.98572,2.05097 7.37721,1.33767 8.25186,1.30037 13.60205,-0.58007 3.14482,-1.10531 8.23674,-2.00966 11.31537,-2.00966 3.07864,0 7.02514,-0.40944 8.77001,-0.90986 l 3.17247,-0.90985 -0.50759,57.73093 c -0.65633,74.64735 0.42293,104.02755 5.70153,155.21066 2.26329,21.94556 4.80539,45.12856 5.6491,51.51778 1.65891,12.56242 1.98717,17.95796 3.56454,58.58884 1.0106,26.03185 1.14715,27.20223 4.95819,42.49855 5.01024,20.10956 7.66712,35.33934 9.15109,52.45579 0.65026,7.50039 1.79212,17.72818 2.53744,22.72844 0.74533,5.00025 1.04192,9.37578 0.6591,9.72339 -4.60079,4.1776 -231.00067,8.41416 -315.86364,5.91067 z"
       id="path6226"
       inkscape:connector-curvature="0"
       transform="matrix(0.26458333,0,0,0.26458333,0,87)" />
    <path
       style="fill:#ffffff;stroke-width:0.26458332"
       id="path6236"
       d="m 51.645923,145.97177 c 0.95808,0.53551 1.980768,0.94834 2.994622,1.36569 0.827204,0.3158 1.673834,0.58539 2.476323,0.96151 0.809443,0.33806 1.278319,1.05913 0.60392,1.85039 -0.09358,0.1098 -0.215734,0.19161 -0.323602,0.28741 -0.861967,0.57005 -1.784268,1.0484 -2.695699,1.53474 -0.970047,0.53548 -1.994482,0.94517 -3.034416,1.32019 -0.102137,0.0417 -0.204272,0.0834 -0.306406,0.12515 -1.007303,0.36207 -1.519346,-1.06247 -0.512043,-1.42454 v 0 c 0.111154,-0.035 0.222308,-0.0699 0.333462,-0.10485 0.977178,-0.32146 1.936197,-0.68743 2.83478,-1.19487 0.810845,-0.4356 1.62165,-0.88725 2.378194,-1.4119 0.210699,-0.16773 0.01902,0.0877 0.161407,0.40913 0.03433,0.0775 0.121245,0.11933 0.189677,0.16935 0.09877,0.0722 -0.723432,-0.78217 -0.306171,-0.2024 -0.748794,-0.40729 -1.58071,-0.64577 -2.363835,-0.97645 -1.038614,-0.44582 -2.075807,-0.89394 -3.113579,-1.34182 -0.966423,-0.48321 -0.283059,-1.84994 0.683366,-1.36673 z"
       inkscape:connector-curvature="0" />
    <path
       style="fill:#ffffff;stroke-width:0.26458332"
       id="path6238"
       d="m 70.454374,146.45237 c -0.83343,-0.13584 -1.673207,-0.20887 -2.515114,-0.13876 -0.528891,0.0489 -0.744672,0.34375 -1.020654,0.74648 -0.299892,0.58871 -0.552339,1.19994 -0.740158,1.83334 -0.146704,0.62613 -0.220239,1.27454 -0.180089,1.91695 0.122791,0.71888 0.487037,1.35839 0.877917,1.96274 0.398118,0.66153 1.007435,1.02833 1.685718,1.34442 0.810443,0.3303 1.683528,0.4164 2.548877,0.46551 0.641509,0.0124 1.339792,0.0883 1.934361,-0.20376 0.320098,-0.11131 0.388988,-0.25322 0.446881,-0.55072 0.04339,-0.384 0.108286,-0.78363 -0.02297,-1.15512 -0.176562,-0.42716 -0.60343,-0.5665 -0.994616,-0.73914 -0.578705,-0.24303 -1.203492,-0.31012 -1.823596,-0.3512 -1.335593,-0.0682 -0.919162,0.44274 -0.925311,-1.58222 0.657894,-0.11919 1.325435,-0.15479 1.991982,-0.18622 0.658121,-0.0297 1.316878,-0.039 1.975572,-0.0438 0.214011,-0.0433 0.101505,-0.0202 0.337471,-0.0695 1.070758,-0.20379 1.358963,1.31049 0.288205,1.51428 v 0 c -0.390652,0.0694 -0.18351,0.0402 -0.622139,0.0826 -0.635492,-0.002 -1.271233,-0.005 -1.906405,0.0193 -0.588716,0.0293 -1.182187,0.0649 -1.754769,0.21532 -0.400516,-2.00606 -0.800952,-1.55844 -0.133826,-1.50656 0.287533,0.0224 0.576098,0.0191 0.863613,0.0423 0.786863,0.0657 1.578567,0.17412 2.311572,0.48429 0.860912,0.37152 1.528265,0.76655 1.862418,1.69652 0.170349,0.64407 0.174252,1.29283 0.04868,1.94863 -0.202716,0.7588 -0.617051,1.32012 -1.380082,1.59318 -0.836579,0.30029 -1.70865,0.35345 -2.592293,0.27124 -1.046048,-0.0746 -2.094825,-0.19257 -3.072691,-0.60001 -0.9419,-0.42924 -1.769192,-0.98369 -2.319382,-1.88872 -0.52174,-0.82448 -1.004615,-1.69353 -1.125834,-2.67809 -0.04369,-0.8226 0.03195,-1.64543 0.239514,-2.44467 0.244851,-0.77589 0.541232,-1.53683 0.934146,-2.251 0.568251,-0.82029 1.140129,-1.28802 2.167393,-1.38487 0.933032,-0.0502 1.853895,0.055 2.784252,0.11949 1.073227,0.11925 0.904584,1.63702 -0.16864,1.51777 z"
       inkscape:connector-curvature="0" />
    <path
       style="fill:#ffffff;stroke-width:0.26458332"
       id="path6254"
       d="m 80.410107,146.01318 c -0.06663,1.34406 -0.06234,2.69069 -0.06725,4.03608 0.03295,1.48608 -0.05701,2.96904 -0.137335,4.45202 -0.0078,0.17791 -0.01646,0.3558 -0.02352,0.53374 -0.0085,0.21537 -0.110459,1.09385 0.04419,1.27872 0.01902,0.0228 0.0043,-0.0592 0.0064,-0.0888 -0.0638,-0.0872 -0.127595,-0.17436 -0.191392,-0.26154 0.940623,0.60051 0.09138,1.93075 -0.849241,1.33025 v 0 c -0.117813,-0.12166 -0.235627,-0.24333 -0.353438,-0.36499 -0.0456,-0.12417 -0.105124,-0.24408 -0.1368,-0.37251 -0.171667,-0.696 0.07802,-1.45088 0.06337,-2.15014 0.113154,-1.45026 0.242567,-2.89996 0.18465,-4.35679 -0.0049,-1.34539 -5.29e-4,-2.69202 -0.06725,-4.03608 0,-1.08016 1.527578,-1.08016 1.527578,0 z"
       inkscape:connector-curvature="0" />
    <path
       style="fill:#ffffff;stroke-width:0.26458332"
       id="path6256"
       d="m 87.091847,146.54772 c -0.09459,1.55355 -0.0783,3.11167 -0.07821,4.66742 -0.01908,1.36761 0.07119,2.73658 0.01804,4.10341 -0.04623,0.55441 -0.02188,0.29642 -0.07092,0.77419 -0.162809,1.06596 -1.670296,0.83571 -1.50749,-0.23024 v 0 c 0.08318,-0.38394 0.04427,-0.17106 0.107204,-0.64032 0.130209,-1.32905 0.03117,-2.67395 0.082,-4.00704 9e-5,-1.55575 0.01638,-3.11387 -0.07821,-4.66742 0,-1.08016 1.52758,-1.08016 1.52758,0 z"
       inkscape:connector-curvature="0" />
    <path
       style="fill:#ffffff;stroke-width:0.26458332"
       id="path6258"
       d="m 80.918806,151.34907 c 1.134284,-0.0605 2.268447,-0.12294 3.403036,-0.17805 0.765688,-0.0858 1.560036,0.0404 2.319674,-0.091 1.073187,-0.12248 1.246404,1.39523 0.173217,1.51771 v 0 c -0.811742,0.0664 -1.628283,-0.003 -2.441874,0.0367 -1.097571,0.0229 -2.199436,0.06 -3.285411,0.23241 -1.073226,0.11925 -1.241869,-1.39852 -0.168642,-1.51776 z"
       inkscape:connector-curvature="0" />
    <path
       style="fill:#ffffff;stroke-width:0.26458332"
       id="path6260"
       d="m 94.508631,148.32325 c -0.868876,-0.1223 -1.5783,-0.2935 -2.367677,0.1677 -0.431739,0.46775 -0.45543,1.16448 -0.511344,1.76659 -0.01617,0.86658 0.190947,1.69696 0.653555,2.42843 0.481002,0.73082 1.165998,1.15673 1.982015,1.4178 0.8383,0.19254 1.710767,0.28114 2.569369,0.21288 0.446862,-0.0309 0.890267,-0.11955 1.305337,-0.28786 1.009793,-0.35732 1.515118,1.07075 0.505325,1.42806 v 0 c -0.55981,0.18135 -1.134168,0.31668 -1.724522,0.34792 -1.047562,0.0443 -2.102853,-0.0393 -3.119353,-0.30749 -1.174567,-0.40173 -2.089607,-0.99116 -2.777879,-2.05112 -0.597244,-1.02081 -0.910272,-2.12762 -0.86034,-3.32001 0.09911,-1.14068 0.271941,-2.27842 1.297003,-2.96643 0.163116,-0.0776 0.3194,-0.17154 0.489342,-0.23271 0.88133,-0.31726 1.817791,-0.15637 2.727809,-0.12153 1.073227,0.11925 0.904584,1.63702 -0.16864,1.51777 z"
       inkscape:connector-curvature="0" />
    <path
       style="fill:#ffffff;stroke-width:0.26458332"
       id="path6262"
       d="m 101.23129,147.07275 c 1.108,-0.022 2.20069,-0.21448 3.30071,-0.33048 1.04934,-0.13299 2.09646,-0.11704 3.14747,-0.0331 0.45696,-0.002 0.89259,0.15468 1.34481,0.18253 1.0757,0.12521 0.89862,1.64649 -0.17708,1.52128 v 0 c -0.43734,-0.0651 -0.86287,-0.18719 -1.30516,-0.21837 -0.95408,-0.1012 -1.90463,-0.12885 -2.86021,-0.006 -1.09655,0.11146 -2.18837,0.26694 -3.2819,0.40196 -1.07323,0.11925 -1.24187,-1.39852 -0.16864,-1.51777 z"
       inkscape:connector-curvature="0" />
    <path
       style="fill:#ffffff;stroke-width:0.26458332"
       id="path6264"
       d="m 106.11054,148.61484 c 0.15435,1.26294 0.26231,2.52987 0.46336,3.78647 0.0656,0.59514 0.22316,1.16272 0.45231,1.7122 0.39375,1.00544 -1.02816,1.56229 -1.42191,0.55685 v 0 c -0.24696,-0.66541 -0.40845,-1.35349 -0.46881,-2.06267 -0.1585,-1.24238 -0.23596,-2.49837 -0.50976,-3.72289 -0.1909,-1.04992 1.29391,-1.31989 1.48481,-0.26996 z"
       inkscape:connector-curvature="0" />
    <path
       style="fill:#ffffff;stroke-width:0.26458332"
       id="path6266"
       d="m 103.63672,155.35811 c 1.05683,-0.0677 2.11314,-0.13958 3.17155,-0.17727 0.80294,-0.0308 1.6062,-0.0513 2.40966,-0.0613 0.28585,-0.003 0.57172,-0.004 0.85759,-0.005 1.08245,0.001 1.08083,1.53194 -0.002,1.5308 v 0 c -0.28427,-0.001 -0.56853,-0.003 -0.85278,-0.005 -0.78746,-0.007 -1.57509,-0.0156 -2.36248,0.002 -1.02009,0.034 -2.0441,0.0692 -3.0533,0.2332 -1.07323,0.11925 -1.24187,-1.39852 -0.16864,-1.51777 z"
       inkscape:connector-curvature="0" />
    <path
       style="fill:#ff0000;stroke-width:0.26458332"
       id="path6276"
       d="m 226.76961,125.72849 c 0.97578,0.75268 2.01017,1.42376 3.04524,2.09075 0.90599,0.57379 1.80904,1.15232 2.70366,1.7437 0.52493,0.32994 1.02533,0.69595 1.54506,1.03348 0.87691,0.58653 0.0474,1.82668 -0.82948,1.24015 v 0 c -0.51075,-0.35072 -1.00801,-0.72103 -1.53456,-1.04849 -0.88448,-0.59817 -1.78141,-1.1779 -2.67462,-1.76288 -1.01553,-0.67624 -2.02375,-1.36532 -3.06297,-2.00444 -0.91378,-0.57111 -0.1061,-1.86338 0.80767,-1.29227 z"
       inkscape:connector-curvature="0" />
    <path
       style="fill:#ff0000;stroke-width:0.26458332"
       id="path6278"
       d="m 226.56599,131.60779 c 1.01734,-1.13322 1.93794,-2.3506 2.84346,-3.57389 0.75467,-1.02575 1.52183,-2.04175 2.33032,-3.02574 0.66414,-0.77972 1.76683,0.15953 1.10268,0.93924 v 0 c -0.82103,0.92842 -1.6098,1.8853 -2.33466,2.89142 -0.91919,1.26668 -1.87234,2.50737 -2.80254,3.76582 -0.70488,0.80558 -1.84414,-0.19127 -1.13926,-0.99685 z"
       inkscape:connector-curvature="0" />
    <path
       style="fill:#000000;stroke-width:0.26458332"
       id="path6280"
       d="m 211.90671,126.23524 c -0.0571,1.05985 -0.0407,2.12237 -0.0263,3.18323 0.12273,0.45238 -0.14107,0.94183 -0.0584,1.38886 0.009,0.0495 0.0154,-0.10101 0.008,-0.15074 0.31889,0.15624 -0.14862,-0.14067 -0.0905,-0.15493 0.10493,-0.0257 0.60434,0.0387 0.72676,0.0427 0.74157,0.0231 1.47838,0.0232 2.21498,-0.0673 0.65737,-0.0987 1.31825,-0.16393 1.98194,-0.19759 0.0959,-0.003 0.1923,-5.3e-4 0.28783,-0.01 0.0585,-0.006 0.20668,-0.0287 0.16283,-0.0679 -0.0338,-0.0302 -0.1009,0.0626 -0.13242,0.0301 -0.0217,-0.0224 0.0103,-0.0615 0.0154,-0.0923 -0.0265,-0.54907 -0.14426,-1.09156 -0.2982,-1.6184 -0.11804,-0.25209 -0.20963,-1.07337 -0.4865,-1.20344 -0.28077,-0.0372 -0.56626,-0.0656 -0.85139,-0.0786 -0.80895,-0.0214 -1.61062,-0.15377 -2.40526,-0.29849 -0.49739,0.0169 -1.38967,-0.45119 -1.8329,-0.29798 -1.07927,0.11686 -1.24453,-1.40946 -0.16526,-1.52632 v 0 c 0.83378,-0.0473 1.45015,0.22948 2.2583,0.35716 0.72774,0.12547 1.46213,0.24655 2.20263,0.24232 0.70454,0.022 1.40205,0.0631 1.94728,0.57069 0.42979,0.53679 0.62591,1.16231 0.78576,1.82593 0.21966,0.80371 0.43148,1.63863 0.3165,2.47582 -0.30404,0.89877 -0.79362,1.23246 -1.73484,1.21829 -0.62872,0.0252 -1.25558,0.0766 -1.87965,0.15848 -0.80042,0.0874 -1.60131,0.10565 -2.40621,0.107 -0.70528,0.003 -1.40373,0.004 -1.91975,-0.5548 -0.0665,-0.13866 -0.15462,-0.26889 -0.1995,-0.41598 -0.16939,-0.55503 0.15989,-1.12199 0.078,-1.68268 0.0144,-1.06086 0.0308,-2.12337 -0.0263,-3.18323 0,-1.08016 1.52758,-1.08016 1.52758,0 z"
       inkscape:connector-curvature="0" />
    <path
       style="fill:#000000;stroke-width:0.26458332"
       id="path6284"
       d="m 198.02359,129.16899 c 1.2778,-0.0648 2.55554,-0.12354 3.83445,-0.16311 0.86211,-0.0293 1.72458,-0.0478 2.58701,-0.0655 1.05757,-0.004 1.0634,1.49152 0.006,1.49564 v 0 c -0.85115,-0.011 -1.70232,-0.0169 -2.5535,-0.003 -1.24301,0.03 -2.49067,0.0676 -3.72266,0.24735 -1.06857,0.10686 -1.21968,-1.40431 -0.15112,-1.51117 z"
       inkscape:connector-curvature="0" />
    <path
       style="fill:#000000;stroke-width:0.26458332"
       id="path6286"
       d="m 225.02669,125.38984 c 0.1323,1.18503 0.30683,2.36265 0.38723,3.55307 0.0615,1.10829 0.0829,2.21839 0.1069,3.32801 -0.0248,0.5519 0.0202,1.07391 0.2151,1.58784 0.093,0.11906 0.31116,0.10013 0.46229,0.11991 0.484,0.0426 0.9708,0.0334 1.45615,0.0309 0.50451,0.0347 0.99089,-0.0331 1.48547,-0.11728 0.56449,-0.0992 1.13687,-0.13105 1.70869,-0.14944 0.54269,-0.0128 1.08558,-0.0113 1.62838,-0.0109 0.46428,-1.8e-4 0.92289,0.0315 1.37773,-0.0653 0.44954,-0.14748 0.94509,-0.0822 1.39488,-0.20508 0.0622,-0.009 0.91736,-0.20472 0.72932,-0.22144 0.0137,-0.26541 0.0635,-0.56096 0.0358,-0.84183 -0.0805,-0.85728 -0.22625,-1.70641 -0.34116,-2.55966 -0.0582,-0.7787 -0.23235,-1.54007 -0.40891,-2.29806 -0.11308,-0.64451 -0.2994,-1.27166 -0.42757,-1.91286 -0.10006,-0.48551 -0.2824,-0.93966 -0.4423,-1.4059 -0.0996,0.0752 -0.0193,-0.44123 -0.16499,-0.41202 -0.0752,0.0151 0.0396,0.0499 -0.11286,0.0228 -0.22538,0.0826 -0.5731,0.12575 -0.83896,0.19968 -0.52564,0.11776 -1.01384,0.34959 -1.51953,0.5283 -0.58928,0.19778 -1.20842,0.24823 -1.82492,0.27526 -0.45193,0.0118 -0.89078,0.14067 -1.33942,0.2013 -0.45592,0.004 -0.88494,0.14122 -1.32887,0.2256 -0.53823,0.0909 -1.08497,0.10343 -1.62943,0.11304 -0.28805,0.004 -0.57601,-0.004 -0.86302,0.0242 -1.11242,-1.8e-4 -1.11216,-1.57339 2.6e-4,-1.5732 v 0 c 0.27723,0.0285 0.55546,0.0188 0.83372,0.015 0.45738,-0.009 0.91688,-0.0192 1.36913,-0.0949 0.46882,-0.09 0.92922,-0.22521 1.41019,-0.23662 0.49443,-0.068 0.97968,-0.21198 1.48208,-0.2058 0.46693,-0.0193 0.93771,-0.0469 1.38685,-0.18756 0.53546,-0.18349 1.04711,-0.43719 1.6019,-0.56315 0.56386,-0.16395 1.1415,-0.30883 1.73033,-0.19514 0.66426,0.23365 1.13491,0.65039 1.26813,1.37002 0.17619,0.53238 0.36545,1.0584 0.48063,1.60933 0.11547,0.62247 0.29321,1.23117 0.39646,1.85621 0.19343,0.80859 0.3372,1.62826 0.40786,2.45761 0.10554,0.88077 0.28608,1.74791 0.39308,2.62828 0.0476,0.70436 0.0179,1.41372 -0.40859,2.00932 -0.54513,0.51208 -0.88614,0.53586 -1.57088,0.68561 -0.46539,0.0802 -0.93998,0.0936 -1.40065,0.2061 -0.55589,0.10385 -1.1135,0.0923 -1.67727,0.0839 -0.52627,-2.6e-4 -1.05262,-0.002 -1.57879,0.0101 -0.50198,0.0157 -1.0047,0.041 -1.5004,0.1274 -0.57552,0.0979 -1.14794,0.17218 -1.73376,0.13985 -0.56038,0.003 -1.1225,0.0148 -1.68109,-0.0384 -0.7427,-0.10972 -1.39038,-0.38041 -1.69343,-1.12402 -0.23635,-0.68253 -0.30846,-1.37988 -0.25612,-2.10116 0.0125,-1.07817 0.0123,-2.15709 -0.0559,-3.23372 -0.0877,-1.17558 -0.21019,-2.35023 -0.46089,-3.50394 -0.10686,-1.06856 1.40431,-1.21968 1.51117,-0.15112 z"
       inkscape:connector-curvature="0" />
  </g>
</svg>
