<?xml version="1.0" encoding="UTF-8" standalone="no"?>
<!-- Created with Inkscape (http://www.inkscape.org/) -->

<svg
   xmlns:dc="http://purl.org/dc/elements/1.1/"
   xmlns:cc="http://creativecommons.org/ns#"
   xmlns:rdf="http://www.w3.org/1999/02/22-rdf-syntax-ns#"
   xmlns:svg="http://www.w3.org/2000/svg"
   xmlns="http://www.w3.org/2000/svg"
   xmlns:sodipodi="http://sodipodi.sourceforge.net/DTD/sodipodi-0.dtd"
   xmlns:inkscape="http://www.inkscape.org/namespaces/inkscape"
   width="297mm"
   height="210mm"
   viewBox="0 0 297 210"
   version="1.1"
   id="svg6012"
   inkscape:version="0.92.1 r15371"
   sodipodi:docname="ляндаhello.svg">
  <defs
     id="defs6006" />
  <sodipodi:namedview
     id="base"
     pagecolor="#ffffff"
     bordercolor="#666666"
     borderopacity="1.0"
     inkscape:pageopacity="0.0"
     inkscape:pageshadow="2"
     inkscape:zoom="0.98994949"
     inkscape:cx="580.34277"
     inkscape:cy="393.66789"
     inkscape:document-units="mm"
     inkscape:current-layer="layer1"
     showgrid="false"
     inkscape:window-width="1920"
     inkscape:window-height="1001"
     inkscape:window-x="-9"
     inkscape:window-y="-9"
     inkscape:window-maximized="1" />
  <metadata
     id="metadata6009">
    <rdf:RDF>
      <cc:Work
         rdf:about="">
        <dc:format>image/svg+xml</dc:format>
        <dc:type
           rdf:resource="http://purl.org/dc/dcmitype/StillImage" />
        <dc:title></dc:title>
      </cc:Work>
    </rdf:RDF>
  </metadata>
  <g
     inkscape:label="Layer 1"
     inkscape:groupmode="layer"
     id="layer1"
     transform="translate(0,-87)">
    <path
       id="path6022"
       transform="matrix(0.26458333,0,0,0.26458333,0,87)"
       style="fill:#000000;stroke-width:0.99999994"
       d="m 409.5918,154.54102 c -1.35398,0.19555 -2.7274,0.27904 -4.06055,0.58593 -6.16577,1.41948 -10.83846,5.58983 -14.41016,10.62696 -3.77223,5.77515 -6.55069,11.98615 -8.10351,18.73242 -1.27892,12.78905 16.80706,14.59764 18.08594,1.80859 -0.49429,-4.22717 1.59215,-7.87849 3.92578,-11.21094 1.45814,-1.77237 3.70794,-3.89717 6.23632,-3.41796 3.9913,0.49602 7.29659,3.16232 10.30665,5.62109 6.55339,5.75558 10.37243,13.56358 13.70703,21.45508 3.80709,9.33105 6.11026,19.08381 8.01172,28.9375 2.9157,0.0725 5.8195,0.62216 8.80468,1.18164 2.23448,0.41878 3.84349,0.51832 5.69336,1.99219 -0.10827,-0.97257 -0.2072,-1.94609 -0.32226,-2.91797 -1.78054,-11.8921 -3.9166,-23.74327 -8.50196,-34.93555 -4.19444,-10.05831 -9.09245,-19.87452 -16.88867,-27.68359 -5.49195,-5.05535 -10.98814,-9.4347 -18.6289,-10.59766 -1.27144,-0.19351 -2.57077,-0.1184 -3.85547,-0.17773 z m 51.98242,124.82226 c -0.83824,0.88115 -1.75228,1.70126 -2.76172,2.4375 -1.45765,1.06318 -3.18308,1.69672 -4.77539,2.54492 -1.64225,0.20014 -3.27588,0.54704 -4.92383,0.66211 0.70807,11.84852 1.27516,23.70642 1.78125,35.56446 0.8109,19.30696 2.55972,38.54584 4.92578,57.71875 2.59964,23.04173 8.33219,45.51888 14.48828,67.81836 5.93148,21.16579 12.67989,42.1622 21.47852,62.33203 1.78159,4.08415 3.75552,8.08396 5.63281,12.125 9.27273,18.34537 20.72782,35.75833 35.21289,50.43945 2.55417,2.58875 5.31673,4.96515 7.97461,7.44726 10.79418,8.52556 22.47997,15.82115 36.90235,14.38282 9.88977,-0.98631 12.30304,-3.42303 21.01757,-8.07813 12.71638,-9.13587 20.71743,-20.67417 29.80274,-33.11914 10.94921,-14.99826 7.79098,-10.63774 18.07617,-25.32226 2.62828,-4.04878 -3.09633,-7.76543 -5.72461,-3.7168 -2.51044,4.18859 -4.85274,8.48132 -7.53125,12.56445 -8.28835,12.63481 -18.04714,24.44313 -29.89648,33.92774 -2.94981,2.36114 -6.24608,4.25419 -9.36914,6.38086 -6.80028,3.10711 -8.79936,4.71704 -16.10352,5.55859 -11.34395,1.30692 -21.34325,-4.03471 -30.27344,-10.40234 -2.57586,-2.13502 -5.26393,-4.13961 -7.72656,-6.4043 -14.49524,-13.33028 -25.72038,-29.85863 -34.95898,-47.12695 -1.84623,-3.90785 -3.79602,-7.76769 -5.53907,-11.72266 -8.7247,-19.79649 -15.132,-40.5514 -20.43554,-61.49414 -5.40409,-21.99734 -10.43169,-44.15135 -12.60938,-66.74219 -1.84773,-18.93607 -2.96767,-37.93163 -3.26172,-56.95898 -0.30615,-13.60901 -0.68231,-27.22175 -1.40234,-40.81641 z" />
    <path
       style="fill:#000000;stroke-width:0.26458332"
       id="path6034"
       d="m 80.724869,218.61425 c -0.0021,0.19186 -0.02273,0.38444 -0.006,0.57557 0.251132,2.86738 1.567264,5.80095 2.711844,8.39521 1.682848,3.28122 3.509817,6.81015 6.596631,9.00866 0.388718,0.27686 0.826418,0.47754 1.239626,0.71631 0.355333,0.10154 0.700847,0.24774 1.065996,0.30462 1.350766,0.21045 2.790047,-0.43986 3.878167,-1.16474 0.416605,-0.27753 0.796546,-0.6065 1.194821,-0.90975 3.791346,-3.38982 5.949656,-8.05663 8.071726,-12.57696 2.54389,-5.67196 4.75541,-11.4864 7.29352,-17.1613 0.50702,-1.13363 1.04197,-2.25456 1.56295,-3.38185 1.39162,-2.94677 2.8598,-5.85436 4.25494,-8.79933 0.93191,-1.6645 3.28587,-0.34657 2.35396,1.31792 v 0 c -0.51618,0.78872 -1.05807,1.56119 -1.54853,2.36615 -1.30219,2.13723 -2.09673,3.73834 -3.26779,5.9663 -0.53604,1.09916 -1.0918,2.18891 -1.60811,3.29748 -2.62541,5.63709 -4.72875,11.48986 -6.90704,17.30796 -1.99574,5.13061 -4.04231,10.42219 -7.941716,14.44317 -1.265454,1.08174 -1.739313,1.63589 -3.246181,2.35235 -1.760093,0.83686 -3.679745,1.10993 -5.556779,0.47809 -0.597707,-0.2012 -1.130083,-0.56022 -1.695124,-0.84033 -0.513604,-0.40856 -1.060929,-0.778 -1.540809,-1.22568 -2.952581,-2.75451 -4.845802,-6.7554 -6.900749,-10.17009 -1.677789,-3.09254 -3.32432,-6.20654 -4.707273,-9.44486 -0.604499,-3.32476 4.097414,-4.17965 4.701915,-0.8549 z"
       inkscape:connector-curvature="0" />
    <path
       style="fill:#000000;stroke-width:0.26458332"
       id="path6066"
       d="m 127.0593,148.56191 c -0.92822,-0.16486 -1.87924,-0.25123 -2.82203,-0.21097 -0.90247,0.0167 -1.76101,0.28205 -2.57316,0.65847 -1.0712,0.45213 -1.96882,1.18806 -2.74917,2.03641 -0.76982,0.86798 -1.11294,1.90373 -1.31544,3.02157 -0.23472,1.20857 0.0409,2.35599 0.51683,3.4651 0.4572,1.10297 1.24569,1.9606 2.12162,2.74471 0.98912,0.82844 2.14363,1.40295 3.36875,1.78536 1.11339,0.31558 2.2386,0.37346 3.37175,0.16639 1.09057,-0.26388 1.96688,-0.89674 2.8167,-1.59605 0.67657,-0.57727 1.29669,-1.20194 1.59143,-2.0526 0.24789,-0.9542 0.24822,-1.95028 0.2592,-2.92964 0.0604,-1.15524 -0.01,-2.2924 -0.19788,-3.43077 -0.1374,-0.86954 -0.57856,-1.56325 -1.12649,-2.22781 -0.70369,-0.81066 -1.61389,-1.33623 -2.58515,-1.76255 -1.20414,-0.46862 -2.46458,-0.46778 -3.72531,-0.30177 -0.76134,0.14988 -1.4485,0.48989 -2.13278,0.83808 -1.4802,0.69963 -2.46963,-1.39369 -0.98943,-2.09332 v 0 c 0.90783,-0.40315 1.82145,-0.79279 2.79791,-1.00415 1.79784,-0.27429 3.322,-0.29372 5.04323,0.37649 1.28364,0.59928 2.50902,1.31194 3.45467,2.39052 0.83922,0.99519 1.47365,2.08988 1.65061,3.40313 0.19731,1.27601 0.25754,2.55 0.21596,3.84139 -0.0166,1.27112 0.0116,2.57075 -0.37693,3.79584 -0.0837,0.202 -0.15341,0.41036 -0.25103,0.606 -0.48306,0.96817 -1.3077,1.70721 -2.1132,2.40296 -1.17304,0.95497 -2.43767,1.77113 -3.93696,2.10409 -1.56835,0.24522 -2.97352,0.17117 -4.50334,-0.28249 -1.51461,-0.51689 -2.9686,-1.2139 -4.19978,-2.25426 -1.1585,-1.01313 -2.15152,-2.17381 -2.74234,-3.61494 -0.61873,-1.53797 -0.962,-3.13151 -0.66006,-4.79097 0.30008,-1.66469 0.79435,-2.93126 1.91105,-4.23197 1.00648,-1.05395 2.12845,-1.9878 3.46534,-2.59762 1.11348,-0.51938 2.28429,-0.90112 3.52579,-0.91981 1.0595,-0.0183 2.11184,0.10948 3.17071,0.13556 1.78871,0.19874 1.50764,2.72836 -0.28107,2.52962 z"
       inkscape:connector-curvature="0" />
    <path
       style="fill:#000000;stroke-width:0.26458332"
       id="path6070"
       d="m 117.3079,149.40921 c -0.67621,-0.43348 -1.46385,-0.58402 -2.22617,-0.7877 -0.7213,-0.15773 -1.44769,-0.29843 -2.17574,-0.42352 -0.5802,-0.13163 -1.15869,-0.0306 -1.74154,0.0152 -0.65059,0.13839 -1.32303,0.17482 -1.95978,0.37171 -0.62939,0.15684 -1.18095,0.45463 -1.69994,0.83428 -0.30529,0.25853 -0.68024,0.4182 -0.99727,0.65898 -0.20289,0.1541 -0.37053,0.3902 -0.52886,0.5859 -0.51369,0.62099 -0.90842,1.31967 -1.22564,2.05759 -0.3359,0.66349 -0.47893,1.37953 -0.56137,2.111 -0.089,0.87101 -0.0871,1.74378 0.0647,2.60658 0.16969,0.67198 0.53403,1.26051 0.945,1.80934 0.43595,0.57711 0.9877,1.04695 1.54767,1.4986 0.64209,0.43958 1.37588,0.68929 2.09949,0.95551 0.74905,0.27107 1.53922,0.34701 2.32774,0.39754 0.89789,0.0404 1.79615,0.0905 2.68735,-0.0446 0.94731,-0.15771 1.76692,-0.59944 2.55602,-1.12252 0.66965,-0.48885 1.27759,-1.06647 1.82063,-1.69274 1.22123,-1.28903 3.0442,0.43806 1.82296,1.72709 v 0 c -0.72644,0.72051 -1.47683,1.43503 -2.32527,2.01007 -1.09114,0.68815 -2.22925,1.27682 -3.51745,1.49333 -1.06327,0.15439 -2.13163,0.15277 -3.20406,0.10126 -1.02255,-0.0666 -2.04012,-0.19845 -3.00989,-0.54769 -0.97806,-0.34976 -1.95318,-0.72023 -2.80152,-1.33533 -0.74096,-0.58278 -1.4577,-1.2084 -2.01496,-1.97529 -0.62703,-0.87778 -1.16814,-1.81774 -1.35791,-2.89539 -0.15418,-1.07898 -0.2107,-2.16463 -0.1081,-3.25248 0.1041,-0.99359 0.33003,-1.95641 0.77206,-2.85936 0.42701,-0.91823 0.90769,-1.81477 1.54367,-2.60816 0.56559,-0.70115 1.22612,-1.26301 2.00829,-1.71279 0.75208,-0.53125 1.55726,-0.97331 2.45568,-1.20481 0.79903,-0.22531 1.61917,-0.3297 2.43592,-0.47341 0.80284,-0.0813 1.61175,-0.16644 2.40775,0.0222 0.79366,0.1467 1.58869,0.294 2.37283,0.48375 0.93011,0.24452 1.83989,0.54323 2.72668,0.91809 1.61071,0.80535 0.47176,3.08323 -1.13894,2.27788 z"
       inkscape:connector-curvature="0" />
    <path
       style="fill:#000000;stroke-width:0.26458332"
       id="path6072"
       d="m 109.10933,156.39577 c 0.11208,-0.96868 0.36318,-2.00454 1.02519,-2.75943 0.13828,-0.15769 0.3067,-0.28615 0.46005,-0.42923 0.23362,-0.10314 0.447,-0.28157 0.70085,-0.30943 1.61245,-0.17699 2.07256,1.18813 2.30654,2.44094 0.10245,1.00947 0.0336,2.16822 -0.785,2.89464 -0.17809,0.15804 -0.40212,0.2551 -0.60317,0.38264 -0.23145,0.0524 -0.45707,0.15279 -0.69433,0.15718 -1.31522,0.0243 -1.8885,-0.9059 -2.22627,-2.00926 -0.18871,-0.97187 0.0385,-1.99159 0.93847,-2.53767 0.16425,-0.0997 0.35219,-0.1536 0.52829,-0.2304 0.29759,0.0109 0.60373,-0.039 0.89275,0.0327 0.76865,0.1907 1.31119,1.0428 1.41852,1.77965 0.0283,0.19408 0.005,0.39223 0.008,0.58835 -0.0593,0.19901 -0.0784,0.41468 -0.17778,0.59703 -0.51828,0.95139 -1.61115,1.17007 -2.51645,0.64079 -0.16201,-0.0947 -0.29413,-0.23315 -0.4412,-0.34973 -0.61775,-0.71544 -0.98733,-1.7146 -0.40886,-2.58797 0.12271,-0.18527 0.3153,-0.31324 0.47295,-0.46985 1.14763,-0.32233 0.57138,-0.34068 1.727,0.0953 1.48401,1.11123 -0.0875,3.20993 -1.57152,2.0987 v 0 c 0.91393,0.25486 0.4712,0.27899 1.3295,-0.0424 0.085,-0.10647 0.19332,-0.19794 0.25498,-0.31942 0.0934,-0.184 0.1643,-0.64162 -0.0668,-0.66722 -0.54364,-0.18272 -1.17244,0.19672 -1.16479,0.79837 0.14042,0.40415 0.6372,0.36008 1.00626,0.27801 0.1429,-0.10523 0.24809,-0.17978 0.2734,-0.36811 0.005,-0.0399 -0.0277,-0.14143 -0.0518,-0.10917 -0.0161,0.0215 -0.0117,0.0523 -0.0176,0.0785 0.0248,0.11068 0.0532,0.22744 0.0444,0.22882 -0.0417,0.007 -0.0731,-0.0436 -0.11324,-0.0566 -0.19352,-0.0624 -0.41433,-0.0504 -0.569,0.0919 -0.0233,0.0356 -0.16531,0.39407 -0.0208,0.17462 0.13535,-0.20556 0.11291,-0.47035 0.10489,-0.70181 -0.0337,-0.16605 -0.10325,-0.32632 -0.11371,-0.49543 -0.003,-0.0535 0.32658,0.11866 0.32825,0.11883 0.51151,0.0521 0.46849,0.0122 0.77546,-0.23505 -0.23766,-0.17869 -0.57447,0.98217 -0.50736,1.20119 0,1.80027 -2.54596,1.80027 -2.54596,0 z"
       inkscape:connector-curvature="0" />
    <path
       style="fill:#000000;stroke-width:0.26458332"
       id="path6074"
       d="m 124.02498,153.77478 c 1.09589,-0.11667 2.29955,-0.0482 3.13096,0.77681 0.17442,0.17309 0.29567,0.39256 0.4435,0.58884 0.52965,1.04903 0.50809,2.35077 -0.47214,3.14559 -0.17466,0.14163 -0.38537,0.23186 -0.57805,0.34778 -0.24225,0.0459 -0.4802,0.1367 -0.72677,0.13772 -1.1825,0.005 -1.91072,-0.90085 -2.40426,-1.84766 -0.37797,-0.99535 -0.23827,-2.17336 0.74905,-2.77929 0.2061,-0.1265 0.44435,-0.19099 0.66652,-0.28648 1.57747,-0.21685 2.39183,0.31667 3.05203,1.72273 0.29514,0.91782 0.35808,1.97342 -0.27349,2.77703 -0.12068,0.15356 -0.28168,0.27063 -0.42252,0.40594 -0.94233,0.61912 -2.08958,0.54829 -2.8436,-0.34985 -0.1387,-0.16522 -0.23211,-0.36367 -0.34817,-0.54551 -0.32229,-0.87157 -0.13891,-1.78496 0.68402,-2.30713 0.16715,-0.10606 0.36354,-0.15679 0.54531,-0.23518 1.76205,-0.51381 2.48869,1.97811 0.72664,2.49192 v 0 c 0.38225,-0.25031 0.62015,-0.67737 0.32729,-1.10766 -0.18808,-0.1442 -0.56609,-0.17613 -0.70714,0.0602 -0.17537,0.38746 0.14491,0.20068 -0.004,-0.19119 -0.0736,-0.27013 0.0355,-0.10338 0.0723,-0.22464 0.006,-0.0187 -0.0301,-0.0249 -0.0451,-0.0374 0.008,-0.0149 0.0153,-0.0298 0.023,-0.0447 0.0958,-0.10374 0.25881,-0.53973 0.0889,-0.50601 -0.0193,0.004 -0.0141,0.0368 -0.0212,0.0553 0.22953,0.60395 0.25161,0.20694 -0.2256,0.50289 -0.0272,0.0381 -0.0633,0.0712 -0.0817,0.11424 -0.0502,0.11784 0.15787,0.35952 0.14021,0.0824 -0.002,-0.0509 0.0263,-0.10837 10e-4,-0.15287 -0.15927,-0.28543 -0.71266,-0.16214 -0.94616,-0.11137 -1.75526,0.39006 -2.30689,-2.09226 -0.55162,-2.48232 z"
       inkscape:connector-curvature="0" />
    <path
       style="fill:#000000;stroke-width:0.26458332"
       id="path6076"
       d="m 118.38128,194.15499 c 0.65022,-0.66965 1.19239,-1.43188 1.8341,-2.10896 0.35215,-0.36662 0.6557,-0.76852 0.96554,-1.16923 0.0304,-0.0449 0.0707,-0.0845 0.0912,-0.13476 0.007,-0.0169 -0.0293,0.0296 -0.0474,0.0274 -0.0114,-0.001 -0.004,-0.0226 -0.007,-0.0339 -0.0263,0.25103 -0.0526,0.50206 -0.0789,0.75309 -0.45935,-1.81385 2.10581,-2.46348 2.56516,-0.64963 v 0 c -0.0511,0.90198 -0.002,0.97128 -0.5205,1.64141 -0.3836,0.44906 -0.72997,0.92831 -1.17275,1.32568 -0.58773,0.57455 -1.13674,1.19065 -1.60445,1.8681 -1.07419,1.43225 -3.09969,-0.0869 -2.02551,-1.51913 z"
       inkscape:connector-curvature="0" />
    <path
       style="fill:#ff0000;stroke-width:0.26458332"
       id="path6118"
       d="m 128.76055,172.2056 c -0.12646,1.45401 -0.12187,2.91729 -0.12752,4.37594 0.02,1.57775 -0.0327,3.15937 0.0665,4.73487 0.0892,0.78278 0.0732,1.59222 0.31798,2.34782 0.3644,1.74662 -2.10571,2.26196 -2.47011,0.51534 v 0 c -0.12733,-0.91485 -0.16945,-1.83329 -0.20795,-2.75591 -0.049,-1.6135 0.0243,-3.22801 0.003,-4.84212 -0.006,-1.45865 -0.001,-2.92193 -0.12751,-4.37594 0,-1.80027 2.54596,-1.80027 2.54596,0 z"
       inkscape:connector-curvature="0" />
    <path
       style="fill:#ff0000;stroke-width:0.26458332"
       id="path6120"
       d="m 134.0989,174.10845 c -0.12738,1.47427 -0.11325,2.95651 -0.11629,4.43499 0.0334,1.29487 -0.21812,2.60051 -0.0975,3.89272 0.004,0.0281 0.0694,0.53809 0.0785,0.57639 0.007,0.028 0.0169,0.0659 0.0445,0.074 0.0187,0.006 0.0253,-0.0382 0.0171,-0.0558 -0.0605,-0.12886 -0.14405,-0.24555 -0.21607,-0.36832 1.35386,1.27713 -0.45228,3.19178 -1.80615,1.91465 v 0 c -0.1167,-0.16492 -0.25339,-0.31737 -0.3501,-0.49475 -0.26137,-0.47944 -0.21303,-1.08529 -0.24574,-1.60789 0.0469,-1.31272 0.24678,-2.61651 0.27618,-3.93102 -0.003,-1.47848 0.0111,-2.96072 -0.11628,-4.43499 0,-1.79031 2.53188,-1.79031 2.53188,0 z"
       inkscape:connector-curvature="0" />
    <path
       style="fill:#ff0000;stroke-width:0.26458332"
       id="path6122"
       d="m 128.83583,177.02723 c 0.98154,-0.0917 1.93222,-0.35272 2.89425,-0.55278 0.42145,-0.12304 0.87766,-0.0837 1.29514,-0.21153 1.77326,-0.33692 2.24973,2.17085 0.47648,2.50776 v 0 c -0.43963,0.0648 -0.88124,0.0898 -1.32176,0.14875 -0.93954,0.14748 -1.87473,0.34232 -2.79248,0.59012 -1.75527,0.39006 -2.3069,-2.09226 -0.55163,-2.48232 z"
       inkscape:connector-curvature="0" />
    <path
       style="fill:#ff0000;stroke-width:0.26458332"
       id="path6124"
       d="m 138.1009,173.07134 c -0.11861,1.39937 -0.0871,2.80643 -0.0876,4.20945 -0.0363,1.22198 0.0798,2.43621 0.21208,3.64887 0.0857,0.28283 0.0561,0.61601 0.21668,0.87536 0.0117,0.0189 0.0589,0.0598 0.0547,0.038 -0.0615,-0.31892 -0.3004,-0.37224 -0.56943,-0.57558 1.76353,0.57955 0.94393,3.07356 -0.81961,2.49402 v 0 c -0.22865,-0.14367 -0.48443,-0.25125 -0.68595,-0.43101 -0.52154,-0.46523 -0.53644,-1.57318 -0.6412,-2.2046 -0.0662,-1.28115 -0.16551,-2.56111 -0.1099,-3.84511 -5.3e-4,-1.40302 0.031,-2.81008 -0.0876,-4.20945 0,-1.78035 2.51781,-1.78035 2.51781,0 z"
       inkscape:connector-curvature="0" />
    <path
       style="fill:#ff0000;stroke-width:0.26458332"
       id="path6126"
       d="m 137.92299,171.41457 c 1.05821,-0.15254 2.11499,-0.30795 3.18112,-0.39323 0.77608,-0.063 1.55406,-0.0946 2.3324,-0.10909 0.0767,-0.006 0.15333,-0.0117 0.23,-0.0175 1.81955,-0.002 1.82225,2.57131 0.003,2.57322 v 0 c -0.0739,-0.006 -0.14777,-0.0113 -0.22166,-0.017 -0.72042,-0.008 -1.44143,-0.018 -2.16132,0.0183 -0.94625,0.0644 -1.90199,0.14053 -2.81162,0.42769 -1.75527,0.39006 -2.30689,-2.09226 -0.55163,-2.48232 z"
       inkscape:connector-curvature="0" />
    <path
       style="fill:#ff0000;stroke-width:0.26458332"
       id="path6128"
       d="m 139.05185,176.76113 c 0.95929,-0.11243 1.91536,-0.25507 2.8575,-0.46809 0.28026,-0.0277 0.52442,-0.14184 0.78395,-0.23649 1.71301,-0.56036 2.50548,1.86221 0.79247,2.42256 v 0 c -0.35647,0.10665 -0.71445,0.21396 -1.08559,0.25698 -0.95105,0.16945 -1.92007,0.2426 -2.85233,0.50502 -1.75361,0.35073 -2.24961,-2.12925 -0.496,-2.47998 z"
       inkscape:connector-curvature="0" />
    <path
       style="fill:#ff0000;stroke-width:0.26458332"
       id="path6130"
       d="m 138.1488,181.59053 c 1.25536,0.0411 2.49476,-0.17782 3.73809,-0.31179 0.81218,-0.14816 1.65569,-0.0843 2.4664,-0.22468 0.0249,-0.01 0.23067,-0.0749 0.0906,-0.0995 1.40509,-1.14124 3.01905,0.84586 1.61396,1.9871 v 0 c -0.43851,0.30756 -0.85604,0.56423 -1.40355,0.62667 -0.84145,0.0795 -1.68973,0.0264 -2.53221,0.10842 -1.25113,0.10985 -2.5031,0.23831 -3.74535,0.42065 -1.77259,0.16114 -2.00049,-2.34568 -0.22789,-2.50683 z"
       inkscape:connector-curvature="0" />
    <path
       style="fill:#ff0000;stroke-width:0.26458332"
       id="path6132"
       d="m 149.06599,173.03937 c -0.008,1.25637 0.095,2.51182 0.1346,3.76797 0.0162,1.14887 0.17686,2.28903 0.29406,3.43057 0.0889,0.24436 0.0267,0.57377 0.19159,0.79184 0.0468,0.0619 -0.0365,-0.17575 -0.0605,-0.20995 -0.0148,-0.0673 -0.11008,-0.0467 -0.14092,-0.094 -0.005,-0.008 0.0457,-0.01 0.25649,-0.0348 0.28575,-0.0341 0.17077,-0.009 0.3782,-0.0671 0.6537,-0.17823 1.32879,-0.25975 2.00242,-0.31637 0.0457,-0.13267 0.33599,0.0527 0.43644,-0.0541 0.0561,-0.0596 -0.17541,-0.001 -0.24089,0.0478 -0.10362,0.0778 -0.18347,0.18298 -0.2752,0.27447 0.80782,-1.64594 3.13553,-0.5035 2.32771,1.14243 v 0 c -0.14492,0.19985 -0.25946,0.42573 -0.43476,0.59954 -0.42495,0.42136 -1.05423,0.50276 -1.61822,0.52206 -0.54303,0.037 -1.08321,0.10118 -1.60436,0.26701 -0.82142,0.18503 -1.67071,0.31057 -2.45067,-0.10331 -0.14789,-0.10988 -0.31177,-0.20101 -0.44367,-0.32965 -0.61177,-0.59664 -0.7103,-1.44581 -0.78874,-2.24988 -0.0555,-1.17777 -0.17711,-2.35206 -0.1924,-3.53154 -0.0524,-1.28754 -0.11578,-2.57665 -0.30306,-3.85309 0,-1.79031 2.53188,-1.79031 2.53188,0 z"
       inkscape:connector-curvature="0" />
    <path
       style="fill:#ff0000;stroke-width:0.26458332"
       id="path6134"
       d="m 156.3076,173.44798 c 0.0358,1.25624 0.32511,2.48186 0.63261,3.6942 0.2664,0.72648 0.26284,1.73256 0.83907,2.31535 0.17714,-0.0288 0.38953,0.009 0.58116,0.0261 0.89847,0.0506 1.79918,0.0414 2.69873,0.0411 0.42056,-0.0317 0.85325,0.0314 1.26978,-0.0569 0.0703,-0.0149 0.24328,-0.0773 0.18218,-0.115 -0.0248,-0.0153 -0.0583,0.004 -0.0874,0.006 1.39938,-1.14892 3.02421,0.8301 1.62482,1.97903 v 0 c -0.16027,0.10961 -0.30871,0.23894 -0.48082,0.32883 -0.7679,0.40111 -1.66319,0.29698 -2.4945,0.30271 -0.9565,0.0107 -1.91291,0.0346 -2.86947,0.0334 -0.99346,-0.0447 -1.88432,-0.28377 -2.51125,-1.12235 -0.59333,-0.97172 -0.8263,-2.06654 -1.06004,-3.17225 -0.31579,-1.32922 -0.56869,-2.67053 -0.84351,-4.00822 -0.17809,-1.78093 2.34053,-2.0328 2.51862,-0.25186 z"
       inkscape:connector-curvature="0" />
    <path
       style="fill:#ff0000;stroke-width:0.26458332"
       id="path6136"
       d="m 166.34862,173.55464 c -0.25059,0.86362 -0.40657,1.74793 -0.21178,2.63447 0.20613,0.91776 0.62057,1.76327 1.23435,2.47379 0.45145,0.3913 1.03425,0.51945 1.61841,0.52108 0.72895,-0.0617 1.42012,-0.38403 1.9541,-0.88146 0.49088,-0.47983 0.60488,-1.09943 0.70018,-1.74984 0.15779,-0.98534 0.041,-1.77648 -0.34368,-2.68323 -0.31283,-0.61636 -0.76274,-1.20461 -1.40683,-1.49236 -0.7053,-0.23628 -1.46041,-0.34341 -2.19451,-0.20407 -0.18868,0.074 -0.30486,0.21382 -0.43276,0.36241 -1.30189,1.18194 -2.97341,-0.65921 -1.67152,-1.84115 v 0 c 0.53852,-0.45222 1.06219,-0.85033 1.7807,-0.96847 1.2512,-0.12955 2.51591,-0.0186 3.68395,0.47909 0.20172,0.115 0.41369,0.21365 0.60517,0.34501 0.85382,0.58575 1.46459,1.49606 1.88895,2.41992 0.51944,1.3569 0.70356,2.45389 0.5145,3.90505 -0.16631,1.33913 -0.54299,2.39683 -1.56994,3.32812 -1.05412,0.81109 -2.2364,1.41068 -3.59446,1.44661 -1.3715,-0.0679 -2.48438,-0.4242 -3.43504,-1.47326 -0.8078,-1.07136 -1.46191,-2.2447 -1.75071,-3.56816 -0.0857,-0.577 -0.1292,-0.7049 -0.11708,-1.29461 0.0156,-0.7593 0.20371,-1.50062 0.26802,-2.25493 0.35072,-1.75362 2.8307,-1.25762 2.47998,0.49599 z"
       inkscape:connector-curvature="0" />
    <path
       style="fill:#ff0000;stroke-width:0.26458332"
       id="path6138"
       d="m 179.02551,167.56805 c 0.11005,1.21361 0.23128,2.42971 0.38648,3.63892 0.12673,1.02557 0.26734,2.04721 0.4436,3.06538 0.0602,0.35191 0.10137,0.70556 0.16847,1.05618 0.20334,1.79544 -2.3358,2.083 -2.53914,0.28756 v 0 c -0.0114,-0.32598 -0.0372,-0.65046 -0.0807,-0.97398 -0.13437,-1.04792 -0.27203,-2.09402 -0.37172,-3.14606 -0.1419,-1.22969 -0.21065,-2.47303 -0.52559,-3.67613 -0.17809,-1.78094 2.34053,-2.0328 2.51862,-0.25187 z"
       inkscape:connector-curvature="0" />
    <path
       style="fill:#ff0000;stroke-width:0.26458332"
       id="path6140"
       d="m 177.95506,180.00548 c 0.80015,-0.25615 1.58077,-0.74361 2.4431,-0.76266 0.19766,-0.004 0.39387,0.035 0.5908,0.0525 0.82606,0.39634 1.19859,0.38475 1.03642,1.85035 -0.0372,0.33576 -0.41717,0.53868 -0.67841,0.75284 -0.35583,0.2917 -0.97138,0.2569 -1.39649,0.24689 -0.93432,-0.0903 -1.70998,-0.63886 -1.97067,-1.56742 -0.042,-0.14978 -0.0399,-0.30857 -0.0599,-0.46285 0.11805,-1.2817 0.79229,-2.04777 2.27311,-1.43583 0.40409,0.16699 0.49812,0.682 0.59967,1.037 0.43843,1.78674 -2.08842,2.40677 -2.52684,0.62002 v 0 c 0.45045,1.05965 2.36051,0.82861 2.23933,-0.3882 -0.0828,-0.21013 -0.27686,-0.44017 -0.48259,-0.3622 0.0394,0.002 0.0961,-0.0275 0.11817,0.005 0.0364,0.0538 -0.13137,0.0413 -0.17172,0.0923 -0.15296,0.19306 -0.43803,0.3533 -0.43195,0.59953 0.0335,1.3568 0.16241,1.28052 0.88979,1.52706 0.0551,-0.0142 0.13018,0.002 0.16526,-0.0427 0.0233,-0.0297 -0.072,-0.0302 -0.10978,-0.0282 -0.4975,0.0262 -0.95897,0.32547 -1.38834,0.5443 -1.6107,0.80535 -2.74964,-1.47253 -1.13894,-2.27788 z"
       inkscape:connector-curvature="0" />
  </g>
</svg>
